<svg width="17" height="17" viewBox="0 0 17 17" fill="none" xmlns="http://www.w3.org/2000/svg">
<path opacity="0.3" d="M8.69373 1.26953C10.1542 1.26952 11.3013 1.26952 12.1969 1.38992C13.1147 1.51332 13.8429 1.77134 14.415 2.34347C14.9871 2.9156 15.2451 3.64378 15.3685 4.56154C15.4889 5.45716 15.4889 6.60426 15.4889 8.06473V8.141C15.4889 9.60146 15.4889 10.7486 15.3685 11.6442C15.2451 12.5619 14.9871 13.2901 14.415 13.8623C13.8429 14.4344 13.1147 14.6924 12.1969 14.8158C11.3013 14.9362 10.1542 14.9362 8.69373 14.9362H8.61747C7.157 14.9362 6.00989 14.9362 5.11428 14.8158C4.19651 14.6924 3.46834 14.4344 2.89621 13.8623C2.32407 13.2901 2.06605 12.5619 1.94266 11.6442C1.82225 10.7486 1.82226 9.60146 1.82227 8.141V8.06473C1.82226 6.60428 1.82225 5.45716 1.94266 4.56154C2.06605 3.64378 2.32407 2.9156 2.89621 2.34347C3.46834 1.77134 4.19651 1.51332 5.11428 1.38992C6.00989 1.26952 7.15701 1.26952 8.61747 1.26953H8.69373Z" fill="#1B1B1B"/>
<path fill-rule="evenodd" clip-rule="evenodd" d="M5.32227 8.26953C5.59841 8.26953 5.82227 8.4934 5.82227 8.76953V11.4362C5.82227 11.7123 5.59841 11.9362 5.32227 11.9362C5.04613 11.9362 4.82227 11.7123 4.82227 11.4362V8.76953C4.82227 8.4934 5.04613 8.26953 5.32227 8.26953Z" fill="#1B1B1B"/>
<path fill-rule="evenodd" clip-rule="evenodd" d="M8.65625 4.26953C8.93238 4.26953 9.15625 4.49339 9.15625 4.76953V11.4362C9.15625 11.7123 8.93238 11.9362 8.65625 11.9362C8.38012 11.9362 8.15625 11.7123 8.15625 11.4362V4.76953C8.15625 4.49339 8.38012 4.26953 8.65625 4.26953Z" fill="#1B1B1B"/>
<path fill-rule="evenodd" clip-rule="evenodd" d="M11.9902 6.93359C12.2664 6.93359 12.4902 7.15746 12.4902 7.43359V11.4336C12.4902 11.7097 12.2664 11.9336 11.9902 11.9336C11.7141 11.9336 11.4902 11.7097 11.4902 11.4336V7.43359C11.4902 7.15746 11.7141 6.93359 11.9902 6.93359Z" fill="#1B1B1B"/>
</svg>
