<svg width="24" height="25" viewBox="0 0 24 25" fill="none" xmlns="http://www.w3.org/2000/svg">
<path fillRule="evenodd" clipRule="evenodd" d="M9 3.90234C9 4.45462 8.55228 4.90234 8 4.90234H7C6.44772 4.90234 6 4.45462 6 3.90234C6 3.35006 6.44772 2.90234 7 2.90234H8C8.55228 2.90234 9 3.35006 9 3.90234Z" fill="#E3FFF4" fill-opacity="0.6"/>
<path opacity="0.4" fillRule="evenodd" clipRule="evenodd" d="M12 7.90234C12 8.45462 11.5523 8.90234 11 8.90234H7C6.44772 8.90234 6 8.45462 6 7.90234C6 7.35006 6.44772 6.90234 7 6.90234H11C11.5523 6.90234 12 7.35006 12 7.90234Z" fill="#E3FFF4" fill-opacity="0.6"/>
<path d="M3 2.90234C3.55229 2.90234 4 3.35006 4 3.90234V14.9023C4 16.5805 4.00213 17.7385 4.11923 18.6095C4.18163 19.0737 4.26041 19.6065 4.6078 19.9518C5.11558 20.4565 5.65243 20.697 6.2928 20.7831C7.16378 20.9002 8.32182 20.9023 10 20.9023H21C21.5523 20.9023 22 21.35 22 21.9023C22 22.4546 21.5523 22.9023 21 22.9023H9.928C8.33933 22.9023 7.04616 22.9024 6.0263 22.7652C4.96232 22.6222 4.04735 22.3136 3.31802 21.5843C2.58869 20.8549 2.28011 19.94 2.13706 18.876C1.99995 17.8562 1.99997 16.563 2 14.9743V3.90234C2 3.35006 2.44772 2.90234 3 2.90234Z" fill="#E3FFF4" fill-opacity="0.6"/>
<path opacity="0.4" d="M6.18726 20.7674C6.3807 20.3588 6.56361 19.9453 6.7465 19.5319C7.09983 18.7331 7.45308 17.9345 7.88206 17.1719C8.28242 16.46 8.69797 15.873 9.13128 15.473C9.55588 15.0811 9.93769 14.9212 10.3058 14.9212C10.8784 14.9212 11.3159 15.3806 11.6952 15.7789C11.7412 15.8273 11.7865 15.8748 11.8309 15.9205C12.3831 16.487 13.2476 17.374 14.6132 17.374C15.7622 17.374 16.5941 16.8674 17.2097 16.1934C17.7401 15.6128 18.1403 14.8697 18.4738 14.2503C18.4988 14.2041 18.5233 14.1585 18.5475 14.1137C19.3296 12.6671 19.8601 11.9023 20.9995 11.9023C21.5518 11.9023 21.9995 11.4546 21.9995 10.9023C21.9995 10.3501 21.5518 9.90234 20.9995 9.90234C18.5501 9.90234 17.5056 11.8351 16.8086 13.1247C16.7608 13.2132 16.7134 13.3026 16.6658 13.3923C16.396 13.9009 16.1205 14.4204 15.733 14.8447C15.4115 15.1966 15.0859 15.374 14.6132 15.374C14.1538 15.374 13.8415 15.1147 13.1883 14.4478C13.1695 14.4286 13.1503 14.409 13.1308 14.389C12.5705 13.8152 11.6975 12.9212 10.3058 12.9212C9.28219 12.9212 8.43871 13.3905 7.77477 14.0034C7.11953 14.6081 6.58328 15.4013 6.13887 16.1914C5.67762 17.0115 5.29664 17.8693 4.91553 18.7275C4.7625 19.072 4.60945 19.4167 4.45117 19.7589C4.49622 19.8279 4.54789 19.8926 4.60747 19.9518C5.0872 20.4286 5.59287 20.6696 6.18726 20.7674Z" fill="#E3FFF4" fill-opacity="0.6"/>
</svg>
