<svg width="24" height="25" viewBox="0 0 24 25" fill="none" xmlns="http://www.w3.org/2000/svg">
<path fill-rule="evenodd" clip-rule="evenodd" d="M16.4571 16.0523C15.1829 16.0523 14.15 17.0852 14.15 18.3594C14.15 19.6336 15.1829 20.6666 16.4571 20.6666C17.7313 20.6666 18.7643 19.6336 18.7643 18.3594C18.7643 17.0852 17.7313 16.0523 16.4571 16.0523ZM12.25 18.3594C12.25 16.0359 14.1336 14.1523 16.4571 14.1523C18.7807 14.1523 20.6643 16.0359 20.6643 18.3594C20.6643 19.1771 20.431 19.9404 20.0274 20.5862L21.4718 22.0305C21.8427 22.4015 21.8427 23.0031 21.4718 23.3741C21.1008 23.745 20.4992 23.745 20.1282 23.3741L18.6839 21.9297C18.0381 22.3333 17.2748 22.5666 16.4571 22.5666C14.1336 22.5666 12.25 20.683 12.25 18.3594Z" fill="#E3FFF4" fill-opacity="0.6"/>
<path opacity="0.4" d="M15.489 2.30548C14.3498 2.15231 12.8942 2.15232 11.0564 2.15234C9.21867 2.15232 7.65019 2.15231 6.51098 2.30548C5.33856 2.4631 4.38961 2.79522 3.64124 3.54358C2.89288 4.29195 2.56076 5.2409 2.40314 6.41332C2.24997 7.55253 2.24998 9.00816 2.25 10.8459V14.9587C2.24998 16.7965 2.24997 18.2521 2.40314 19.3913C2.56076 20.5637 2.89288 21.5127 3.64124 22.2611C4.38961 23.0094 5.33856 23.3415 6.51098 23.4992C7.65019 23.6523 9.21865 23.6523 11.0564 23.6523C12.2685 23.6523 13.3144 23.6523 14.2129 23.6084C12.1766 22.7366 10.75 20.7146 10.75 18.3594C10.75 15.2075 13.3052 12.6523 16.4571 12.6523C17.6836 12.6523 18.8196 13.0391 19.75 13.6975V10.8459C19.75 9.00819 19.75 7.55252 19.5969 6.41332C19.4392 5.2409 19.1071 4.29195 18.3588 3.54358C17.6104 2.79522 16.6614 2.4631 15.489 2.30548Z" fill="#E3FFF4" fill-opacity="0.6"/>
<path fill-rule="evenodd" clip-rule="evenodd" d="M6.25 7.90234C6.25 7.48813 6.58579 7.15234 7 7.15234H15C15.4142 7.15234 15.75 7.48813 15.75 7.90234C15.75 8.31655 15.4142 8.65234 15 8.65234H7C6.58579 8.65234 6.25 8.31655 6.25 7.90234ZM6.25 11.9023C6.25 11.4881 6.58579 11.1523 7 11.1523H11C11.4142 11.1523 11.75 11.4881 11.75 11.9023C11.75 12.3165 11.4142 12.6523 11 12.6523H7C6.58579 12.6523 6.25 12.3165 6.25 11.9023Z" fill="#E3FFF4" fill-opacity="0.6"/>
</svg>
