<svg width="36" height="36" viewBox="0 0 36 36" fill="none" xmlns="http://www.w3.org/2000/svg">
<g clip-path="url(#clip0_9604_31606)">
<rect width="36" height="36" rx="18" fill="white"/>
<circle cx="18" cy="18" r="18" fill="#DEF4FF"/>
<path d="M25.6791 13.9048C25.6791 13.9048 26.9535 13.75 27.0687 14.9632C27.1839 16.1764 26.7771 17.1088 26.0211 17.512C26.0211 17.512 25.8591 17.5912 25.4883 17.656L25.6791 13.9084V13.9048Z" fill="#FFB69F"/>
<path d="M11.2605 13.9048C11.2605 13.9048 9.98607 13.75 9.87087 14.9632C9.75567 16.1764 10.1625 17.1088 10.9185 17.512C10.9185 17.512 11.0805 17.5912 11.4513 17.656L11.2605 13.9084V13.9048Z" fill="#FFB69F"/>
<path d="M1.08008 37.7009C1.08008 37.7009 1.08008 32.6105 4.06088 31.6061C7.04168 30.6017 13.7773 26.7461 13.7773 26.7461H18.3349V37.7009H1.08008Z" fill="#323232"/>
<path d="M35.3095 37.7009C35.3095 37.7009 35.3095 32.6105 32.3287 31.6061C29.3479 30.6017 22.6843 26.7461 22.6843 26.7461H18.0547V37.7009H35.3095Z" fill="#323232"/>
<path d="M14.9114 23.2266L14.4902 26.7474H21.899L21.4382 23.2266H14.9114Z" fill="#FFB69F"/>
<path d="M18.1946 28.8551C20.2405 28.8551 21.899 28.1347 21.899 27.2459C21.899 26.3572 20.2405 25.6367 18.1946 25.6367C16.1488 25.6367 14.4902 26.3572 14.4902 27.2459C14.4902 28.1347 16.1488 28.8551 18.1946 28.8551Z" fill="#FFB69F"/>
<path d="M14.6309 25.5793C14.6309 25.5793 19.6889 26.0437 21.4709 23.8261V21.2773L15.0593 21.8929L14.6309 25.5793Z" fill="#FF9988"/>
<path d="M18.4969 24.2495C22.5747 24.2495 25.8805 20.0234 25.8805 14.8103C25.8805 9.59717 22.5747 5.37109 18.4969 5.37109C14.419 5.37109 11.1133 9.59717 11.1133 14.8103C11.1133 20.0234 14.419 24.2495 18.4969 24.2495Z" fill="#FFB69F"/>
<path d="M24.9436 7.27189C24.9436 7.27189 24.9508 7.25389 24.9436 7.24309C24.6988 6.65629 24.4 3.70789 19.5976 3.26149C18.3664 3.14629 16.606 3.35149 15.49 3.88429C13.96 4.61149 12.25 5.02909 10.738 5.02549C10.6732 5.02549 10.648 5.11189 10.7056 5.14429L11.8864 6.08389C11.9332 6.10909 11.9296 6.17749 11.8792 6.19909L10.396 6.64909C10.342 6.67069 10.342 6.74989 10.396 6.76789C10.6372 6.84709 11.2492 7.11709 11.8036 7.30789C10.8964 8.91349 11.1052 11.2211 11.1052 13.9931C11.1052 13.9931 11.0764 16.8659 12.0448 20.1599C13.1032 23.7599 15.4252 25.3043 18.6976 25.3151C22.1824 25.3295 24.0004 22.3415 24.4864 21.2795C25.228 19.6523 25.8652 16.6283 25.8688 14.8103C25.8688 14.8103 27.208 10.2167 24.9364 7.27189H24.9436ZM21.9844 20.6099C21.2644 20.9771 21.628 19.0655 20.1952 18.9863C19.7164 18.9575 18.0892 18.8459 16.7212 18.9611C15.6808 19.0511 15.4288 19.9871 15.382 20.4623C15.3604 20.6675 15.2884 20.7611 15.094 20.6891C14.662 20.5307 13.744 20.0195 13.312 19.5443C12.8656 19.0547 12.0592 17.7335 11.9836 14.9435L12.0628 10.9583C12.0628 10.9583 13.6648 9.61549 13.942 8.66149C13.942 8.66149 21.0988 9.80629 23.1724 8.66149C23.1724 8.66149 24.04 10.3211 24.9868 10.8215C25.2784 10.9727 25.228 12.8663 25.2028 14.1731C25.1776 14.3495 25.156 14.5511 25.1452 14.7887C24.9544 18.5219 22.6972 20.2463 21.9808 20.6135L21.9844 20.6099Z" fill="#141414"/>
<path d="M21.9864 15.5667C22.227 15.5667 22.422 15.2282 22.422 14.8107C22.422 14.3932 22.227 14.0547 21.9864 14.0547C21.7458 14.0547 21.5508 14.3932 21.5508 14.8107C21.5508 15.2282 21.7458 15.5667 21.9864 15.5667Z" fill="#441D39"/>
<path d="M15.4512 15.4104C15.6918 15.4104 15.8868 15.072 15.8868 14.6544C15.8868 14.2369 15.6918 13.8984 15.4512 13.8984C15.2106 13.8984 15.0156 14.2369 15.0156 14.6544C15.0156 15.072 15.2106 15.4104 15.4512 15.4104Z" fill="#441D39"/>
<path d="M19.0048 18.2077H18.3172C18.0112 18.2077 17.7412 18.0889 17.5972 17.8909C17.4928 17.7505 17.464 17.5849 17.5144 17.4229C17.6692 16.9261 17.8708 15.0721 17.8708 15.0541C17.8816 14.9533 17.968 14.8849 18.0688 14.8957C18.166 14.9065 18.238 14.9965 18.2272 15.0937C18.22 15.1729 18.0184 16.9981 17.8564 17.5309C17.842 17.5849 17.8492 17.6316 17.8852 17.682C17.9608 17.7829 18.13 17.8513 18.3172 17.8513H19.0048C19.1056 17.8513 19.1848 17.9305 19.1848 18.0313C19.1848 18.1321 19.1056 18.2113 19.0048 18.2113V18.2077Z" fill="#FF9988"/>
<path d="M22.3658 16.7518C23.0597 16.7518 23.6222 16.6228 23.6222 16.4638C23.6222 16.3047 23.0597 16.1758 22.3658 16.1758C21.6719 16.1758 21.1094 16.3047 21.1094 16.4638C21.1094 16.6228 21.6719 16.7518 22.3658 16.7518Z" fill="#FF9988"/>
<path d="M15.0337 16.7518C15.7276 16.7518 16.2901 16.6228 16.2901 16.4638C16.2901 16.3047 15.7276 16.1758 15.0337 16.1758C14.3399 16.1758 13.7773 16.3047 13.7773 16.4638C13.7773 16.6228 14.3399 16.7518 15.0337 16.7518Z" fill="#FF9988"/>
<path d="M23.5112 13.0527C22.3124 12.6999 21.3944 12.9231 20.8364 12.9951C20.5988 13.0239 20.5484 12.7323 20.5484 12.7323C20.5016 12.5343 20.768 12.3975 20.9552 12.3615C21.5852 12.2463 22.3916 12.1887 23.5868 12.6027C23.8172 12.6819 23.8316 12.8763 23.8316 12.8763C23.8064 13.0923 23.6696 13.0959 23.5112 13.0491V13.0527Z" fill="#B54D4D"/>
<path d="M13.8592 13.0747C15.0508 12.7003 15.9724 12.9091 16.5304 12.9703C16.768 12.9955 16.8148 12.7039 16.8148 12.7039C16.858 12.5059 16.588 12.3727 16.4008 12.3403C15.7672 12.2359 14.9608 12.1891 13.7764 12.6247C13.546 12.7075 13.5352 12.9019 13.5352 12.9019C13.564 13.1179 13.7008 13.1179 13.8556 13.0711L13.8592 13.0747Z" fill="#B54D4D"/>
<path d="M18.4576 21.1317C17.608 21.1317 16.9312 20.9517 16.888 20.9409C16.7908 20.9157 16.7368 20.8149 16.762 20.7213C16.7872 20.6277 16.888 20.5701 16.9816 20.5953C16.9996 20.5989 18.6556 21.0381 19.9912 20.5161C20.0848 20.4801 20.1892 20.5269 20.2252 20.6169C20.2612 20.7105 20.2144 20.8149 20.1244 20.8509C19.5736 21.0669 18.9832 21.1353 18.4612 21.1353L18.4576 21.1317Z" fill="#9B3D3D"/>
<path d="M14.6483 25.5977L17.5139 27.6425L16.1279 30.9617L12.4199 27.5093L14.6483 25.5977Z" fill="#FFA242"/>
<path d="M17.514 27.6406L17.6868 28.8682L17.0352 28.7854L17.514 27.6406Z" fill="#F49037"/>
<path d="M19.1485 27.5781L18.8965 28.8705L19.6021 28.7517L19.1485 27.5781Z" fill="#F49037"/>
<path d="M19.1484 27.5783L21.7728 25.6523L24.2316 27.6251L20.574 31.2791L19.1484 27.5783Z" fill="#FFA242"/>
<path d="M18.8935 29.3438H17.6875V37.6994H18.8935V29.3438Z" fill="white"/>
<path d="M17.6618 28.6989L17.687 29.4333C17.687 29.4333 18.2486 29.6781 18.893 29.4333L18.911 28.7673L17.6582 28.6953L17.6618 28.6989Z" fill="#FFB69F"/>
<path d="M18.8935 31.1055H17.6875V31.4655H18.8935V31.1055Z" fill="#D6D6D6"/>
<path d="M18.8935 32.7305H17.6875V33.0905H18.8935V32.7305Z" fill="#D6D6D6"/>
<path d="M18.8935 34.3555H17.6875V34.7155H18.8935V34.3555Z" fill="#D6D6D6"/>
<path d="M18.8935 35.9766H17.6875V36.3366H18.8935V35.9766Z" fill="#D6D6D6"/>
<path d="M19.9184 33.0789C20.0933 33.0789 20.2352 32.9371 20.2352 32.7621C20.2352 32.5871 20.0933 32.4453 19.9184 32.4453C19.7434 32.4453 19.6016 32.5871 19.6016 32.7621C19.6016 32.9371 19.7434 33.0789 19.9184 33.0789Z" fill="#FFA242"/>
<path d="M19.9184 36.6141C20.0933 36.6141 20.2352 36.4722 20.2352 36.2973C20.2352 36.1223 20.0933 35.9805 19.9184 35.9805C19.7434 35.9805 19.6016 36.1223 19.6016 36.2973C19.6016 36.4722 19.7434 36.6141 19.9184 36.6141Z" fill="#FFA242"/>
</g>
<defs>
<clipPath id="clip0_9604_31606">
<rect width="36" height="36" rx="18" fill="white"/>
</clipPath>
</defs>
</svg>
