<svg width="68" height="69" viewBox="0 0 68 69" fill="none" xmlns="http://www.w3.org/2000/svg">
<rect y="0.886719" width="67.3281" height="67.3281" rx="33.6641" fill="white"/>
<g opacity="0.4">
<path d="M39.1841 20.8571C37.6325 20.6601 35.6469 20.6601 33.1257 20.6602H31.618C29.0969 20.6601 27.1113 20.6601 25.5597 20.8571C23.9714 21.0588 22.6917 21.4818 21.6784 22.4388C20.6572 23.4033 20.1987 24.6337 19.9816 26.1594C19.7714 27.6353 19.7715 29.5197 19.7715 31.8915V37.2142C19.7715 39.5861 19.7714 41.4704 19.9816 42.9464C20.1987 44.472 20.6572 45.7025 21.6784 46.667C22.6917 47.6239 23.9714 48.0469 25.5597 48.2487C27.1113 48.4456 29.0969 48.4456 31.618 48.4456H32.4554C32.9663 48.4456 33.2218 48.4456 33.3373 48.3181C33.4527 48.1906 33.422 47.8829 33.3609 47.2676C33.3338 46.9947 33.3391 46.7585 33.3502 46.5846C33.3694 46.2829 33.4412 45.8872 33.4826 45.6671C33.5558 45.279 33.8944 43.5046 33.9551 43.2663C34.1629 42.4524 34.5616 41.3452 35.5116 40.3952L39.9205 35.986C40.2251 35.6796 40.6919 35.21 41.259 34.8827C42.0959 34.3995 43.0405 34.1846 43.9733 34.2377C44.4773 34.2665 44.7293 34.2808 44.8508 34.1661C44.9723 34.0513 44.9723 33.8296 44.9723 33.386V31.8916C44.9723 29.5198 44.9723 27.6353 44.7622 26.1594C44.545 24.6337 44.0866 23.4033 43.0654 22.4388C42.0521 21.4818 40.7723 21.0588 39.1841 20.8571Z" fill="#106840"/>
<path d="M39.1841 20.8571C37.6325 20.6601 35.6469 20.6601 33.1257 20.6602H31.618C29.0969 20.6601 27.1113 20.6601 25.5597 20.8571C23.9714 21.0588 22.6917 21.4818 21.6784 22.4388C20.6572 23.4033 20.1987 24.6337 19.9816 26.1594C19.7714 27.6353 19.7715 29.5197 19.7715 31.8915V37.2142C19.7715 39.5861 19.7714 41.4704 19.9816 42.9464C20.1987 44.472 20.6572 45.7025 21.6784 46.667C22.6917 47.6239 23.9714 48.0469 25.5597 48.2487C27.1113 48.4456 29.0969 48.4456 31.618 48.4456H32.4554C32.9663 48.4456 33.2218 48.4456 33.3373 48.3181C33.4527 48.1906 33.422 47.8829 33.3609 47.2676C33.3338 46.9947 33.3391 46.7585 33.3502 46.5846C33.3694 46.2829 33.4412 45.8872 33.4826 45.6671C33.5558 45.279 33.8944 43.5046 33.9551 43.2663C34.1629 42.4524 34.5616 41.3452 35.5116 40.3952L39.9205 35.986C40.2251 35.6796 40.6919 35.21 41.259 34.8827C42.0959 34.3995 43.0405 34.1846 43.9733 34.2377C44.4773 34.2665 44.7293 34.2808 44.8508 34.1661C44.9723 34.0513 44.9723 33.8296 44.9723 33.386V31.8916C44.9723 29.5198 44.9723 27.6353 44.7622 26.1594C44.545 24.6337 44.0866 23.4033 43.0654 22.4388C42.0521 21.4818 40.7723 21.0588 39.1841 20.8571Z" fill="black" fill-opacity="0.2"/>
<path d="M39.1841 20.8571C37.6325 20.6601 35.6469 20.6601 33.1257 20.6602H31.618C29.0969 20.6601 27.1113 20.6601 25.5597 20.8571C23.9714 21.0588 22.6917 21.4818 21.6784 22.4388C20.6572 23.4033 20.1987 24.6337 19.9816 26.1594C19.7714 27.6353 19.7715 29.5197 19.7715 31.8915V37.2142C19.7715 39.5861 19.7714 41.4704 19.9816 42.9464C20.1987 44.472 20.6572 45.7025 21.6784 46.667C22.6917 47.6239 23.9714 48.0469 25.5597 48.2487C27.1113 48.4456 29.0969 48.4456 31.618 48.4456H32.4554C32.9663 48.4456 33.2218 48.4456 33.3373 48.3181C33.4527 48.1906 33.422 47.8829 33.3609 47.2676C33.3338 46.9947 33.3391 46.7585 33.3502 46.5846C33.3694 46.2829 33.4412 45.8872 33.4826 45.6671C33.5558 45.279 33.8944 43.5046 33.9551 43.2663C34.1629 42.4524 34.5616 41.3452 35.5116 40.3952L39.9205 35.986C40.2251 35.6796 40.6919 35.21 41.259 34.8827C42.0959 34.3995 43.0405 34.1846 43.9733 34.2377C44.4773 34.2665 44.7293 34.2808 44.8508 34.1661C44.9723 34.0513 44.9723 33.8296 44.9723 33.386V31.8916C44.9723 29.5198 44.9723 27.6353 44.7622 26.1594C44.545 24.6337 44.0866 23.4033 43.0654 22.4388C42.0521 21.4818 40.7723 21.0588 39.1841 20.8571Z" fill="black" fill-opacity="0.2"/>
<path d="M39.1841 20.8571C37.6325 20.6601 35.6469 20.6601 33.1257 20.6602H31.618C29.0969 20.6601 27.1113 20.6601 25.5597 20.8571C23.9714 21.0588 22.6917 21.4818 21.6784 22.4388C20.6572 23.4033 20.1987 24.6337 19.9816 26.1594C19.7714 27.6353 19.7715 29.5197 19.7715 31.8915V37.2142C19.7715 39.5861 19.7714 41.4704 19.9816 42.9464C20.1987 44.472 20.6572 45.7025 21.6784 46.667C22.6917 47.6239 23.9714 48.0469 25.5597 48.2487C27.1113 48.4456 29.0969 48.4456 31.618 48.4456H32.4554C32.9663 48.4456 33.2218 48.4456 33.3373 48.3181C33.4527 48.1906 33.422 47.8829 33.3609 47.2676C33.3338 46.9947 33.3391 46.7585 33.3502 46.5846C33.3694 46.2829 33.4412 45.8872 33.4826 45.6671C33.5558 45.279 33.8944 43.5046 33.9551 43.2663C34.1629 42.4524 34.5616 41.3452 35.5116 40.3952L39.9205 35.986C40.2251 35.6796 40.6919 35.21 41.259 34.8827C42.0959 34.3995 43.0405 34.1846 43.9733 34.2377C44.4773 34.2665 44.7293 34.2808 44.8508 34.1661C44.9723 34.0513 44.9723 33.8296 44.9723 33.386V31.8916C44.9723 29.5198 44.9723 27.6353 44.7622 26.1594C44.545 24.6337 44.0866 23.4033 43.0654 22.4388C42.0521 21.4818 40.7723 21.0588 39.1841 20.8571Z" fill="black" fill-opacity="0.2"/>
<path d="M39.1841 20.8571C37.6325 20.6601 35.6469 20.6601 33.1257 20.6602H31.618C29.0969 20.6601 27.1113 20.6601 25.5597 20.8571C23.9714 21.0588 22.6917 21.4818 21.6784 22.4388C20.6572 23.4033 20.1987 24.6337 19.9816 26.1594C19.7714 27.6353 19.7715 29.5197 19.7715 31.8915V37.2142C19.7715 39.5861 19.7714 41.4704 19.9816 42.9464C20.1987 44.472 20.6572 45.7025 21.6784 46.667C22.6917 47.6239 23.9714 48.0469 25.5597 48.2487C27.1113 48.4456 29.0969 48.4456 31.618 48.4456H32.4554C32.9663 48.4456 33.2218 48.4456 33.3373 48.3181C33.4527 48.1906 33.422 47.8829 33.3609 47.2676C33.3338 46.9947 33.3391 46.7585 33.3502 46.5846C33.3694 46.2829 33.4412 45.8872 33.4826 45.6671C33.5558 45.279 33.8944 43.5046 33.9551 43.2663C34.1629 42.4524 34.5616 41.3452 35.5116 40.3952L39.9205 35.986C40.2251 35.6796 40.6919 35.21 41.259 34.8827C42.0959 34.3995 43.0405 34.1846 43.9733 34.2377C44.4773 34.2665 44.7293 34.2808 44.8508 34.1661C44.9723 34.0513 44.9723 33.8296 44.9723 33.386V31.8916C44.9723 29.5198 44.9723 27.6353 44.7622 26.1594C44.545 24.6337 44.0866 23.4033 43.0654 22.4388C42.0521 21.4818 40.7723 21.0588 39.1841 20.8571Z" fill="black" fill-opacity="0.2"/>
</g>
<path fillRule="evenodd" clipRule="evenodd" d="M25.9102 28.0892C25.9102 27.3755 26.4888 26.7969 27.2025 26.7969H37.5413C38.255 26.7969 38.8336 27.3755 38.8336 28.0892C38.8336 28.803 38.255 29.3816 37.5413 29.3816H27.2025C26.4888 29.3816 25.9102 28.803 25.9102 28.0892Z" fill="#106840"/>
<path fillRule="evenodd" clipRule="evenodd" d="M25.9102 28.0892C25.9102 27.3755 26.4888 26.7969 27.2025 26.7969H37.5413C38.255 26.7969 38.8336 27.3755 38.8336 28.0892C38.8336 28.803 38.255 29.3816 37.5413 29.3816H27.2025C26.4888 29.3816 25.9102 28.803 25.9102 28.0892Z" fill="black" fill-opacity="0.2"/>
<path fillRule="evenodd" clipRule="evenodd" d="M25.9102 28.0892C25.9102 27.3755 26.4888 26.7969 27.2025 26.7969H37.5413C38.255 26.7969 38.8336 27.3755 38.8336 28.0892C38.8336 28.803 38.255 29.3816 37.5413 29.3816H27.2025C26.4888 29.3816 25.9102 28.803 25.9102 28.0892Z" fill="black" fill-opacity="0.2"/>
<path fillRule="evenodd" clipRule="evenodd" d="M25.9102 28.0892C25.9102 27.3755 26.4888 26.7969 27.2025 26.7969H37.5413C38.255 26.7969 38.8336 27.3755 38.8336 28.0892C38.8336 28.803 38.255 29.3816 37.5413 29.3816H27.2025C26.4888 29.3816 25.9102 28.803 25.9102 28.0892Z" fill="black" fill-opacity="0.2"/>
<path fillRule="evenodd" clipRule="evenodd" d="M25.9102 28.0892C25.9102 27.3755 26.4888 26.7969 27.2025 26.7969H37.5413C38.255 26.7969 38.8336 27.3755 38.8336 28.0892C38.8336 28.803 38.255 29.3816 37.5413 29.3816H27.2025C26.4888 29.3816 25.9102 28.803 25.9102 28.0892Z" fill="black" fill-opacity="0.2"/>
<path fillRule="evenodd" clipRule="evenodd" d="M25.9102 34.5502C25.9102 33.8364 26.4888 33.2578 27.2025 33.2578H37.5413C38.255 33.2578 38.8336 33.8364 38.8336 34.5502C38.8336 35.2639 38.255 35.8425 37.5413 35.8425H27.2025C26.4888 35.8425 25.9102 35.2639 25.9102 34.5502Z" fill="#106840"/>
<path fillRule="evenodd" clipRule="evenodd" d="M25.9102 34.5502C25.9102 33.8364 26.4888 33.2578 27.2025 33.2578H37.5413C38.255 33.2578 38.8336 33.8364 38.8336 34.5502C38.8336 35.2639 38.255 35.8425 37.5413 35.8425H27.2025C26.4888 35.8425 25.9102 35.2639 25.9102 34.5502Z" fill="black" fill-opacity="0.2"/>
<path fillRule="evenodd" clipRule="evenodd" d="M25.9102 34.5502C25.9102 33.8364 26.4888 33.2578 27.2025 33.2578H37.5413C38.255 33.2578 38.8336 33.8364 38.8336 34.5502C38.8336 35.2639 38.255 35.8425 37.5413 35.8425H27.2025C26.4888 35.8425 25.9102 35.2639 25.9102 34.5502Z" fill="black" fill-opacity="0.2"/>
<path fillRule="evenodd" clipRule="evenodd" d="M25.9102 34.5502C25.9102 33.8364 26.4888 33.2578 27.2025 33.2578H37.5413C38.255 33.2578 38.8336 33.8364 38.8336 34.5502C38.8336 35.2639 38.255 35.8425 37.5413 35.8425H27.2025C26.4888 35.8425 25.9102 35.2639 25.9102 34.5502Z" fill="black" fill-opacity="0.2"/>
<path fillRule="evenodd" clipRule="evenodd" d="M25.9102 34.5502C25.9102 33.8364 26.4888 33.2578 27.2025 33.2578H37.5413C38.255 33.2578 38.8336 33.8364 38.8336 34.5502C38.8336 35.2639 38.255 35.8425 37.5413 35.8425H27.2025C26.4888 35.8425 25.9102 35.2639 25.9102 34.5502Z" fill="black" fill-opacity="0.2"/>
<path d="M42.2281 36.5611C43.136 36.0369 44.2546 36.0369 45.1626 36.5611C45.5007 36.7564 45.8808 37.1371 46.2337 37.4907C46.5875 37.8438 46.9682 38.2237 47.1633 38.5618C47.6875 39.4698 47.6875 40.5884 47.1633 41.4964C46.9682 41.8345 46.6647 42.1373 46.311 42.4903L41.9588 46.8424C41.3575 47.4437 40.6313 47.7247 39.9789 47.8912C39.6532 47.9743 38.1355 48.2496 38.1355 48.2496C38.1355 48.2496 37.3445 48.419 37.0171 48.4398C36.6565 48.4628 36.1339 48.4274 35.7155 48.009C35.297 47.5906 35.2617 47.0679 35.2846 46.7073C35.3054 46.3801 35.4748 45.5889 35.4748 45.5889C35.4748 45.5889 35.7501 44.0712 35.8332 43.7455C35.9998 43.0931 36.2809 42.367 36.8822 41.7656L41.2343 37.4134C41.5872 37.0597 41.89 36.7564 42.2281 36.5611Z" fill="black"/>
</svg>
