<svg width="17" height="17" viewBox="0 0 17 17" fill="none" xmlns="http://www.w3.org/2000/svg">
<path opacity="0.4" d="M7.22357 1.26953H10.0902C12.793 1.26953 14.1443 1.26953 14.984 2.11224C15.8236 2.95495 15.8236 4.31127 15.8236 7.02393V7.3836C15.8236 10.0962 15.8236 11.4525 14.984 12.2953C14.1443 13.1379 12.793 13.1379 10.0902 13.1379C9.68857 13.1469 9.36863 13.1776 9.05437 13.2495C8.33183 13.4164 7.6543 13.7551 6.98944 14.0874C6.86408 14.1501 6.73897 14.2126 6.61431 14.2737C5.49445 14.8217 4.93453 15.0957 4.58315 14.8392C4.24786 14.5885 4.23311 14.1158 4.3265 13.5929C4.36507 13.377 4.38437 13.269 4.33739 13.2011C4.29043 13.1333 4.18229 13.1134 3.966 13.0734C3.26181 12.9433 2.71715 12.6839 2.32986 12.2953C1.49023 11.4525 1.49023 10.0962 1.49023 7.3836V7.02393C1.49023 4.31127 1.49023 2.95495 2.32986 2.11224C3.16949 1.26953 4.52085 1.26953 7.22357 1.26953Z" fill="#1B1B1B"/>
<path fill-rule="evenodd" clip-rule="evenodd" d="M11.3236 9.60286C11.5997 9.60286 11.8236 9.379 11.8236 9.10286C11.8236 8.82673 11.5997 8.60286 11.3236 8.60286H5.99023C5.71409 8.60286 5.49023 8.82673 5.49023 9.10286C5.49023 9.379 5.71409 9.60286 5.99023 9.60286H11.3236ZM8.6569 6.26953C8.93303 6.26953 9.1569 6.04567 9.1569 5.76953C9.1569 5.49339 8.93303 5.26953 8.6569 5.26953H5.99023C5.71409 5.26953 5.49023 5.49339 5.49023 5.76953C5.49023 6.04567 5.71409 6.26953 5.99023 6.26953H8.6569Z" fill="#1B1B1B"/>
</svg>
