<svg width="24" height="25" viewBox="0 0 24 25" fill="none" xmlns="http://www.w3.org/2000/svg">
<path d="M19.0253 2.15234C19.4697 2.15233 19.8408 2.15233 20.1454 2.17311C20.4625 2.19475 20.762 2.24139 21.0524 2.36167C21.7262 2.64078 22.2616 3.17613 22.5407 3.84996C22.661 4.14035 22.7076 4.43988 22.7292 4.75698C22.75 5.06159 22.75 5.43262 22.75 5.87708V9.9276C22.75 10.3721 22.75 10.7431 22.7292 11.0477C22.7076 11.3648 22.661 11.6643 22.5407 11.9547C22.2616 12.6285 21.7262 13.1639 21.0524 13.443C20.762 13.5633 20.4625 13.6099 20.1454 13.6315C19.8408 13.6523 19.4697 13.6523 19.0253 13.6523H18.9747C18.5303 13.6523 18.1592 13.6523 17.8546 13.6315C17.5375 13.6099 17.238 13.5633 16.9476 13.443C16.2738 13.1639 15.7384 12.6285 15.4593 11.9547C15.339 11.6643 15.2924 11.3648 15.2708 11.0477C15.25 10.7431 15.25 10.3721 15.25 9.9276V5.87709C15.25 5.43263 15.25 5.06159 15.2708 4.75698C15.2924 4.43988 15.339 4.14035 15.4593 3.84996C15.7384 3.17613 16.2738 2.64078 16.9476 2.36167C17.238 2.24139 17.5375 2.19475 17.8546 2.17311C18.1592 2.15233 18.5303 2.15233 18.9747 2.15234H19.0253Z" fill="#515151"/>
<path opacity="0.4" d="M19.0253 16.1523C19.4697 16.1523 19.8408 16.1523 20.1454 16.1731C20.4625 16.1947 20.762 16.2413 21.0524 16.3616C21.7262 16.6407 22.2616 17.1761 22.5407 17.8499C22.661 18.1403 22.7076 18.4398 22.7292 18.7569C22.75 19.0615 22.75 19.4326 22.75 19.877V19.9276C22.75 20.372 22.75 20.7431 22.7292 21.0477C22.7076 21.3648 22.661 21.6643 22.5407 21.9547C22.2616 22.6285 21.7262 23.1639 21.0524 23.443C20.762 23.5633 20.4625 23.6099 20.1454 23.6315C19.8408 23.6523 19.4697 23.6523 19.0253 23.6523H18.9747C18.5303 23.6523 18.1592 23.6523 17.8546 23.6315C17.5375 23.6099 17.238 23.5633 16.9476 23.443C16.2738 23.1639 15.7384 22.6285 15.4593 21.9547C15.339 21.6643 15.2924 21.3648 15.2708 21.0477C15.25 20.7431 15.25 20.372 15.25 19.9276V19.877C15.25 19.4326 15.25 19.0615 15.2708 18.7569C15.2924 18.4398 15.339 18.1403 15.4593 17.8499C15.7384 17.1761 16.2738 16.6407 16.9476 16.3616C17.238 16.2413 17.5375 16.1947 17.8546 16.1731C18.1592 16.1523 18.5303 16.1523 18.9747 16.1523H19.0253Z" fill="#515151"/>
<path d="M8.05203 12.1523C8.9505 12.1523 9.69971 12.1522 10.2945 12.2322C10.9223 12.3166 11.4891 12.5023 11.9445 12.9578C12.4 13.4132 12.5857 13.98 12.6701 14.6078C12.7501 15.2026 12.75 15.9518 12.75 16.8503V18.9543C12.75 19.8528 12.7501 20.602 12.6701 21.1968C12.5857 21.8246 12.4 22.3914 11.9445 22.8468C11.4891 23.3023 10.9223 23.488 10.2945 23.5724C9.69971 23.6524 8.9505 23.6523 8.05203 23.6523H5.94801C5.04954 23.6523 4.3003 23.6524 3.70552 23.5724C3.07773 23.488 2.51093 23.3023 2.05546 22.8468C1.59999 22.3914 1.41432 21.8246 1.32991 21.1968C1.24995 20.602 1.24997 19.8528 1.25 18.9543V16.8503C1.24997 15.9518 1.24995 15.2026 1.32991 14.6078C1.41432 13.98 1.59999 13.4132 2.05546 12.9578C2.51093 12.5023 3.07773 12.3166 3.70552 12.2322C4.3003 12.1522 5.04951 12.1523 5.94797 12.1523H8.05203Z" fill="#515151"/>
<path opacity="0.4" d="M9.02526 2.15234C9.46972 2.15233 9.84076 2.15233 10.1454 2.17311C10.4625 2.19475 10.762 2.24139 11.0524 2.36167C11.7262 2.64078 12.2616 3.17613 12.5407 3.84996C12.661 4.14035 12.7076 4.43988 12.7292 4.75698C12.75 5.06159 12.75 5.43262 12.75 5.87708V5.9276C12.75 6.37206 12.75 6.74309 12.7292 7.04771C12.7076 7.36481 12.661 7.66433 12.5407 7.95472C12.2616 8.62855 11.7262 9.1639 11.0524 9.44301C10.762 9.56329 10.4625 9.60994 10.1454 9.63157C9.84075 9.65235 9.46972 9.65235 9.02526 9.65234H4.97474C4.53028 9.65235 4.15925 9.65235 3.85464 9.63157C3.53754 9.60994 3.23801 9.56329 2.94762 9.44301C2.27379 9.1639 1.73844 8.62855 1.45933 7.95472C1.33905 7.66433 1.29241 7.36481 1.27077 7.04771C1.24999 6.74309 1.24999 6.37206 1.25 5.9276V5.87709C1.24999 5.43263 1.24999 5.06159 1.27077 4.75698C1.29241 4.43988 1.33905 4.14035 1.45933 3.84996C1.73844 3.17613 2.27379 2.64078 2.94762 2.36167C3.23801 2.24139 3.53754 2.19475 3.85464 2.17311C4.15925 2.15233 4.53028 2.15233 4.97474 2.15234H9.02526Z" fill="#515151"/>
</svg>
