<svg width="68" height="69" viewBox="0 0 68 69" fill="none" xmlns="http://www.w3.org/2000/svg">
<rect x="0.328125" y="0.886719" width="67.3281" height="67.3281" rx="33.6641" fill="white"/>
<path d="M42.692 35.2665C43.5437 34.7599 44.5957 34.7438 45.4624 35.225C45.824 35.4258 46.1434 35.7529 46.5059 36.1242L46.6703 36.2921C47.0353 36.664 47.3541 36.989 47.549 37.3553C48.012 38.2255 47.997 39.2773 47.5088 40.1338C47.3034 40.4943 46.9752 40.8097 46.5998 41.1704L40.9262 46.635C40.1741 47.3605 39.6045 47.9099 38.8763 48.1943C38.146 48.4795 37.359 48.4584 36.3249 48.4304L35.9624 48.4209C35.812 48.4171 35.6123 48.4121 35.4388 48.3831C35.2218 48.347 34.9008 48.2531 34.6418 47.9592C34.3858 47.6686 34.3314 47.3419 34.3195 47.128C34.3097 46.953 34.3254 46.754 34.3376 46.5998L34.3668 46.2244C34.437 45.3163 34.4893 44.6388 34.7593 44.0175C35.0299 43.3945 35.4887 42.8982 36.1009 42.2357L41.6749 36.1964C42.0267 35.8142 42.3364 35.4779 42.692 35.2665Z" fill="#106840"/>
<path d="M42.692 35.2665C43.5437 34.7599 44.5957 34.7438 45.4624 35.225C45.824 35.4258 46.1434 35.7529 46.5059 36.1242L46.6703 36.2921C47.0353 36.664 47.3541 36.989 47.549 37.3553C48.012 38.2255 47.997 39.2773 47.5088 40.1338C47.3034 40.4943 46.9752 40.8097 46.5998 41.1704L40.9262 46.635C40.1741 47.3605 39.6045 47.9099 38.8763 48.1943C38.146 48.4795 37.359 48.4584 36.3249 48.4304L35.9624 48.4209C35.812 48.4171 35.6123 48.4121 35.4388 48.3831C35.2218 48.347 34.9008 48.2531 34.6418 47.9592C34.3858 47.6686 34.3314 47.3419 34.3195 47.128C34.3097 46.953 34.3254 46.754 34.3376 46.5998L34.3668 46.2244C34.437 45.3163 34.4893 44.6388 34.7593 44.0175C35.0299 43.3945 35.4887 42.8982 36.1009 42.2357L41.6749 36.1964C42.0267 35.8142 42.3364 35.4779 42.692 35.2665Z" fill="black" fillOpacity="0.2"/>
<path d="M42.692 35.2665C43.5437 34.7599 44.5957 34.7438 45.4624 35.225C45.824 35.4258 46.1434 35.7529 46.5059 36.1242L46.6703 36.2921C47.0353 36.664 47.3541 36.989 47.549 37.3553C48.012 38.2255 47.997 39.2773 47.5088 40.1338C47.3034 40.4943 46.9752 40.8097 46.5998 41.1704L40.9262 46.635C40.1741 47.3605 39.6045 47.9099 38.8763 48.1943C38.146 48.4795 37.359 48.4584 36.3249 48.4304L35.9624 48.4209C35.812 48.4171 35.6123 48.4121 35.4388 48.3831C35.2218 48.347 34.9008 48.2531 34.6418 47.9592C34.3858 47.6686 34.3314 47.3419 34.3195 47.128C34.3097 46.953 34.3254 46.754 34.3376 46.5998L34.3668 46.2244C34.437 45.3163 34.4893 44.6388 34.7593 44.0175C35.0299 43.3945 35.4887 42.8982 36.1009 42.2357L41.6749 36.1964C42.0267 35.8142 42.3364 35.4779 42.692 35.2665Z" fill="black" fillOpacity="0.2"/>
<path d="M42.692 35.2665C43.5437 34.7599 44.5957 34.7438 45.4624 35.225C45.824 35.4258 46.1434 35.7529 46.5059 36.1242L46.6703 36.2921C47.0353 36.664 47.3541 36.989 47.549 37.3553C48.012 38.2255 47.997 39.2773 47.5088 40.1338C47.3034 40.4943 46.9752 40.8097 46.5998 41.1704L40.9262 46.635C40.1741 47.3605 39.6045 47.9099 38.8763 48.1943C38.146 48.4795 37.359 48.4584 36.3249 48.4304L35.9624 48.4209C35.812 48.4171 35.6123 48.4121 35.4388 48.3831C35.2218 48.347 34.9008 48.2531 34.6418 47.9592C34.3858 47.6686 34.3314 47.3419 34.3195 47.128C34.3097 46.953 34.3254 46.754 34.3376 46.5998L34.3668 46.2244C34.437 45.3163 34.4893 44.6388 34.7593 44.0175C35.0299 43.3945 35.4887 42.8982 36.1009 42.2357L41.6749 36.1964C42.0267 35.8142 42.3364 35.4779 42.692 35.2665Z" fill="black" fillOpacity="0.2"/>
<path d="M42.692 35.2665C43.5437 34.7599 44.5957 34.7438 45.4624 35.225C45.824 35.4258 46.1434 35.7529 46.5059 36.1242L46.6703 36.2921C47.0353 36.664 47.3541 36.989 47.549 37.3553C48.012 38.2255 47.997 39.2773 47.5088 40.1338C47.3034 40.4943 46.9752 40.8097 46.5998 41.1704L40.9262 46.635C40.1741 47.3605 39.6045 47.9099 38.8763 48.1943C38.146 48.4795 37.359 48.4584 36.3249 48.4304L35.9624 48.4209C35.812 48.4171 35.6123 48.4121 35.4388 48.3831C35.2218 48.347 34.9008 48.2531 34.6418 47.9592C34.3858 47.6686 34.3314 47.3419 34.3195 47.128C34.3097 46.953 34.3254 46.754 34.3376 46.5998L34.3668 46.2244C34.437 45.3163 34.4893 44.6388 34.7593 44.0175C35.0299 43.3945 35.4887 42.8982 36.1009 42.2357L41.6749 36.1964C42.0267 35.8142 42.3364 35.4779 42.692 35.2665Z" fill="black" fillOpacity="0.2"/>
<g opacity="0.4">
<path d="M33.9938 20.6602C30.2466 20.6602 27.209 23.6978 27.209 27.445C27.209 31.1921 30.2466 34.2298 33.9938 34.2298C37.741 34.2298 40.7786 31.1921 40.7786 27.445C40.7786 23.6978 37.741 20.6602 33.9938 20.6602Z" fill="#106840"/>
<path d="M33.9938 20.6602C30.2466 20.6602 27.209 23.6978 27.209 27.445C27.209 31.1921 30.2466 34.2298 33.9938 34.2298C37.741 34.2298 40.7786 31.1921 40.7786 27.445C40.7786 23.6978 37.741 20.6602 33.9938 20.6602Z" fill="black" fillOpacity="0.2"/>
<path d="M33.9938 20.6602C30.2466 20.6602 27.209 23.6978 27.209 27.445C27.209 31.1921 30.2466 34.2298 33.9938 34.2298C37.741 34.2298 40.7786 31.1921 40.7786 27.445C40.7786 23.6978 37.741 20.6602 33.9938 20.6602Z" fill="black" fillOpacity="0.2"/>
<path d="M33.9938 20.6602C30.2466 20.6602 27.209 23.6978 27.209 27.445C27.209 31.1921 30.2466 34.2298 33.9938 34.2298C37.741 34.2298 40.7786 31.1921 40.7786 27.445C40.7786 23.6978 37.741 20.6602 33.9938 20.6602Z" fill="black" fillOpacity="0.2"/>
<path d="M33.9938 20.6602C30.2466 20.6602 27.209 23.6978 27.209 27.445C27.209 31.1921 30.2466 34.2298 33.9938 34.2298C37.741 34.2298 40.7786 31.1921 40.7786 27.445C40.7786 23.6978 37.741 20.6602 33.9938 20.6602Z" fill="black" fillOpacity="0.2"/>
<path d="M32.3858 47.2863L32.3829 47.2367L32.4428 45.9452C32.5036 45.1453 32.5776 44.1724 32.9802 43.2458C33.3848 42.3145 34.0474 41.5993 34.5884 41.0156L37.348 38.0257C37.7001 37.6442 37.8762 37.4535 37.8204 37.2468C37.7647 37.0402 37.5257 36.9668 37.048 36.8197C36.3023 36.5904 35.5416 36.4217 34.7741 36.3134C33.3993 36.1195 32.0012 36.1195 30.6263 36.3134C28.7337 36.5804 26.883 37.215 25.1967 38.2192C25.0464 38.3086 24.8608 38.4133 24.6507 38.5319C23.7295 39.0516 22.3367 39.8373 21.3828 40.771C20.7861 41.3551 20.2192 42.1247 20.1162 43.0676C20.0066 44.0702 20.444 45.0111 21.3215 45.8471C22.8354 47.2894 24.6522 48.4453 27.0021 48.4453H31.472C31.9699 48.4453 32.2189 48.4453 32.3339 48.3221C32.4488 48.1989 32.4278 47.8947 32.3858 47.2863Z" fill="#106840"/>
<path d="M32.3858 47.2863L32.3829 47.2367L32.4428 45.9452C32.5036 45.1453 32.5776 44.1724 32.9802 43.2458C33.3848 42.3145 34.0474 41.5993 34.5884 41.0156L37.348 38.0257C37.7001 37.6442 37.8762 37.4535 37.8204 37.2468C37.7647 37.0402 37.5257 36.9668 37.048 36.8197C36.3023 36.5904 35.5416 36.4217 34.7741 36.3134C33.3993 36.1195 32.0012 36.1195 30.6263 36.3134C28.7337 36.5804 26.883 37.215 25.1967 38.2192C25.0464 38.3086 24.8608 38.4133 24.6507 38.5319C23.7295 39.0516 22.3367 39.8373 21.3828 40.771C20.7861 41.3551 20.2192 42.1247 20.1162 43.0676C20.0066 44.0702 20.444 45.0111 21.3215 45.8471C22.8354 47.2894 24.6522 48.4453 27.0021 48.4453H31.472C31.9699 48.4453 32.2189 48.4453 32.3339 48.3221C32.4488 48.1989 32.4278 47.8947 32.3858 47.2863Z" fill="black" fillOpacity="0.2"/>
<path d="M32.3858 47.2863L32.3829 47.2367L32.4428 45.9452C32.5036 45.1453 32.5776 44.1724 32.9802 43.2458C33.3848 42.3145 34.0474 41.5993 34.5884 41.0156L37.348 38.0257C37.7001 37.6442 37.8762 37.4535 37.8204 37.2468C37.7647 37.0402 37.5257 36.9668 37.048 36.8197C36.3023 36.5904 35.5416 36.4217 34.7741 36.3134C33.3993 36.1195 32.0012 36.1195 30.6263 36.3134C28.7337 36.5804 26.883 37.215 25.1967 38.2192C25.0464 38.3086 24.8608 38.4133 24.6507 38.5319C23.7295 39.0516 22.3367 39.8373 21.3828 40.771C20.7861 41.3551 20.2192 42.1247 20.1162 43.0676C20.0066 44.0702 20.444 45.0111 21.3215 45.8471C22.8354 47.2894 24.6522 48.4453 27.0021 48.4453H31.472C31.9699 48.4453 32.2189 48.4453 32.3339 48.3221C32.4488 48.1989 32.4278 47.8947 32.3858 47.2863Z" fill="black" fillOpacity="0.2"/>
<path d="M32.3858 47.2863L32.3829 47.2367L32.4428 45.9452C32.5036 45.1453 32.5776 44.1724 32.9802 43.2458C33.3848 42.3145 34.0474 41.5993 34.5884 41.0156L37.348 38.0257C37.7001 37.6442 37.8762 37.4535 37.8204 37.2468C37.7647 37.0402 37.5257 36.9668 37.048 36.8197C36.3023 36.5904 35.5416 36.4217 34.7741 36.3134C33.3993 36.1195 32.0012 36.1195 30.6263 36.3134C28.7337 36.5804 26.883 37.215 25.1967 38.2192C25.0464 38.3086 24.8608 38.4133 24.6507 38.5319C23.7295 39.0516 22.3367 39.8373 21.3828 40.771C20.7861 41.3551 20.2192 42.1247 20.1162 43.0676C20.0066 44.0702 20.444 45.0111 21.3215 45.8471C22.8354 47.2894 24.6522 48.4453 27.0021 48.4453H31.472C31.9699 48.4453 32.2189 48.4453 32.3339 48.3221C32.4488 48.1989 32.4278 47.8947 32.3858 47.2863Z" fill="black" fillOpacity="0.2"/>
<path d="M32.3858 47.2863L32.3829 47.2367L32.4428 45.9452C32.5036 45.1453 32.5776 44.1724 32.9802 43.2458C33.3848 42.3145 34.0474 41.5993 34.5884 41.0156L37.348 38.0257C37.7001 37.6442 37.8762 37.4535 37.8204 37.2468C37.7647 37.0402 37.5257 36.9668 37.048 36.8197C36.3023 36.5904 35.5416 36.4217 34.7741 36.3134C33.3993 36.1195 32.0012 36.1195 30.6263 36.3134C28.7337 36.5804 26.883 37.215 25.1967 38.2192C25.0464 38.3086 24.8608 38.4133 24.6507 38.5319C23.7295 39.0516 22.3367 39.8373 21.3828 40.771C20.7861 41.3551 20.2192 42.1247 20.1162 43.0676C20.0066 44.0702 20.444 45.0111 21.3215 45.8471C22.8354 47.2894 24.6522 48.4453 27.0021 48.4453H31.472C31.9699 48.4453 32.2189 48.4453 32.3339 48.3221C32.4488 48.1989 32.4278 47.8947 32.3858 47.2863Z" fill="black" fillOpacity="0.2"/>
</g>
</svg>
