<svg width="32" height="32" viewBox="0 0 32 32" fill="none" xmlns="http://www.w3.org/2000/svg">
<path opacity="0.4" d="M17.6512 2.62891H14.992C12.4742 2.62887 10.4432 2.62883 8.8458 2.86103C7.17869 3.10333 5.79776 3.62118 4.71376 4.79307C3.64301 5.95064 3.18203 7.40118 2.96411 9.15353C2.75191 10.8598 2.75193 13.0376 2.75195 15.7771V16.62C2.75193 19.3595 2.75191 21.5374 2.96411 23.2435C3.18203 24.9959 3.64301 26.4465 4.71376 27.604C5.69654 28.6665 6.92652 29.1941 8.4002 29.4633C9.82715 29.724 11.5933 29.7603 13.733 29.7669C14.4467 29.7691 15.0271 29.1922 15.0293 28.4784C15.0314 27.7647 14.4545 27.1844 13.7408 27.1822C11.5633 27.1756 10.0279 27.1331 8.86466 26.9206C7.74817 26.7167 7.09951 26.3768 6.61119 25.8489C6.06376 25.2571 5.71565 24.4251 5.52904 22.9246C5.339 21.3965 5.33665 19.3798 5.33665 16.5304V15.8667C5.33665 14.4987 5.33719 13.3226 5.35879 12.3004C5.36615 11.9518 5.65215 11.6753 6.0008 11.6753H26.6423C26.991 11.6753 27.277 11.9519 27.2843 12.3005C27.3007 13.0738 27.3053 13.9372 27.3062 14.9075C27.3069 15.6213 27.8862 16.1993 28.5999 16.1986C29.3137 16.1978 29.8916 15.6185 29.8909 14.9049C29.8883 12.4292 29.8671 10.4347 29.6381 8.84766C29.4048 7.23156 28.9371 5.88251 27.9295 4.79307C26.8454 3.62118 25.4646 3.10333 23.7974 2.86103C22.2 2.62883 20.169 2.62887 17.6512 2.62891Z" fill="#001AFF"/>
<path d="M9.85813 2.62828C9.85813 1.91455 9.27952 1.33594 8.56578 1.33594C7.85205 1.33594 7.27344 1.91455 7.27344 2.62828V3.20835C7.76494 3.05245 8.28863 2.94114 8.84407 2.8604C9.1645 2.81383 9.50237 2.77659 9.85813 2.74683V2.62828Z" fill="#001AFF"/>
<path d="M25.3679 3.20835C24.8764 3.05245 24.3528 2.94114 23.7973 2.8604C23.4768 2.81383 23.139 2.77659 22.7832 2.74683V2.62828C22.7832 1.91455 23.3618 1.33594 24.0756 1.33594C24.7893 1.33594 25.3679 1.91455 25.3679 2.62828V3.20835Z" fill="#141B34"/>
<path d="M22.7801 16.8438C23.6455 16.8438 24.2378 17.4928 24.5658 18.157L25.5362 20.1144C25.5703 20.1554 25.6164 20.1892 25.6655 20.2099L27.4184 20.5037C28.1457 20.6259 28.9077 21.0104 29.1641 21.8146C29.4199 22.6177 29.0229 23.3727 28.5008 23.8961L28.4997 23.8972L27.1374 25.2711C27.1088 25.3181 27.0873 25.3933 27.0886 25.4483L27.4785 27.1485C27.6509 27.9025 27.6545 28.8973 26.8908 29.4587C26.1233 30.023 25.1746 29.7142 24.5114 29.3192L22.867 28.3376C22.811 28.3252 22.7473 28.3212 22.6919 28.3392L21.051 29.3188C20.3859 29.7167 19.4393 30.0205 18.6727 29.4564C17.9107 28.8958 17.9099 27.9038 18.0833 27.1478L18.4731 25.4483C18.4747 25.3881 18.4554 25.3223 18.4243 25.2711L17.0598 23.8951C16.5408 23.3718 16.1455 22.6177 16.3992 21.8163C16.6541 21.0113 17.4155 20.6259 18.1438 20.5035L19.8916 20.2107C19.9408 20.1886 19.9834 20.154 20.0198 20.1146L20.9907 18.1564L20.9916 18.1547C21.3222 17.4915 21.9161 16.8438 22.7801 16.8438Z" fill="#141B34"/>
</svg>
