<svg width="69" height="69" viewBox="0 0 69 69" fill="none" xmlns="http://www.w3.org/2000/svg">
<rect x="0.984375" y="0.886719" width="67.3281" height="67.3281" rx="33.6641" fill="white"/>
<path opacity="0.4" d="M35.9793 21.6289H33.3202C30.8023 21.6289 28.7714 21.6288 27.1739 21.861C25.5068 22.1033 24.1259 22.6212 23.0419 23.7931C21.9711 24.9506 21.5102 26.4012 21.2922 28.1535C21.08 29.8598 21.0801 32.0376 21.0801 34.7771V35.62C21.0801 38.3595 21.08 40.5374 21.2922 42.2435C21.5102 43.9959 21.9711 45.4465 23.0419 46.604C24.0247 47.6665 25.2546 48.1941 26.7283 48.4633C28.1553 48.724 29.9215 48.7603 32.0611 48.7669C32.7748 48.7691 33.3552 48.1922 33.3574 47.4784C33.3596 46.7647 32.7827 46.1844 32.0689 46.1822C29.8915 46.1756 28.356 46.1331 27.1928 45.9206C26.0763 45.7167 25.4276 45.3768 24.9393 44.8489C24.3919 44.2571 24.0438 43.4251 23.8572 41.9246C23.6671 40.3965 23.6648 38.3798 23.6648 35.5304V34.8667C23.6648 33.4987 23.6653 32.3226 23.6869 31.3004C23.6943 30.9518 23.9803 30.6753 24.3289 30.6753H44.9704C45.3191 30.6753 45.6051 30.9519 45.6124 31.3005C45.6289 32.0738 45.6334 32.9372 45.6343 33.9075C45.6351 34.6213 46.2143 35.1993 46.9281 35.1986C47.6418 35.1978 48.2198 34.6185 48.219 33.9049C48.2164 31.4292 48.1952 29.4347 47.9662 27.8477C47.7329 26.2316 47.2652 24.8825 46.2576 23.7931C45.1736 22.6212 43.7927 22.1033 42.1256 21.861C40.5281 21.6288 38.4972 21.6289 35.9793 21.6289Z" fill="#001AFF"/>
<path d="M28.1863 21.6283C28.1863 20.9145 27.6076 20.3359 26.8939 20.3359C26.1802 20.3359 25.6016 20.9145 25.6016 21.6283V22.2084C26.0931 22.0524 26.6168 21.9411 27.1722 21.8604C27.4926 21.8138 27.8305 21.7766 28.1863 21.7468V21.6283Z" fill="#001AFF"/>
<path d="M43.696 22.2084C43.2045 22.0524 42.6809 21.9411 42.1254 21.8604C41.8049 21.8138 41.4671 21.7766 41.1113 21.7468V21.6283C41.1113 20.9145 41.6899 20.3359 42.4037 20.3359C43.1174 20.3359 43.696 20.9145 43.696 21.6283V22.2084Z" fill="#141B34"/>
<path d="M41.1083 35.8438C41.9736 35.8438 42.5659 36.4928 42.8939 37.157L43.8643 39.1144C43.8984 39.1554 43.9446 39.1892 43.9937 39.2099L45.7465 39.5037C46.4738 39.6259 47.2358 40.0104 47.4922 40.8146C47.7481 41.6177 47.3511 42.3727 46.829 42.8961L46.8278 42.8972L45.4655 44.2711C45.437 44.3181 45.4154 44.3933 45.4167 44.4483L45.8066 46.1485C45.979 46.9025 45.9826 47.8973 45.2189 48.4587C44.4514 49.023 43.5027 48.7142 42.8395 48.3192L41.1951 47.3376C41.1391 47.3252 41.0754 47.3212 41.02 47.3392L39.3791 48.3188C38.714 48.7167 37.7674 49.0205 37.0008 48.4564C36.2388 47.8958 36.238 46.9038 36.4115 46.1478L36.8012 44.4483C36.8028 44.3881 36.7835 44.3223 36.7524 44.2711L35.3879 42.8951C34.8689 42.3718 34.4736 41.6177 34.7273 40.8163C34.9823 40.0113 35.7436 39.6259 36.472 39.5035L38.2197 39.2107C38.269 39.1886 38.3115 39.154 38.3479 39.1146L39.3189 37.1564L39.3198 37.1547C39.6504 36.4915 40.2442 35.8438 41.1083 35.8438Z" fill="#141B34"/>
</svg>
