<svg width="68" height="69" viewBox="0 0 68 69" fill="none" xmlns="http://www.w3.org/2000/svg">
<rect x="0.328125" y="0.988281" width="67.3281" height="67.3281" rx="33.6641" fill="white"/>
<g opacity="0.4">
<path d="M20.0996 34.6544C20.0996 42.3272 26.3196 48.5472 33.9923 48.5472C41.6651 48.5472 47.8851 42.3272 47.8851 34.6544C47.8851 26.9817 41.6651 20.7617 33.9923 20.7617C26.3196 20.7617 20.0996 26.9817 20.0996 34.6544Z" fill="#106840"/>
<path d="M20.0996 34.6544C20.0996 42.3272 26.3196 48.5472 33.9923 48.5472C41.6651 48.5472 47.8851 42.3272 47.8851 34.6544C47.8851 26.9817 41.6651 20.7617 33.9923 20.7617C26.3196 20.7617 20.0996 26.9817 20.0996 34.6544Z" fill="black" fillOpacity="0.2"/>
<path d="M20.0996 34.6544C20.0996 42.3272 26.3196 48.5472 33.9923 48.5472C41.6651 48.5472 47.8851 42.3272 47.8851 34.6544C47.8851 26.9817 41.6651 20.7617 33.9923 20.7617C26.3196 20.7617 20.0996 26.9817 20.0996 34.6544Z" fill="black" fillOpacity="0.2"/>
<path d="M20.0996 34.6544C20.0996 42.3272 26.3196 48.5472 33.9923 48.5472C41.6651 48.5472 47.8851 42.3272 47.8851 34.6544C47.8851 26.9817 41.6651 20.7617 33.9923 20.7617C26.3196 20.7617 20.0996 26.9817 20.0996 34.6544Z" fill="black" fillOpacity="0.2"/>
<path d="M20.0996 34.6544C20.0996 42.3272 26.3196 48.5472 33.9923 48.5472C41.6651 48.5472 47.8851 42.3272 47.8851 34.6544C47.8851 26.9817 41.6651 20.7617 33.9923 20.7617C26.3196 20.7617 20.0996 26.9817 20.0996 34.6544Z" fill="black" fillOpacity="0.2"/>
</g>
<path d="M34.0793 29.4004C35.2586 28.5147 37.2023 28.0013 39.3218 29.3015C40.8486 30.238 41.6504 32.1519 41.3672 34.2635C41.0815 36.3938 39.7137 38.7296 36.9349 40.7862C36.0323 41.4556 35.1828 42.0857 33.993 42.0857C32.8031 42.0857 31.9537 41.4556 31.0511 40.7862C28.2723 38.7296 26.9045 36.3938 26.6188 34.2635C26.3356 32.1519 27.1373 30.238 28.6641 29.3015C30.7837 28.0013 32.7274 28.5147 33.9066 29.4004L33.993 29.4652L34.0793 29.4004Z" fill="#106840"/>
<path d="M34.0793 29.4004C35.2586 28.5147 37.2023 28.0013 39.3218 29.3015C40.8486 30.238 41.6504 32.1519 41.3672 34.2635C41.0815 36.3938 39.7137 38.7296 36.9349 40.7862C36.0323 41.4556 35.1828 42.0857 33.993 42.0857C32.8031 42.0857 31.9537 41.4556 31.0511 40.7862C28.2723 38.7296 26.9045 36.3938 26.6188 34.2635C26.3356 32.1519 27.1373 30.238 28.6641 29.3015C30.7837 28.0013 32.7274 28.5147 33.9066 29.4004L33.993 29.4652L34.0793 29.4004Z" fill="black" fillOpacity="0.2"/>
<path d="M34.0793 29.4004C35.2586 28.5147 37.2023 28.0013 39.3218 29.3015C40.8486 30.238 41.6504 32.1519 41.3672 34.2635C41.0815 36.3938 39.7137 38.7296 36.9349 40.7862C36.0323 41.4556 35.1828 42.0857 33.993 42.0857C32.8031 42.0857 31.9537 41.4556 31.0511 40.7862C28.2723 38.7296 26.9045 36.3938 26.6188 34.2635C26.3356 32.1519 27.1373 30.238 28.6641 29.3015C30.7837 28.0013 32.7274 28.5147 33.9066 29.4004L33.993 29.4652L34.0793 29.4004Z" fill="black" fillOpacity="0.2"/>
<path d="M34.0793 29.4004C35.2586 28.5147 37.2023 28.0013 39.3218 29.3015C40.8486 30.238 41.6504 32.1519 41.3672 34.2635C41.0815 36.3938 39.7137 38.7296 36.9349 40.7862C36.0323 41.4556 35.1828 42.0857 33.993 42.0857C32.8031 42.0857 31.9537 41.4556 31.0511 40.7862C28.2723 38.7296 26.9045 36.3938 26.6188 34.2635C26.3356 32.1519 27.1373 30.238 28.6641 29.3015C30.7837 28.0013 32.7274 28.5147 33.9066 29.4004L33.993 29.4652L34.0793 29.4004Z" fill="black" fillOpacity="0.2"/>
<path d="M34.0793 29.4004C35.2586 28.5147 37.2023 28.0013 39.3218 29.3015C40.8486 30.238 41.6504 32.1519 41.3672 34.2635C41.0815 36.3938 39.7137 38.7296 36.9349 40.7862C36.0323 41.4556 35.1828 42.0857 33.993 42.0857C32.8031 42.0857 31.9537 41.4556 31.0511 40.7862C28.2723 38.7296 26.9045 36.3938 26.6188 34.2635C26.3356 32.1519 27.1373 30.238 28.6641 29.3015C30.7837 28.0013 32.7274 28.5147 33.9066 29.4004L33.993 29.4652L34.0793 29.4004Z" fill="black" fillOpacity="0.2"/>
</svg>
