<svg width="24" height="25" viewBox="0 0 24 25" fill="none" xmlns="http://www.w3.org/2000/svg">
<path opacity="0.4" fill-rule="evenodd" clip-rule="evenodd" d="M12.193 3.5698C12.3768 4.0906 12.1036 4.6618 11.5828 4.84561L10.9203 5.07946C9.60945 5.5421 8.70506 5.86286 8.03099 6.18989C7.37981 6.50582 7.03566 6.78592 6.80098 7.11761C6.5663 7.44931 6.41671 7.86706 6.33552 8.58627C6.25148 9.33074 6.25 10.2903 6.25 11.6803V14.1248C6.25 15.5149 6.25148 16.4745 6.33552 17.2189C6.41671 17.9381 6.5663 18.3559 6.80098 18.6876C7.03566 19.0193 7.37981 19.2994 8.031 19.6153C8.70506 19.9423 9.60945 20.2631 10.9203 20.7257L11.5828 20.9596C12.1036 21.1434 12.3768 21.7146 12.193 22.2354C12.0092 22.7562 11.438 23.0294 10.9172 22.8456L10.1999 22.5924C8.957 22.1538 7.94545 21.7968 7.15799 21.4147C6.33614 21.016 5.66827 20.5494 5.1683 19.8427C4.66834 19.1361 4.45061 18.351 4.34814 17.4433C4.24996 16.5736 4.24998 15.5009 4.25 14.1829V11.6223C4.24998 10.3043 4.24996 9.23163 4.34814 8.36192C4.45061 7.45421 4.66834 6.66911 5.1683 5.96247C5.66827 5.25582 6.33614 4.78921 7.15799 4.39048C7.94545 4.00844 8.957 3.65144 10.1999 3.2128L10.9172 2.95963C11.438 2.77582 12.0092 3.049 12.193 3.5698Z" fill="#E3FFF4" fill-opacity="0.6"/>
<path d="M10.75 13.9082C10.1977 13.9082 9.75 13.4604 9.75 12.9082C9.75 12.3559 10.1977 11.9082 10.75 11.9082H17.25V11.3139C17.2499 11.1383 17.2497 10.9226 17.2718 10.7462L17.2722 10.7429C17.288 10.6164 17.3598 10.0404 17.9254 9.76602C18.4923 9.49106 18.9924 9.79299 19.1006 9.85831L19.5691 10.1975C19.9449 10.4921 20.4594 10.8978 20.8504 11.2782C21.0455 11.468 21.2467 11.6853 21.4056 11.9162C21.5468 12.1214 21.75 12.4716 21.75 12.9023C21.75 13.333 21.5468 13.6832 21.4056 13.8884C21.2467 14.1193 21.0455 14.3366 20.8504 14.5264C20.4594 14.9069 19.9449 15.3125 19.5691 15.6072L19.1006 15.9463C18.9924 16.0116 18.4922 16.3136 17.9254 16.0386C17.3598 15.7643 17.288 15.1882 17.2722 15.0618L17.2718 15.0584C17.2497 14.882 17.2499 14.6663 17.25 14.4907V13.9082H10.75Z" fill="#E3FFF4" fill-opacity="0.6"/>
</svg>
