<svg width="21" height="21" viewBox="0 0 21 21" fill="none" xmlns="http://www.w3.org/2000/svg">
<g clipPath="url(#clip0_9899_30640)">
<rect x="0.65625" y="0.101562" width="20" height="20" rx="10" fill="#106840"/>
<rect x="0.65625" y="0.101562" width="20" height="20" rx="10" fill="black" fillOpacity="0.2"/>
<rect x="0.65625" y="0.101562" width="20" height="20" rx="10" fill="black" fillOpacity="0.2"/>
<rect x="0.65625" y="0.101562" width="20" height="20" rx="10" fill="black" fillOpacity="0.2"/>
<rect x="0.65625" y="0.101562" width="20" height="20" rx="10" fill="black" fillOpacity="0.2"/>
<circle cx="10.6562" cy="10.1016" r="10" fill="#DEF4FF"/>
<path d="M14.9224 7.82387C14.9224 7.82387 15.6304 7.73787 15.6944 8.41187C15.7584 9.08587 15.5324 9.60387 15.1124 9.82787C15.1124 9.82787 15.0224 9.87187 14.8164 9.90787L14.9224 7.82587V7.82387Z" fill="#FFB69F"/>
<path d="M6.91163 7.82387C6.91163 7.82387 6.20363 7.73787 6.13963 8.41187C6.07563 9.08587 6.30163 9.60387 6.72163 9.82787C6.72163 9.82787 6.81163 9.87187 7.01763 9.90787L6.91163 7.82587V7.82387Z" fill="#FFB69F"/>
<path d="M1.25586 21.0469C1.25586 21.0469 1.25586 18.2189 2.91186 17.6609C4.56786 17.1029 8.30986 14.9609 8.30986 14.9609H10.8419V21.0469H1.25586Z" fill="#323232"/>
<path d="M20.2715 21.0469C20.2715 21.0469 20.2715 18.2189 18.6155 17.6609C16.9595 17.1029 13.2575 14.9609 13.2575 14.9609H10.6855V21.0469H20.2715Z" fill="#323232"/>
<path d="M8.93908 13.0039L8.70508 14.9599H12.8211L12.5651 13.0039H8.93908Z" fill="#FFB69F"/>
<path d="M10.7631 16.1318C11.8997 16.1318 12.8211 15.7315 12.8211 15.2378C12.8211 14.744 11.8997 14.3438 10.7631 14.3438C9.62648 14.3438 8.70508 14.744 8.70508 15.2378C8.70508 15.7315 9.62648 16.1318 10.7631 16.1318Z" fill="#FFB69F"/>
<path d="M8.7832 14.3119C8.7832 14.3119 11.5932 14.5699 12.5832 13.3379V11.9219L9.0212 12.2639L8.7832 14.3119Z" fill="#FF9988"/>
<path d="M10.9321 13.57C13.1975 13.57 15.0341 11.2222 15.0341 8.32603C15.0341 5.42985 13.1975 3.08203 10.9321 3.08203C8.66661 3.08203 6.83008 5.42985 6.83008 8.32603C6.83008 11.2222 8.66661 13.57 10.9321 13.57Z" fill="#FFB69F"/>
<path d="M14.5147 4.13977C14.5147 4.13977 14.5187 4.12977 14.5147 4.12377C14.3787 3.79777 14.2127 2.15977 11.5447 1.91177C10.8607 1.84777 9.88266 1.96177 9.26266 2.25777C8.41266 2.66177 7.46266 2.89377 6.62266 2.89177C6.58666 2.89177 6.57266 2.93977 6.60466 2.95777L7.26066 3.47977C7.28666 3.49377 7.28466 3.53177 7.25666 3.54377L6.43266 3.79377C6.40266 3.80577 6.40266 3.84977 6.43266 3.85977C6.56666 3.90377 6.90666 4.05377 7.21466 4.15977C6.71066 5.05177 6.82666 6.33377 6.82666 7.87377C6.82666 7.87377 6.81066 9.46977 7.34866 11.2998C7.93666 13.2998 9.22666 14.1578 11.0447 14.1638C12.9807 14.1718 13.9907 12.5118 14.2607 11.9218C14.6727 11.0178 15.0267 9.33777 15.0287 8.32777C15.0287 8.32777 15.7727 5.77577 14.5107 4.13977H14.5147ZM12.8707 11.5498C12.4707 11.7538 12.6727 10.6918 11.8767 10.6478C11.6107 10.6318 10.7067 10.5698 9.94666 10.6338C9.36866 10.6838 9.22866 11.2038 9.20266 11.4678C9.19066 11.5818 9.15066 11.6338 9.04266 11.5938C8.80266 11.5058 8.29266 11.2218 8.05266 10.9578C7.80466 10.6858 7.35666 9.95177 7.31466 8.40177L7.35866 6.18777C7.35866 6.18777 8.24866 5.44177 8.40266 4.91177C8.40266 4.91177 12.3787 5.54777 13.5307 4.91177C13.5307 4.91177 14.0127 5.83377 14.5387 6.11177C14.7007 6.19577 14.6727 7.24777 14.6587 7.97377C14.6447 8.07177 14.6327 8.18377 14.6267 8.31577C14.5207 10.3898 13.2667 11.3478 12.8687 11.5518L12.8707 11.5498Z" fill="#141414"/>
<path d="M12.8709 8.74625C13.0046 8.74625 13.1129 8.55821 13.1129 8.32625C13.1129 8.09429 13.0046 7.90625 12.8709 7.90625C12.7373 7.90625 12.6289 8.09429 12.6289 8.32625C12.6289 8.55821 12.7373 8.74625 12.8709 8.74625Z" fill="#441D39"/>
<path d="M9.24005 8.66031C9.3737 8.66031 9.48205 8.47227 9.48205 8.24031C9.48205 8.00835 9.3737 7.82031 9.24005 7.82031C9.10639 7.82031 8.99805 8.00835 8.99805 8.24031C8.99805 8.47227 9.10639 8.66031 9.24005 8.66031Z" fill="#441D39"/>
<path d="M11.2145 10.2156H10.8325C10.6625 10.2156 10.5125 10.1496 10.4325 10.0396C10.3745 9.96162 10.3585 9.86962 10.3865 9.77962C10.4725 9.50362 10.5845 8.47362 10.5845 8.46362C10.5905 8.40762 10.6385 8.36962 10.6945 8.37562C10.7485 8.38162 10.7885 8.43162 10.7825 8.48562C10.7785 8.52962 10.6665 9.54362 10.5765 9.83962C10.5685 9.86962 10.5725 9.89562 10.5925 9.92362C10.6345 9.97962 10.7285 10.0176 10.8325 10.0176H11.2145C11.2705 10.0176 11.3145 10.0616 11.3145 10.1176C11.3145 10.1736 11.2705 10.2176 11.2145 10.2176V10.2156Z" fill="#FF9988"/>
<path d="M13.0808 9.40594C13.4663 9.40594 13.7788 9.3343 13.7788 9.24594C13.7788 9.15757 13.4663 9.08594 13.0808 9.08594C12.6953 9.08594 12.3828 9.15757 12.3828 9.24594C12.3828 9.3343 12.6953 9.40594 13.0808 9.40594Z" fill="#FF9988"/>
<path d="M9.00855 9.40594C9.39404 9.40594 9.70655 9.3343 9.70655 9.24594C9.70655 9.15757 9.39404 9.08594 9.00855 9.08594C8.62305 9.08594 8.31055 9.15757 8.31055 9.24594C8.31055 9.3343 8.62305 9.40594 9.00855 9.40594Z" fill="#FF9988"/>
<path d="M13.7174 7.35261C13.0514 7.15661 12.5414 7.28061 12.2314 7.32061C12.0994 7.33661 12.0714 7.17461 12.0714 7.17461C12.0454 7.06461 12.1934 6.98861 12.2974 6.96861C12.6474 6.90461 13.0954 6.87261 13.7594 7.10261C13.8874 7.14661 13.8954 7.25461 13.8954 7.25461C13.8814 7.37461 13.8054 7.37661 13.7174 7.35061V7.35261Z" fill="#B54D4D"/>
<path d="M8.35578 7.36528C9.01778 7.15728 9.52978 7.27328 9.83978 7.30728C9.97178 7.32128 9.99778 7.15928 9.99778 7.15928C10.0218 7.04928 9.87178 6.97528 9.76778 6.95728C9.41578 6.89928 8.96778 6.87328 8.30978 7.11528C8.18178 7.16128 8.17578 7.26928 8.17578 7.26928C8.19178 7.38928 8.26778 7.38928 8.35378 7.36328L8.35578 7.36528Z" fill="#B54D4D"/>
<path d="M10.9103 11.841C10.4383 11.841 10.0623 11.741 10.0383 11.735C9.98427 11.721 9.95427 11.665 9.96827 11.613C9.98227 11.561 10.0383 11.529 10.0903 11.543C10.1003 11.545 11.0203 11.789 11.7623 11.499C11.8143 11.479 11.8723 11.505 11.8923 11.555C11.9123 11.607 11.8863 11.665 11.8363 11.685C11.5303 11.805 11.2023 11.843 10.9123 11.843L10.9103 11.841Z" fill="#9B3D3D"/>
<path d="M8.79464 14.3203L10.3866 15.4563L9.61664 17.3003L7.55664 15.3823L8.79464 14.3203Z" fill="#FFA242"/>
<path d="M10.3871 15.457L10.4831 16.139L10.1211 16.093L10.3871 15.457Z" fill="#F49037"/>
<path d="M11.2943 15.4219L11.1543 16.1399L11.5463 16.0739L11.2943 15.4219Z" fill="#F49037"/>
<path d="M11.2949 15.4216L12.7529 14.3516L14.1189 15.4476L12.0869 17.4776L11.2949 15.4216Z" fill="#FFA242"/>
<path d="M11.1524 16.4023H10.4824V21.0443H11.1524V16.4023Z" fill="#106840"/>
<path d="M11.1524 16.4023H10.4824V21.0443H11.1524V16.4023Z" fill="black" fillOpacity="0.2"/>
<path d="M11.1524 16.4023H10.4824V21.0443H11.1524V16.4023Z" fill="black" fillOpacity="0.2"/>
<path d="M11.1524 16.4023H10.4824V21.0443H11.1524V16.4023Z" fill="black" fillOpacity="0.2"/>
<path d="M11.1524 16.4023H10.4824V21.0443H11.1524V16.4023Z" fill="black" fillOpacity="0.2"/>
<path d="M10.4668 16.045L10.4808 16.453C10.4808 16.453 10.7928 16.589 11.1508 16.453L11.1608 16.083L10.4648 16.043L10.4668 16.045Z" fill="#FFB69F"/>
<path d="M11.1524 17.3828H10.4824V17.5828H11.1524V17.3828Z" fill="#D6D6D6"/>
<path d="M11.1524 18.2852H10.4824V18.4852H11.1524V18.2852Z" fill="#D6D6D6"/>
<path d="M11.1524 19.1875H10.4824V19.3875H11.1524V19.1875Z" fill="#D6D6D6"/>
<path d="M11.1524 20.0859H10.4824V20.2859H11.1524V20.0859Z" fill="#D6D6D6"/>
<path d="M11.7229 18.477C11.8201 18.477 11.8989 18.3982 11.8989 18.301C11.8989 18.2038 11.8201 18.125 11.7229 18.125C11.6257 18.125 11.5469 18.2038 11.5469 18.301C11.5469 18.3982 11.6257 18.477 11.7229 18.477Z" fill="#FFA242"/>
<path d="M11.7229 20.4418C11.8201 20.4418 11.8989 20.363 11.8989 20.2658C11.8989 20.1686 11.8201 20.0898 11.7229 20.0898C11.6257 20.0898 11.5469 20.1686 11.5469 20.2658C11.5469 20.363 11.6257 20.4418 11.7229 20.4418Z" fill="#FFA242"/>
</g>
<defs>
<clipPath id="clip0_9899_30640">
<rect x="0.65625" y="0.101562" width="20" height="20" rx="10" fill="white"/>
</clipPath>
</defs>
</svg>
