<svg width="32" height="32" viewBox="0 0 32 32" fill="none" xmlns="http://www.w3.org/2000/svg">
<path opacity="0.4" d="M17.7104 4.52023C18.5724 4.77037 19.3014 4.98196 19.8756 5.22682C20.4881 5.48794 21.0173 5.82334 21.4192 6.37314C21.8189 6.91973 21.9838 7.52946 22.0597 8.19924C22.1317 8.83347 22.1317 9.614 22.1316 10.5466V28.4761C22.1316 29.0114 21.6977 29.4454 21.1623 29.4454H4.36185C3.82654 29.4454 3.39258 29.0114 3.39258 28.4761V8.6501C3.39255 7.09189 3.39253 5.8192 3.52977 4.83998C3.67191 3.82604 3.98587 2.92078 4.78477 2.29183C5.59237 1.65604 6.53875 1.58252 7.53685 1.71614C8.48994 1.84375 9.67694 2.18833 11.1172 2.60643L17.7104 4.52023Z" fill="#FF7400"/>
<path d="M22.1309 12.0078V14.7063L23.2452 15.0407C24.1618 15.3156 24.7424 15.4918 25.165 15.6742C25.5566 15.8431 25.6822 15.9648 25.7528 16.0596C25.8232 16.1543 25.9037 16.3098 25.9531 16.7333C26.0062 17.1905 26.0083 17.7974 26.0083 18.7541V28.4776H28.593V18.6847C28.593 17.8178 28.5931 17.0589 28.5205 16.4346C28.4419 15.76 28.2669 15.1088 27.8265 14.5168C27.3859 13.9246 26.8124 13.57 26.1888 13.3009C25.6118 13.052 24.8849 12.8339 24.0545 12.5849L22.1309 12.0078Z" fill="#FF7400"/>
<path fill-rule="evenodd" clip-rule="evenodd" d="M9.85352 10.3833C9.85352 9.84802 10.2875 9.41406 10.8228 9.41406H14.6998C15.2352 9.41406 15.669 9.84802 15.669 10.3833C15.669 10.9186 15.2352 11.3526 14.6998 11.3526H10.8228C10.2875 11.3526 9.85352 10.9186 9.85352 10.3833ZM9.85352 15.5527C9.85352 15.0174 10.2875 14.5835 10.8228 14.5835H14.6998C15.2352 14.5835 15.669 15.0174 15.669 15.5527C15.669 16.088 15.2352 16.522 14.6998 16.522H10.8228C10.2875 16.522 9.85352 16.088 9.85352 15.5527Z" fill="black"/>
<path d="M12.0586 19.75H12.1165H13.4089H13.4666C14.026 19.75 14.5388 19.7499 14.9561 19.806C15.4154 19.8677 15.901 20.013 16.3004 20.4125C16.6997 20.8118 16.8451 21.2973 16.9069 21.7568C16.963 22.1739 16.9628 22.6867 16.9628 23.2462V28.4733H15.0243V23.304C15.0243 22.6673 15.0222 22.2874 14.9855 22.0151C14.9687 21.8903 14.9491 21.8278 14.9375 21.7997C14.9093 21.788 14.8224 21.744 14.6977 21.7272C14.4254 21.6906 14.0455 21.6885 13.4089 21.6885H12.1165C11.4798 21.6885 11.0999 21.6906 10.8276 21.7272C10.7028 21.744 10.6403 21.7637 10.6121 21.7754C10.6005 21.8034 10.5565 21.8903 10.5397 22.0151C10.5031 22.2874 10.501 22.6673 10.501 23.304V28.4733H8.5625V23.2462C8.56244 22.6867 8.56238 22.1739 8.61846 21.7568C8.68022 21.2973 8.82555 20.8118 9.22491 20.4125C9.62428 20.013 10.1098 19.8677 10.5692 19.806C10.9864 19.7499 11.4993 19.75 12.0586 19.75Z" fill="black"/>
<path fill-rule="evenodd" clip-rule="evenodd" d="M1.77734 28.1517C1.77734 27.438 2.35595 26.8594 3.06969 26.8594H28.9166C29.6303 26.8594 30.2089 27.438 30.2089 28.1517C30.2089 28.8655 29.6303 29.4441 28.9166 29.4441H3.06969C2.35595 29.4441 1.77734 28.8655 1.77734 28.1517Z" fill="black"/>
</svg>
