<svg width="68" height="69" viewBox="0 0 68 69" fill="none" xmlns="http://www.w3.org/2000/svg">
<rect x="0.65625" y="0.886719" width="67.3281" height="67.3281" rx="33.6641" fill="white"/>
<path opacity="0.4" d="M36.0386 23.5202C36.9006 23.7704 37.6296 23.982 38.2038 24.2268C38.8162 24.4879 39.3454 24.8233 39.7473 25.3731C40.1471 25.9197 40.312 26.5295 40.3878 27.1992C40.4598 27.8335 40.4598 28.614 40.4597 29.5466V47.4761C40.4597 48.0114 40.0258 48.4454 39.4904 48.4454H22.69C22.1547 48.4454 21.7207 48.0114 21.7207 47.4761V27.6501C21.7207 26.0919 21.7207 24.8192 21.8579 23.84C22 22.826 22.314 21.9208 23.1129 21.2918C23.9205 20.656 24.8669 20.5825 25.865 20.7161C26.8181 20.8438 28.0051 21.1883 29.4453 21.6064L36.0386 23.5202Z" fill="#FF7400"/>
<path d="M40.459 31.0078V33.7063L41.5734 34.0407C42.4899 34.3156 43.0706 34.4918 43.4932 34.6742C43.8847 34.8431 44.0104 34.9648 44.0809 35.0596C44.1513 35.1543 44.2319 35.3098 44.2812 35.7333C44.3343 36.1905 44.3364 36.7974 44.3364 37.7541V47.4776H46.9211V37.6847C46.9211 36.8178 46.9212 36.0589 46.8486 35.4346C46.77 34.76 46.595 34.1088 46.1546 33.5168C45.7141 32.9246 45.1405 32.57 44.517 32.3009C43.9399 32.052 43.213 31.8339 42.3826 31.5849L40.459 31.0078Z" fill="#FF7400"/>
<path fill-rule="evenodd" clip-rule="evenodd" d="M28.1816 29.3833C28.1816 28.848 28.6156 28.4141 29.1509 28.4141H33.0279C33.5633 28.4141 33.9972 28.848 33.9972 29.3833C33.9972 29.9186 33.5633 30.3526 33.0279 30.3526H29.1509C28.6156 30.3526 28.1816 29.9186 28.1816 29.3833ZM28.1816 34.5527C28.1816 34.0174 28.6156 33.5835 29.1509 33.5835H33.0279C33.5633 33.5835 33.9972 34.0174 33.9972 34.5527C33.9972 35.088 33.5633 35.522 33.0279 35.522H29.1509C28.6156 35.522 28.1816 35.088 28.1816 34.5527Z" fill="black"/>
<path d="M30.3868 38.75H30.4446H31.737H31.7948C32.3541 38.75 32.8669 38.7499 33.2842 38.806C33.7435 38.8677 34.2292 39.013 34.6285 39.4125C35.0278 39.8118 35.1732 40.2973 35.235 40.7568C35.2911 41.1739 35.291 41.6867 35.291 42.2462V47.4733H33.3524V42.304C33.3524 41.6673 33.3504 41.2874 33.3137 41.0151C33.2969 40.8903 33.2772 40.8278 33.2656 40.7997C33.2374 40.788 33.1506 40.744 33.0259 40.7272C32.7536 40.6906 32.3736 40.6885 31.737 40.6885H30.4446C29.808 40.6885 29.428 40.6906 29.1557 40.7272C29.0309 40.744 28.9684 40.7637 28.9403 40.7754C28.9287 40.8034 28.8846 40.8903 28.8678 41.0151C28.8312 41.2874 28.8291 41.6673 28.8291 42.304V47.4733H26.8906V42.2462C26.8906 41.6867 26.8905 41.1739 26.9466 40.7568C27.0083 40.2973 27.1537 39.8118 27.553 39.4125C27.9524 39.013 28.438 38.8677 28.8974 38.806C29.3146 38.7499 29.8274 38.75 30.3868 38.75Z" fill="black"/>
<path fill-rule="evenodd" clip-rule="evenodd" d="M20.1055 47.1517C20.1055 46.438 20.6841 45.8594 21.3978 45.8594H47.2447C47.9585 45.8594 48.5371 46.438 48.5371 47.1517C48.5371 47.8655 47.9585 48.4441 47.2447 48.4441H21.3978C20.6841 48.4441 20.1055 47.8655 20.1055 47.1517Z" fill="black"/>
</svg>
