<svg width="24" height="25" viewBox="0 0 24 25" fill="none" xmlns="http://www.w3.org/2000/svg">
<path fill-rule="evenodd" clip-rule="evenodd" d="M6.4247 6.8689C6.58139 7.39849 6.27908 7.95483 5.74949 8.11151C4.16178 8.58125 3.67116 8.90198 3.42994 9.31744C3.27579 9.58293 3.19906 9.93274 3.28685 10.625C3.37837 11.3467 3.62421 12.2777 3.98943 13.6485L5.00179 17.4482C5.36703 18.8191 5.61699 19.7489 5.89648 20.4198C6.16466 21.0636 6.40442 21.3263 6.66765 21.4774C6.93172 21.629 7.28257 21.7045 7.97966 21.6132C8.70491 21.5183 9.64085 21.2683 11.017 20.8974L11.4897 20.7701C12.023 20.6264 12.5718 20.9422 12.7155 21.4754C12.8592 22.0087 12.5434 22.5575 12.0101 22.7012L11.4696 22.8468C10.1784 23.1948 9.11286 23.4819 8.23925 23.5963C7.32225 23.7163 6.46836 23.6691 5.6719 23.2119C4.87461 22.7542 4.40515 22.0408 4.05028 21.1889C3.71269 20.3786 3.42979 19.3166 3.08741 18.0315L2.03867 14.0952C1.6962 12.8099 1.41325 11.748 1.30274 10.8766C1.18654 9.96039 1.23873 9.10823 1.70034 8.31321C2.38635 7.13167 3.65428 6.6457 5.18209 6.19369C5.71168 6.03701 6.26802 6.33931 6.4247 6.8689Z" fill="#E3FFF4" fill-opacity="0.6"/>
<path opacity="0.4" d="M17.2693 3.22522C18.5745 3.57294 19.6271 3.85336 20.4252 4.18466C21.2538 4.52858 21.9134 4.96802 22.336 5.69587C22.759 6.42434 22.8122 7.21374 22.6972 8.10096C22.5866 8.95466 22.3044 10.0019 21.9548 11.299L20.903 15.202C20.5535 16.4993 20.2713 17.5465 19.9379 18.3408C19.5913 19.1664 19.1488 19.8223 18.4179 20.2419C17.6876 20.6612 16.8966 20.714 16.0061 20.5999C15.1484 20.49 14.0958 20.2096 12.7907 19.8618L11.7306 19.5793C10.4254 19.2316 9.37284 18.9512 8.57468 18.6199C7.74612 18.276 7.08645 17.8365 6.66385 17.1087C6.24088 16.3802 6.18771 15.5908 6.30269 14.7036C6.41332 13.8499 6.69553 12.8027 7.04511 11.5055L8.09685 7.60251C8.4464 6.30522 8.72858 5.25801 9.06201 4.46375C9.40858 3.63818 9.85111 2.98221 10.582 2.5626C11.3123 2.14335 12.1033 2.09053 12.9938 2.20464C13.8515 2.31455 14.9041 2.595 16.2093 2.94278L17.2693 3.22522Z" fill="#E3FFF4" fill-opacity="0.6"/>
<path fill-rule="evenodd" clip-rule="evenodd" d="M12.156 7.72507C12.2627 7.32482 12.6736 7.0868 13.0738 7.19344L17.8467 8.46513C18.247 8.57177 18.485 8.98269 18.3784 9.38294C18.2717 9.78319 17.8608 10.0212 17.4605 9.91456L12.6876 8.64288C12.2874 8.53624 12.0494 8.12532 12.156 7.72507ZM11.1329 11.5218C11.2395 11.1216 11.6504 10.8836 12.0507 10.9902L14.4372 11.626C14.8374 11.7327 15.0754 12.1436 14.9688 12.5438C14.8621 12.9441 14.4512 13.1821 14.051 13.0755L11.6645 12.4396C11.2643 12.333 11.0262 11.9221 11.1329 11.5218Z" fill="#E3FFF4" fill-opacity="0.6"/>
</svg>
