<svg width="24" height="25" viewBox="0 0 24 25" fill="none" xmlns="http://www.w3.org/2000/svg">
<path opacity="0.4" d="M16.2712 2.30476C15.0706 2.15232 13.5342 2.15233 11.5833 2.15234H10.4167C8.46585 2.15233 6.92941 2.15232 5.72885 2.30476C4.49987 2.46081 3.50965 2.78809 2.72552 3.52865C1.93534 4.27493 1.5806 5.22702 1.41255 6.40755C1.24997 7.54963 1.24998 9.00774 1.25 10.843V14.9616C1.24998 16.7969 1.24997 18.255 1.41255 19.3971C1.5806 20.5776 1.93534 21.5297 2.72552 22.276C3.50965 23.0165 4.49987 23.3438 5.72885 23.4999C6.92941 23.6523 8.46586 23.6523 10.4167 23.6523H11.0646C11.46 23.6523 11.6577 23.6523 11.747 23.5536C11.8363 23.455 11.8126 23.2169 11.7653 22.7408C11.7443 22.5296 11.7484 22.3468 11.757 22.2123C11.7719 21.9788 11.8274 21.6726 11.8595 21.5023C11.9161 21.202 12.1781 19.829 12.2251 19.6446C12.3859 19.0148 12.6944 18.1581 13.4295 17.423L16.841 14.0112C17.0767 13.7741 17.4379 13.4108 17.8767 13.1575C18.5243 12.7836 19.2552 12.6173 19.977 12.6584C20.367 12.6807 20.562 12.6918 20.656 12.603C20.75 12.5142 20.75 12.3426 20.75 11.9994V10.8431C20.75 9.0078 20.75 7.54964 20.5875 6.40755C20.4194 5.22702 20.0647 4.27493 19.2745 3.52865C18.4904 2.78809 17.5001 2.46081 16.2712 2.30476Z" fill="#E3FFF4" fill-opacity="0.6"/>
<path fillRule="evenodd" clipRule="evenodd" d="M6 7.90234C6 7.35006 6.44772 6.90234 7 6.90234H15C15.5523 6.90234 16 7.35006 16 7.90234C16 8.45462 15.5523 8.90234 15 8.90234H7C6.44772 8.90234 6 8.45462 6 7.90234Z" fill="#E3FFF4" fill-opacity="0.6"/>
<path fillRule="evenodd" clipRule="evenodd" d="M6 12.9023C6 12.35 6.44772 11.9023 7 11.9023H15C15.5523 11.9023 16 12.35 16 12.9023C16 13.4546 15.5523 13.9023 15 13.9023H7C6.44772 13.9023 6 13.4546 6 12.9023Z" fill="#E3FFF4" fill-opacity="0.6"/>
<path d="M18.6269 14.4565C19.3294 14.0509 20.195 14.0509 20.8976 14.4565C21.1592 14.6076 21.4533 14.9022 21.7264 15.1758C22.0001 15.449 22.2947 15.743 22.4457 16.0046C22.8513 16.7072 22.8513 17.5728 22.4457 18.2754C22.2947 18.537 22.0599 18.7713 21.7862 19.0444L18.4185 22.412C17.9532 22.8773 17.3913 23.0947 16.8865 23.2236C16.6345 23.2879 15.4601 23.5009 15.4601 23.5009C15.4601 23.5009 14.848 23.632 14.5947 23.6481C14.3157 23.6659 13.9113 23.6385 13.5875 23.3147C13.2637 22.991 13.2364 22.5865 13.2541 22.3075C13.2702 22.0543 13.4013 21.4421 13.4013 21.4421C13.4013 21.4421 13.6143 20.2677 13.6786 20.0157C13.8075 19.5109 14.025 18.949 14.4903 18.4837L17.8579 15.116C18.131 14.8423 18.3653 14.6076 18.6269 14.4565Z" fill="#E3FFF4" fill-opacity="0.6"/>
</svg>
