<svg width="32" height="32" viewBox="0 0 32 32" fill="none" xmlns="http://www.w3.org/2000/svg">
<path d="M8.00973 19.4257C7.52069 18.3264 7.24805 17.1035 7.24805 15.8148C7.24805 11.0285 11.009 7.14844 15.6483 7.14844C20.2877 7.14844 24.0486 11.0285 24.0486 15.8148C24.0486 17.1035 23.7759 18.3264 23.2869 19.4257" fill="#B0FAFF"/>
<path d="M8.00973 19.4257C7.52069 18.3264 7.24805 17.1035 7.24805 15.8148C7.24805 11.0285 11.009 7.14844 15.6483 7.14844C20.2877 7.14844 24.0486 11.0285 24.0486 15.8148C24.0486 17.1035 23.7759 18.3264 23.2869 19.4257" stroke="#141B34" strokeWidth="1.5" strokeLinecap="round"/>
<path d="M15.6484 2.625V3.91735Z" fill="#B0FAFF"/>
<path d="M15.6484 2.625V3.91735" stroke="#2E313B" strokeWidth="1.5" strokeLinecap="round" strokeLinejoin="round"/>
<path d="M28.5716 15.5508H27.2793" stroke="#2E313B" strokeWidth="1.5" strokeLinecap="round" strokeLinejoin="round"/>
<path d="M4.01696 15.5508H2.72461" stroke="#2E313B" strokeWidth="1.5" strokeLinecap="round" strokeLinejoin="round"/>
<path d="M24.7869 6.41016L23.873 7.32399" stroke="#2E313B" strokeWidth="1.5" strokeLinecap="round" strokeLinejoin="round"/>
<path d="M7.42555 7.32789L6.51172 6.41406" stroke="#2E313B" strokeWidth="1.5" strokeLinecap="round" strokeLinejoin="round"/>
<path d="M18.9015 24.9924C20.2073 24.57 20.7309 23.3748 20.8782 22.1727C20.9222 21.8136 20.6268 21.5156 20.2649 21.5156L11.0955 21.5159C10.7212 21.516 10.4207 21.8335 10.4654 22.2052C10.6096 23.4049 10.9738 24.2814 12.3576 24.9924M18.9015 24.9924C18.9015 24.9924 12.5854 24.9924 12.3576 24.9924M18.9015 24.9924C18.7445 27.506 18.0185 28.5014 15.6574 28.4735C13.1319 28.5201 12.5509 27.2897 12.3576 24.9924" stroke="#141B34" strokeWidth="1.5" strokeLinecap="round" strokeLinejoin="round"/>
<path d="M7.67862 16.8397L7.50882 16.5399C7.38043 16.3132 7.3162 16.1998 7.20694 16.1546C7.09774 16.1094 6.97413 16.1451 6.72703 16.2164L6.30727 16.3367C6.14947 16.3737 5.98398 16.3527 5.8399 16.2774L5.72399 16.2094C5.6005 16.1289 5.50547 16.0102 5.45286 15.8707L5.338 15.5216C5.26246 15.2906 5.22466 15.1751 5.13477 15.109C5.04488 15.043 4.92541 15.043 4.68653 15.043H4.30305C4.06418 15.043 3.94471 15.043 3.85482 15.109C3.76493 15.1751 3.72712 15.2906 3.65158 15.5216L3.53673 15.8707C3.48411 16.0102 3.38908 16.1289 3.26557 16.2094L3.14968 16.2774C3.00562 16.3527 2.8401 16.3737 2.68233 16.3367L2.26254 16.2164C2.01543 16.1451 1.89187 16.1094 1.78262 16.1546C1.67337 16.1998 1.60916 16.3132 1.48074 16.5399L1.31094 16.8397C1.19056 17.0523 1.13038 17.1585 1.14205 17.2717C1.15374 17.3848 1.23431 17.4759 1.39546 17.6583L1.75016 18.0617C1.83685 18.1734 1.89839 18.368 1.89839 18.5429C1.89839 18.718 1.83686 18.9125 1.75016 19.0242L1.39546 19.4277C1.23431 19.6099 1.15374 19.7011 1.14205 19.8142C1.13038 19.9274 1.19056 20.0337 1.31094 20.2462L1.48073 20.546C1.60915 20.7727 1.67337 20.8861 1.78262 20.9313C1.89187 20.9765 2.01543 20.9408 2.26256 20.8695L2.68231 20.7492C2.84011 20.7122 3.00566 20.7332 3.14974 20.8085L3.26562 20.8765C3.38914 20.957 3.48411 21.0757 3.53673 21.2152L3.65158 21.5643C3.72712 21.7953 3.76493 21.9108 3.85482 21.9769C3.94471 22.043 4.06418 22.043 4.30305 22.043H4.68653C4.92541 22.043 5.04488 22.043 5.13477 21.9769C5.22466 21.9108 5.26246 21.7953 5.338 21.5643L5.45286 21.2152C5.50547 21.0757 5.60044 20.957 5.72399 20.8765L5.83984 20.8085C5.98393 20.7332 6.14947 20.7122 6.30727 20.7492L6.72703 20.8695C6.97413 20.9408 7.09768 20.9765 7.20694 20.9313C7.3162 20.8861 7.38042 20.7727 7.50887 20.546L7.67862 20.2462C7.79902 20.0337 7.85922 19.9274 7.8475 19.8142C7.83583 19.7011 7.75528 19.6099 7.5941 19.4277L7.23943 19.0242C7.15269 18.9125 7.09121 18.718 7.09121 18.5429C7.09121 18.368 7.15275 18.1734 7.23943 18.0617L7.5941 17.6583C7.75528 17.4759 7.83583 17.3848 7.8475 17.2717C7.85922 17.1585 7.79902 17.0523 7.67862 16.8397Z" stroke="#2E313B" strokeLinecap="round"/>
<path d="M4.49544 19.5651C5.05923 19.5651 5.51628 19.1081 5.51628 18.5443C5.51628 17.9805 5.05923 17.5234 4.49544 17.5234C3.93165 17.5234 3.47461 17.9805 3.47461 18.5443C3.47461 19.1081 3.93165 19.5651 4.49544 19.5651Z" stroke="#2E313B"/>
</svg>
