<svg width="24" height="25" viewBox="0 0 24 25" fill="none" xmlns="http://www.w3.org/2000/svg">
<path opacity="0.4" d="M10.5977 23.6523C10.3181 23.6204 10.0241 23.5467 9.74975 23.3492C9.47551 23.1518 9.31274 22.8969 9.19424 22.6425C9.0878 22.414 8.55153 20.8135 8.55153 20.8135C8.55153 20.8135 8.28957 20.3701 8.07443 20.2289C7.65193 19.9518 7.22563 19.8917 6.94789 19.9518C6.94789 19.9518 5.06643 20.4815 4.80071 20.5236C4.50519 20.5704 4.18191 20.5763 3.84761 20.4408C3.51341 20.3054 3.28601 20.0762 3.10697 19.8373L1.66844 17.3549C1.55583 17.0957 1.47276 16.8031 1.50833 16.4656C1.5439 16.1281 1.68619 15.8591 1.85044 15.6289C1.99791 15.4222 3.24083 14.0386 3.45588 13.8003C3.45588 13.8003 3.71591 13.4016 3.71591 12.9021C3.71591 12.3174 3.45586 12.0042 3.45586 12.0042C3.45586 12.0042 1.99791 10.3823 1.85043 10.1756C1.68619 9.94545 1.5439 9.67644 1.50833 9.33894C1.47276 9.00148 1.55583 8.70886 1.66843 8.44967C1.76957 8.2169 3.10699 5.96721 3.10699 5.96721C3.28602 5.72829 3.51342 5.49919 3.84759 5.36372C4.18189 5.2282 4.50518 5.23417 4.80069 5.28094C5.06641 5.32298 6.61796 5.75932 6.94794 5.85269C6.94794 5.85269 7.47727 5.96721 8.07438 5.57563C8.28956 5.43452 8.45627 5.23047 8.55157 4.99106C8.55157 4.99106 9.0878 3.39063 9.19424 3.16215C9.31274 2.90777 9.47551 2.65281 9.74975 2.45542C10.0241 2.25794 10.3181 2.18422 10.5977 2.15234H13.4023C13.6819 2.18422 13.9759 2.25794 14.2503 2.45542C14.5245 2.65281 14.6873 2.90777 14.8058 3.16215C14.9122 3.39063 15.4484 4.99106 15.4484 4.99106C15.5437 5.23047 15.7104 5.43452 15.9256 5.57563C16.5227 5.96721 17.0521 5.85269 17.0521 5.85269C17.382 5.75932 18.9336 5.32298 19.1993 5.28094C19.4948 5.23417 19.8181 5.2282 20.1524 5.36372C20.4866 5.49919 20.714 5.72829 20.893 5.96721C20.893 5.96721 22.2304 8.2169 22.3316 8.44967C22.4442 8.70886 22.5272 9.00148 22.4917 9.33894C22.4561 9.67644 22.3138 9.94545 22.1496 10.1756C22.0021 10.3823 20.5441 12.0042 20.5441 12.0042C20.5441 12.0042 20.2841 12.3174 20.2841 12.9021C20.2841 13.4016 20.5441 13.8003 20.5441 13.8003C20.7592 14.0386 22.0021 15.4222 22.1496 15.6289C22.3138 15.8591 22.4561 16.1281 22.4917 16.4656C22.5272 16.8031 22.4442 17.0957 22.3316 17.3549L20.893 19.8373C20.714 20.0762 20.4866 20.3054 20.1524 20.4408C19.8181 20.5763 19.4948 20.5704 19.1993 20.5236C18.9336 20.4815 17.0521 19.9518 17.0521 19.9518C16.7744 19.8917 16.3481 19.9518 15.9256 20.2289C15.7104 20.3701 15.4485 20.8135 15.4485 20.8135C15.4485 20.8135 14.9122 22.414 14.8058 22.6425C14.6873 22.8969 14.5245 23.1518 14.2503 23.3492C13.9759 23.5467 13.6819 23.6204 13.4023 23.6523H10.5977Z" fill="#E3FFF4" fillOpacity="0.6"/>
<path d="M15.5195 12.9023C15.5195 14.8353 13.9525 16.4023 12.0195 16.4023C10.0865 16.4023 8.51953 14.8353 8.51953 12.9023C8.51953 10.9693 10.0865 9.40234 12.0195 9.40234C13.9525 9.40234 15.5195 10.9693 15.5195 12.9023Z" fill="#E3FFF4" fillOpacity="0.6"/>
</svg>
