<svg width="233" height="213" viewBox="0 0 233 213" fill="none" xmlns="http://www.w3.org/2000/svg">
<path d="M75.2913 126.883C75.2913 126.883 41.1411 111.936 42.8365 91.7988C44.5665 71.6616 56.0191 66.0218 58.3373 49.7944C60.6555 33.5324 66.9181 12.461 87.6089 19.0696C108.3 25.6782 125.254 23.9828 142.138 21.8722C159.023 19.7616 191.167 19.0004 187.672 53.1506C184.212 87.3008 191.097 118.51 147.571 126.883C104.044 135.256 75.2913 126.883 75.2913 126.883Z" fill="#E2D8C9"/>
<path d="M147.57 28.7227H70.4121V93.3901H147.57V28.7227Z" fill="#C9BFB1" stroke="#F0EBD6" stroke-width="0.382468" stroke-miterlimit="10"/>
<path d="M147.57 30.3477H70.4121V32.8043H147.57V30.3477Z" fill="#FFF6E7"/>
<path d="M147.57 34.293H70.4121V36.7496H147.57V34.293Z" fill="#FFF6E7"/>
<path d="M147.57 38.2031H70.4121V40.6597H147.57V38.2031Z" fill="#FFF6E7"/>
<path d="M147.57 42.1133H70.4121V44.5699H147.57V42.1133Z" fill="#FFF6E7"/>
<path d="M147.57 46.0234H70.4121V48.48H147.57V46.0234Z" fill="#FFF6E7"/>
<path d="M147.57 49.9336H70.4121V52.3902H147.57V49.9336Z" fill="#FFF6E7"/>
<path d="M147.57 53.8398H70.4121V56.2964H147.57V53.8398Z" fill="#FFF6E7"/>
<path d="M70.6543 93.2137V73.7685H76.7439V81.0345H82.9027V62.6273H92.7291V72.7997H99.3377V89.5461H106.431V67.2291H112.589V76.6403H118.99V85.2903H126.741V61.5547H138.401V83.5603H143.868V93.2137H70.6543Z" fill="#B2A593"/>
<path d="M72.5586 122.14C72.5586 122.14 78.579 123.974 80.655 115.047C76.849 118.368 72.5586 122.14 72.5586 122.14Z" fill="#647761"/>
<path d="M72.5581 122.14C72.5581 122.14 71.5547 115.946 80.6545 115.047C76.8485 118.368 72.5581 122.14 72.5581 122.14Z" fill="#647761"/>
<path d="M72.5586 122.141C72.9392 121.656 73.389 121.241 73.8042 120.791C74.254 120.376 74.7038 119.961 75.1536 119.546C75.6034 119.131 76.0878 118.75 76.5722 118.369C77.0566 117.989 77.541 117.643 78.06 117.297C77.6794 117.781 77.2296 118.196 76.8144 118.646C76.3646 119.061 75.9148 119.477 75.465 119.892C75.0152 120.272 74.5308 120.688 74.0464 121.068C73.562 121.449 73.0776 121.795 72.5586 122.141Z" fill="#3B5B32"/>
<path d="M72.3164 122.279C72.3164 122.279 68.4412 117.331 61.625 123.455C66.642 122.901 72.3164 122.279 72.3164 122.279Z" fill="#647761"/>
<path d="M72.3164 122.277C72.3164 122.277 69.583 127.917 61.625 123.454C66.642 122.9 72.3164 122.277 72.3164 122.277Z" fill="#647761"/>
<path d="M72.3168 122.277C71.7286 122.45 71.1058 122.554 70.5176 122.658C69.9294 122.762 69.3066 122.831 68.7184 122.9C68.1302 122.969 67.5074 123.004 66.8846 123.039C66.2618 123.073 65.6736 123.073 65.0508 123.073C65.639 122.9 66.2618 122.796 66.85 122.693C67.4382 122.589 68.061 122.52 68.6492 122.45C69.2374 122.381 69.8602 122.347 70.483 122.312C71.1058 122.277 71.7286 122.277 72.3168 122.277Z" fill="#3B5B32"/>
<path d="M66.0876 108.857C66.0876 108.857 63.7002 103.044 55.5 107.057C60.4478 107.922 66.0876 108.857 66.0876 108.857Z" fill="#647761"/>
<path d="M66.0876 108.858C66.0876 108.858 61.9356 113.563 55.5 107.059C60.4478 107.924 66.0876 108.858 66.0876 108.858Z" fill="#647761"/>
<path d="M66.0874 108.856C65.4646 108.856 64.8764 108.786 64.2536 108.717C63.6308 108.648 63.0426 108.544 62.4544 108.475C61.8662 108.371 61.2434 108.267 60.6552 108.129C60.067 107.991 59.4788 107.852 58.8906 107.645C59.5134 107.645 60.1016 107.714 60.7244 107.783C61.3472 107.852 61.9354 107.956 62.5236 108.025C63.1118 108.129 63.7346 108.233 64.3228 108.371C64.911 108.51 65.4992 108.683 66.0874 108.856Z" fill="#3B5B32"/>
<path d="M66.3301 108.542C66.3301 108.542 72.3505 110.376 74.4265 101.449C70.6205 104.771 66.3301 108.542 66.3301 108.542Z" fill="#647761"/>
<path d="M66.3296 108.542C66.3296 108.542 65.3262 102.349 74.426 101.449C70.62 104.771 66.3296 108.542 66.3296 108.542Z" fill="#647761"/>
<path d="M66.3301 108.539C66.7107 108.055 67.1605 107.64 67.5757 107.19C68.0255 106.775 68.4753 106.36 68.9251 105.944C69.3749 105.529 69.8593 105.149 70.3437 104.768C70.8281 104.387 71.3125 104.041 71.8315 103.695C71.4509 104.18 71.0011 104.595 70.5859 105.045C70.1361 105.46 69.6863 105.875 69.2365 106.29C68.7867 106.671 68.3023 107.086 67.8179 107.467C67.3335 107.847 66.8491 108.228 66.3301 108.539Z" fill="#3B5B32"/>
<path d="M69.4453 116.222C69.4453 116.222 75.4657 118.056 77.5417 109.129C73.7357 112.451 69.4453 116.222 69.4453 116.222Z" fill="#647761"/>
<path d="M69.4449 116.222C69.4449 116.222 68.4415 110.029 77.5413 109.129C73.7353 112.451 69.4449 116.222 69.4449 116.222Z" fill="#647761"/>
<path d="M69.4453 116.223C69.8259 115.739 70.2757 115.323 70.6909 114.874C71.1407 114.458 71.5905 114.043 72.0403 113.628C72.4901 113.213 72.9745 112.832 73.4589 112.452C73.9433 112.071 74.4277 111.725 74.9467 111.379C74.5661 111.863 74.1163 112.279 73.7011 112.728C73.2513 113.144 72.8015 113.559 72.3517 113.974C71.9019 114.355 71.4175 114.77 70.9331 115.15C70.4487 115.531 69.9643 115.912 69.4453 116.223Z" fill="#3B5B32"/>
<path d="M69.0639 116.292C69.0639 116.292 66.1575 110.722 58.3379 115.462C63.3549 115.842 69.0639 116.292 69.0639 116.292Z" fill="#647761"/>
<path d="M69.0639 116.291C69.0639 116.291 65.3617 121.343 58.3379 115.461C63.3549 115.842 69.0639 116.291 69.0639 116.291Z" fill="#647761"/>
<path d="M69.0648 116.291C68.442 116.326 67.8538 116.326 67.231 116.326C66.6082 116.326 66.02 116.291 65.3972 116.222C64.7744 116.188 64.1862 116.118 63.598 116.049C63.0098 115.98 62.387 115.876 61.7988 115.738C62.4216 115.703 63.0098 115.703 63.6326 115.703C64.2554 115.703 64.8436 115.738 65.4664 115.807C66.0892 115.842 66.6774 115.911 67.2656 116.015C67.8538 116.049 68.4766 116.153 69.0648 116.291Z" fill="#3B5B32"/>
<path d="M80.2386 134.668C80.2386 134.668 66.8138 119.271 63.4922 99.4453C64.1842 99.4453 64.1842 99.4453 64.1842 99.4453C64.1842 99.4453 66.9522 118.821 81.2766 133.284C82.0724 135.256 80.2386 134.668 80.2386 134.668Z" fill="#475644"/>
<path d="M64.4959 102.937C64.4959 102.937 68.8901 98.4395 61.9355 92.4883C63.1465 97.3669 64.4959 102.937 64.4959 102.937Z" fill="#647761"/>
<path d="M64.4954 102.937C64.4954 102.937 58.5442 100.965 61.935 92.4883C63.146 97.3669 64.4954 102.937 64.4954 102.937Z" fill="#647761"/>
<path d="M64.4951 102.937C64.2529 102.383 64.0799 101.795 63.8723 101.207C63.6993 100.619 63.5263 100.03 63.3879 99.4421C63.2495 98.8539 63.1111 98.2658 63.0073 97.643C62.9035 97.0548 62.7997 96.4319 62.7305 95.8438C62.9727 96.3974 63.1457 96.9855 63.3533 97.5737C63.5263 98.1619 63.6993 98.7502 63.8377 99.3384C63.9761 99.9266 64.1145 100.515 64.2183 101.138C64.3567 101.726 64.4605 102.314 64.4951 102.937Z" fill="#3B5B32"/>
<path d="M77.0898 141.759C77.0898 141.759 71.277 145.115 64.2532 141.379C57.2294 137.642 51.5896 136.119 46.6418 137.642C41.694 139.164 45.0848 123.421 61.2084 128.092C77.3666 132.798 79.6502 138.23 79.6502 138.23L77.0898 141.759Z" fill="#475644"/>
<path d="M47.2988 133.143C47.2988 133.143 57.0906 126.015 75.2556 138.817" stroke="#242D21" stroke-width="0.225004" stroke-miterlimit="10"/>
<path d="M50.8984 136.361C50.8984 136.361 52.317 132.278 58.1644 131.344" stroke="#242D21" stroke-width="0.225004" stroke-miterlimit="10"/>
<path d="M62.2806 132.245C62.2806 132.245 60.4122 130.1 57.9902 128.059" stroke="#29593E" stroke-width="0.225004" stroke-miterlimit="10"/>
<path d="M68.3024 134.629C68.3024 134.629 63.2162 134.525 59.168 137.882" stroke="#242D21" stroke-width="0.225004" stroke-miterlimit="10"/>
<path d="M72.5225 137.018C72.5225 137.018 71.6229 133.8 69.0625 131.551" stroke="#29593E" stroke-width="0.225004" stroke-miterlimit="10"/>
<path d="M76.7095 137.436C76.7095 137.436 69.7549 139.339 63.4923 133.526C57.2297 127.713 51.7975 124.599 46.2269 124.841C40.6563 125.083 48.5105 109.617 63.9767 118.925C79.4775 128.232 80.3771 134.495 80.3771 134.495L76.7095 137.436Z" fill="#92A68F"/>
<path d="M48.1309 120.341C48.1309 120.341 60.2409 115.635 75.6033 133.904" stroke="#22351B" stroke-width="0.228222" stroke-miterlimit="10"/>
<path d="M50.9668 124.669C50.9668 124.669 53.5618 120.828 59.8936 121.486" stroke="#22351B" stroke-width="0.228222" stroke-miterlimit="10"/>
<path d="M63.9427 123.528C63.9427 123.528 62.5933 120.795 60.6211 117.992" stroke="#22351B" stroke-width="0.228222" stroke-miterlimit="10"/>
<path d="M69.548 127.646C69.548 127.646 64.2888 126.124 59.168 128.511" stroke="#22351B" stroke-width="0.228222" stroke-miterlimit="10"/>
<path d="M73.285 131.241C73.285 131.241 73.2504 127.642 71.209 124.598" stroke="#22351B" stroke-width="0.228222" stroke-miterlimit="10"/>
<path d="M165.253 122.691C165.253 122.691 159.232 124.524 157.156 115.598C160.928 118.919 165.253 122.691 165.253 122.691Z" fill="#647761"/>
<path d="M165.253 122.691C165.253 122.691 166.256 116.497 157.156 115.598C160.928 118.919 165.253 122.691 165.253 122.691Z" fill="#647761"/>
<path d="M165.253 122.688C164.734 122.342 164.25 121.996 163.766 121.615C163.281 121.235 162.831 120.854 162.347 120.439C161.897 120.024 161.447 119.643 160.998 119.193C160.548 118.778 160.133 118.328 159.752 117.844C160.271 118.19 160.755 118.536 161.24 118.916C161.724 119.297 162.174 119.678 162.658 120.093C163.108 120.508 163.558 120.889 164.008 121.338C164.423 121.788 164.838 122.203 165.253 122.688Z" fill="#3B5B32"/>
<path d="M165.459 122.829C165.459 122.829 169.334 117.882 176.15 124.006C171.168 123.452 165.459 122.829 165.459 122.829Z" fill="#647761"/>
<path d="M165.459 122.828C165.459 122.828 168.192 128.468 176.15 124.005C171.168 123.451 165.459 122.828 165.459 122.828Z" fill="#647761"/>
<path d="M165.459 122.827C166.082 122.792 166.67 122.827 167.293 122.861C167.916 122.896 168.504 122.965 169.127 123C169.715 123.069 170.338 123.138 170.926 123.242C171.514 123.346 172.137 123.45 172.725 123.623C172.102 123.657 171.514 123.623 170.891 123.588C170.268 123.553 169.68 123.484 169.057 123.45C168.469 123.38 167.846 123.311 167.258 123.207C166.635 123.104 166.047 123 165.459 122.827Z" fill="#3B5B32"/>
<path d="M171.688 109.407C171.688 109.407 174.075 103.595 182.275 107.608C177.327 108.473 171.688 109.407 171.688 109.407Z" fill="#647761"/>
<path d="M171.688 109.409C171.688 109.409 175.84 114.114 182.275 107.609C177.327 108.474 171.688 109.409 171.688 109.409Z" fill="#647761"/>
<path d="M171.688 109.406C172.276 109.199 172.864 109.06 173.452 108.922C174.04 108.784 174.628 108.68 175.251 108.576C175.839 108.472 176.462 108.368 177.051 108.334C177.639 108.265 178.261 108.195 178.884 108.195C178.296 108.403 177.708 108.541 177.12 108.68C176.532 108.818 175.943 108.922 175.321 109.026C174.732 109.13 174.109 109.233 173.521 109.268C172.933 109.372 172.31 109.406 171.688 109.406Z" fill="#3B5B32"/>
<path d="M171.481 109.093C171.481 109.093 165.461 110.927 163.385 102C167.156 105.322 171.481 109.093 171.481 109.093Z" fill="#647761"/>
<path d="M171.481 109.093C171.481 109.093 172.485 102.9 163.385 102C167.156 105.322 171.481 109.093 171.481 109.093Z" fill="#647761"/>
<path d="M171.482 109.09C170.963 108.744 170.478 108.398 169.994 108.017C169.51 107.637 169.06 107.256 168.575 106.841C168.126 106.426 167.676 106.045 167.226 105.595C166.776 105.18 166.361 104.73 165.98 104.246C166.499 104.592 166.984 104.938 167.468 105.319C167.953 105.699 168.402 106.08 168.887 106.495C169.337 106.91 169.786 107.291 170.236 107.741C170.651 108.19 171.067 108.64 171.482 109.09Z" fill="#3B5B32"/>
<path d="M168.366 116.773C168.366 116.773 162.346 118.606 160.27 109.68C164.041 113.001 168.366 116.773 168.366 116.773Z" fill="#647761"/>
<path d="M168.366 116.773C168.366 116.773 169.369 110.579 160.27 109.68C164.041 113.001 168.366 116.773 168.366 116.773Z" fill="#647761"/>
<path d="M168.367 116.774C167.848 116.428 167.363 116.082 166.879 115.701C166.394 115.32 165.945 114.94 165.46 114.525C165.01 114.109 164.561 113.729 164.111 113.279C163.661 112.864 163.246 112.414 162.865 111.93C163.384 112.276 163.869 112.622 164.353 113.002C164.837 113.383 165.287 113.763 165.772 114.179C166.221 114.594 166.671 114.974 167.121 115.424C167.536 115.874 167.951 116.324 168.367 116.774Z" fill="#3B5B32"/>
<path d="M168.713 116.843C168.713 116.843 171.619 111.272 179.439 116.013C174.422 116.393 168.713 116.843 168.713 116.843Z" fill="#647761"/>
<path d="M168.713 116.842C168.713 116.842 172.415 121.894 179.439 116.012C174.422 116.392 168.713 116.842 168.713 116.842Z" fill="#647761"/>
<path d="M168.713 116.845C169.301 116.707 169.924 116.603 170.512 116.534C171.1 116.465 171.723 116.396 172.311 116.326C172.934 116.292 173.522 116.257 174.145 116.223C174.768 116.223 175.356 116.223 175.979 116.257C175.391 116.396 174.768 116.499 174.18 116.569C173.591 116.638 172.969 116.707 172.38 116.742C171.758 116.776 171.169 116.811 170.547 116.845C169.958 116.915 169.336 116.88 168.713 116.845Z" fill="#3B5B32"/>
<path d="M157.536 135.219C157.536 135.219 170.961 119.822 174.283 99.9961C173.591 99.9961 173.591 99.9961 173.591 99.9961C173.591 99.9961 170.823 119.372 156.498 133.835C155.737 135.807 157.536 135.219 157.536 135.219Z" fill="#475644"/>
<path d="M173.28 103.488C173.28 103.488 168.885 98.9903 175.84 93.0391C174.629 97.9177 173.28 103.488 173.28 103.488Z" fill="#647761"/>
<path d="M173.279 103.488C173.279 103.488 179.23 101.516 175.84 93.0391C174.629 97.9177 173.279 103.488 173.279 103.488Z" fill="#647761"/>
<path d="M173.279 103.488C173.348 102.865 173.418 102.277 173.556 101.688C173.66 101.1 173.798 100.512 173.937 99.8891C174.075 99.3009 174.248 98.7127 174.421 98.1245C174.594 97.5363 174.802 96.9481 175.044 96.3945C174.975 97.0173 174.905 97.6055 174.767 98.1937C174.663 98.7819 174.525 99.3701 174.386 99.9929C174.248 100.581 174.075 101.169 173.902 101.758C173.729 102.346 173.521 102.934 173.279 103.488Z" fill="#3B5B32"/>
<path d="M160.719 142.31C160.719 142.31 166.531 145.666 173.555 141.929C180.579 138.193 186.219 136.67 191.167 138.193C196.114 139.715 192.724 123.972 176.6 128.643C160.442 133.349 158.158 138.781 158.158 138.781L160.719 142.31Z" fill="#475644"/>
<path d="M190.474 133.693C190.474 133.693 180.683 126.566 162.518 139.368" stroke="#242D21" stroke-width="0.225004" stroke-miterlimit="10"/>
<path d="M186.911 136.912C186.911 136.912 185.492 132.829 179.645 131.895" stroke="#242D21" stroke-width="0.225004" stroke-miterlimit="10"/>
<path d="M175.492 132.796C175.492 132.796 177.361 130.651 179.783 128.609" stroke="#29593E" stroke-width="0.225004" stroke-miterlimit="10"/>
<path d="M169.473 135.18C169.473 135.18 174.559 135.076 178.607 138.432" stroke="#242D21" stroke-width="0.225004" stroke-miterlimit="10"/>
<path d="M165.252 137.568C165.252 137.568 166.152 134.351 168.712 132.102" stroke="#29593E" stroke-width="0.225004" stroke-miterlimit="10"/>
<path d="M161.099 137.986C161.099 137.986 168.054 139.889 174.316 134.077C180.579 128.264 186.011 125.15 191.582 125.392C197.152 125.634 189.298 110.168 173.832 119.475C158.331 128.783 157.432 135.045 157.432 135.045L161.099 137.986Z" fill="#92A68F"/>
<path d="M189.644 120.892C189.644 120.892 177.534 116.186 162.172 134.455" stroke="#22351B" stroke-width="0.228222" stroke-miterlimit="10"/>
<path d="M186.808 125.22C186.808 125.22 184.213 121.379 177.881 122.037" stroke="#22351B" stroke-width="0.228222" stroke-miterlimit="10"/>
<path d="M173.832 124.079C173.832 124.079 175.181 121.346 177.154 118.543" stroke="#22351B" stroke-width="0.228222" stroke-miterlimit="10"/>
<path d="M168.262 128.197C168.262 128.197 173.521 126.675 178.642 129.062" stroke="#22351B" stroke-width="0.228222" stroke-miterlimit="10"/>
<path d="M164.525 131.792C164.525 131.792 164.56 128.193 166.601 125.148" stroke="#22351B" stroke-width="0.228222" stroke-miterlimit="10"/>
<path d="M50.8629 95.257C52.3534 95.257 53.5617 94.0487 53.5617 92.5582C53.5617 91.0677 52.3534 89.8594 50.8629 89.8594C49.3724 89.8594 48.1641 91.0677 48.1641 92.5582C48.1641 94.0487 49.3724 95.257 50.8629 95.257Z" fill="#E87552"/>
<path d="M157.569 54.6371C159.441 54.6371 160.959 53.119 160.959 51.2463C160.959 49.3736 159.441 47.8555 157.569 47.8555C155.696 47.8555 154.178 49.3736 154.178 51.2463C154.178 53.119 155.696 54.6371 157.569 54.6371Z" fill="#E87552"/>
<path d="M165.078 40.9688C168.231 40.9688 170.787 38.4128 170.787 35.2598C170.787 32.1068 168.231 29.5508 165.078 29.5508C161.925 29.5508 159.369 32.1068 159.369 35.2598C159.369 38.4128 161.925 40.9688 165.078 40.9688Z" fill="#92A68F"/>
<path d="M60.7926 73.7023C62.2831 73.7023 63.4914 72.494 63.4914 71.0035C63.4914 69.513 62.2831 68.3047 60.7926 68.3047C59.302 68.3047 58.0938 69.513 58.0938 71.0035C58.0938 72.494 59.302 73.7023 60.7926 73.7023Z" fill="#92A68F"/>
<path d="M59.2022 86.6764C59.2022 87.6452 58.4064 88.4064 57.4722 88.4064C56.5034 88.4064 55.7422 87.6106 55.7422 86.6764C55.7422 85.7076 56.538 84.9464 57.4722 84.9464C58.441 84.9118 59.2022 85.7076 59.2022 86.6764Z" fill="white"/>
<path d="M170.509 50.4175C170.509 51.2479 169.851 51.9053 169.021 51.9053C168.191 51.9053 167.533 51.2479 167.533 50.4175C167.533 49.5871 168.191 48.9297 169.021 48.9297C169.851 48.9297 170.509 49.6217 170.509 50.4175Z" fill="white"/>
<path d="M81.9334 23.0473C81.9334 23.7739 81.3452 24.3275 80.6532 24.3275C79.9266 24.3275 79.373 23.7393 79.373 23.0473C79.373 22.3553 79.9612 21.7671 80.6532 21.7671C81.3452 21.7325 81.9334 22.3207 81.9334 23.0473Z" fill="white"/>
<path d="M82.5234 66.2617C82.5234 66.2617 90.7582 67.3343 94.841 68.9951C98.9238 70.6213 97.8512 97.0903 97.8512 97.0903L83.3884 92.4193L82.5234 66.2617Z" fill="#475644"/>
<path d="M77.6096 115.15L76.6754 71.5882C76.6062 68.7164 78.8552 66.329 81.6924 66.2252C84.495 66.0868 86.917 68.1974 87.1592 71L91.415 115.184H77.6096V115.15Z" fill="#92A68F"/>
<path opacity="0.42" d="M89.4077 94.3545L97.8501 97.0879C97.8501 97.0879 97.8501 97.0532 97.8501 97.0187L92.3487 70.7227C92.3487 70.7227 87.8853 74.7709 85.8093 77.4005C83.7333 80.0301 84.0101 92.5553 84.6329 99.8559C84.9789 104.042 86.3283 110.478 87.4009 115.149H91.4491L89.4077 94.3545Z" fill="#475644"/>
<path d="M127.779 102.176C127.779 102.176 131.585 102.418 133.419 103.075C135.253 103.733 135.322 104.632 134.146 104.529C132.969 104.425 129.059 104.321 129.059 104.321L127.779 102.176Z" fill="#633222"/>
<path d="M126.361 98.4727C126.361 98.4727 127.642 99.9605 127.953 100.652C128.299 101.31 127.019 101.587 126.604 101.137C126.188 100.687 124.216 98.8879 123.836 98.7149C123.49 98.5073 126.361 98.4727 126.361 98.4727Z" fill="#633222"/>
<path d="M109.891 98.199C109.891 98.199 115.808 97.0226 118.783 96.469C121.759 95.9154 123.835 96.123 125.876 97.1956C127.952 98.2682 129.302 99.2716 129.059 99.8944C128.852 100.517 127.295 99.9982 126.534 99.5484C125.738 99.0986 124.423 99.1332 123.627 99.1678C122.831 99.237 123.108 99.6868 123.8 100.31C124.458 100.932 124.873 101.97 123.973 102.04C123.074 102.109 120.479 100.483 119.475 100.31C118.472 100.137 114.008 101.486 110.929 103.285C107.884 105.05 109.891 98.199 109.891 98.199Z" fill="#7A422B"/>
<path d="M123.627 108.265C123.627 108.265 124.976 107.469 127.329 107.642C129.682 107.815 130.478 107.712 130.236 107.02C130.028 106.362 127.225 105.324 127.225 105.324C127.225 105.324 124.319 107.089 123.627 108.265Z" fill="#633222"/>
<path d="M95.8776 67.0586C95.8776 67.0586 90.8952 71.3144 88.2656 77.1964C85.7744 82.5248 89.8918 115.118 89.8918 115.118L112.486 115.429C112.486 115.429 111.171 97.7142 111.932 95.5344C112.693 93.3546 115.081 92.6972 113.454 85.535C111.828 78.3728 105.462 72.214 105.462 72.214L95.8776 67.0586Z" fill="#D35F44"/>
<path opacity="0.69" d="M112.487 115.429C112.487 115.429 112.245 112.35 112.037 108.578C109.961 108.544 106.57 108.198 104.564 106.675C101.519 104.357 99.7542 90.2403 99.7542 90.2403L87.4712 83.5625C87.2982 94.7037 89.8932 115.118 89.8932 115.118L112.487 115.429Z" fill="#933F2E"/>
<path d="M96.5014 94.1143C97.2626 93.6645 103.56 90.8619 101.172 81.4161C99.6154 75.2919 94.0102 73.8041 90.2389 73.5273C89.5123 74.6345 88.8202 75.8455 88.232 77.1603C87.3324 79.0633 87.2978 84.4609 87.6092 90.5851C91.5536 92.3843 96.0862 94.3565 96.5014 94.1143Z" fill="#FFF6E7"/>
<path d="M87.6445 79.5829C87.8175 78.6487 88.2673 77.7491 89.0285 77.1263C89.9281 76.3651 91.4851 75.7423 93.9071 76.3305C98.7857 77.5415 99.8929 88.0599 99.9967 95.4643C100.1 102.834 100.654 103.941 100.654 103.941C100.654 103.941 107.159 104.806 113.041 104.253C118.923 103.699 125.324 102.28 127.4 102.177C129.476 102.073 132.624 104.668 132.832 106.19C133.04 107.713 131.759 106.848 130.998 106.19C130.237 105.533 128.507 104.875 126.881 106.294C125.255 107.713 121.898 110.204 118.611 109.996C115.359 109.789 115.567 109.996 111.968 111.207C108.37 112.418 98.6473 115.982 94.8759 115.394C91.1045 114.806 91.7965 110.446 89.9281 103.63C88.0943 96.9867 86.2951 86.9181 87.6445 79.5829Z" fill="#7A422B"/>
<path d="M100.653 103.906C100.653 103.906 98.0581 103.802 96.3281 104.356" stroke="#1D1D1B" stroke-width="0.201856" stroke-miterlimit="10"/>
<path d="M95.8789 67.0586C95.8789 67.0586 98.5777 76.4352 104.079 77.9576C108.162 79.1686 105.463 72.2486 105.463 72.2486L95.8789 67.0586Z" fill="#FFF6E7"/>
<path d="M96.3633 58.233C96.3633 58.233 97.4705 63.9766 95.8789 67.056C101.899 71.381 105.463 72.2114 105.463 72.2114C105.463 72.2114 103.145 67.2636 103.041 62.4196C102.937 57.541 96.3633 58.233 96.3633 58.233Z" fill="#7A422B"/>
<path d="M97.8516 58.2344C98.5436 60.7948 100.17 65.189 103.561 66.4692C103.284 65.189 103.076 63.805 103.042 62.421C102.972 59.0648 99.8238 58.3382 97.8516 58.2344Z" fill="#492315"/>
<path d="M108.023 81.6217C108.023 82.1407 107.607 82.5559 107.088 82.5559C106.569 82.5559 106.154 82.1407 106.154 81.6217C106.154 81.1027 106.569 80.6875 107.088 80.6875C107.607 80.6875 108.023 81.1027 108.023 81.6217Z" fill="#FFF6E7"/>
<path d="M108.577 88.8879C109.093 88.8879 109.511 88.4697 109.511 87.9537C109.511 87.4378 109.093 87.0195 108.577 87.0195C108.061 87.0195 107.643 87.4378 107.643 87.9537C107.643 88.4697 108.061 88.8879 108.577 88.8879Z" fill="#FFF6E7"/>
<path d="M107.574 95.187C107.055 95.1524 106.675 94.7026 106.709 94.1836C106.744 93.6646 107.194 93.284 107.713 93.3186C108.232 93.3532 108.612 93.803 108.578 94.322C108.508 94.8756 108.059 95.2562 107.574 95.187Z" fill="#FFF6E7"/>
<path d="M107.574 103.109C107.055 103.074 106.675 102.624 106.709 102.105C106.744 101.586 107.194 101.206 107.713 101.24C108.232 101.275 108.612 101.725 108.578 102.244C108.508 102.763 108.059 103.143 107.574 103.109Z" fill="#FFF6E7"/>
<path d="M116.985 43.9788C116.985 42.4218 116.05 41.0378 114.736 40.415C114.77 40.1728 114.805 39.9652 114.805 39.723C114.805 37.5432 113.04 35.744 110.826 35.744C110.307 35.744 109.822 35.8478 109.373 36.0208C109.061 34.1178 107.435 32.6992 105.463 32.6992C104.286 32.6992 103.248 33.2182 102.522 34.014C101.657 33.2182 100.515 32.6992 99.2694 32.6992C96.7782 32.6992 94.7714 34.6022 94.5638 37.0588C94.0102 36.8166 93.422 36.6782 92.7992 36.6782C90.3772 36.6782 88.405 38.6504 88.405 41.0724C88.405 41.9028 88.6472 42.664 89.0278 43.3214C87.4016 43.8404 86.2598 45.3282 86.2598 47.1274C86.2598 48.9266 87.4708 50.449 89.1316 50.9334C88.5434 51.6254 88.1628 52.525 88.1628 53.5284C88.1628 55.5698 89.7198 57.2652 91.692 57.4728C92.3494 58.7184 93.6642 59.5834 95.1866 59.5834C97.3664 59.5834 99.1656 57.8188 99.1656 55.6044C99.1656 54.8432 98.958 54.1512 98.5774 53.563C100.584 53.217 105.082 52.352 107.124 51.2448C107.85 51.9714 108.854 52.4212 109.926 52.4212C112.106 52.4212 113.905 50.6566 113.905 48.4422C113.905 48.2346 113.871 48.0616 113.871 47.854C115.635 47.508 116.985 45.9164 116.985 43.9788Z" fill="#2C1C16"/>
<path d="M116.985 43.9788C116.985 42.4218 116.05 41.0378 114.736 40.415C114.77 40.1728 114.805 39.9652 114.805 39.723C114.805 37.5432 113.04 35.744 110.826 35.744C110.307 35.744 109.822 35.8478 109.373 36.0208C109.061 34.1178 107.435 32.6992 105.463 32.6992C104.286 32.6992 103.248 33.2182 102.522 34.014C101.657 33.2182 100.515 32.6992 99.2694 32.6992C96.7782 32.6992 94.7714 34.6022 94.5638 37.0588C94.0102 36.8166 93.422 36.6782 92.7992 36.6782C90.3772 36.6782 88.405 38.6504 88.405 41.0724C88.405 41.9028 88.6472 42.664 89.0278 43.3214C87.4016 43.8404 86.2598 45.3282 86.2598 47.1274C86.2598 48.9266 87.4708 50.449 89.1316 50.9334C88.5434 51.6254 88.1628 52.525 88.1628 53.5284C88.1628 55.5698 89.7198 57.2652 91.692 57.4728C92.3494 58.7184 93.6642 59.5834 95.1866 59.5834C97.3664 59.5834 99.1656 57.8188 99.1656 55.6044C99.1656 54.8432 98.958 54.1512 98.5774 53.563C100.584 53.217 105.082 52.352 107.124 51.2448C107.85 51.9714 108.854 52.4212 109.926 52.4212C112.106 52.4212 113.905 50.6566 113.905 48.4422C113.905 48.2346 113.871 48.0616 113.871 47.854C115.635 47.508 116.985 45.9164 116.985 43.9788Z" fill="#2C1C16"/>
<path d="M116.985 43.9788C116.985 42.4218 116.051 41.0378 114.736 40.415C114.771 40.1728 114.805 39.9652 114.805 39.723C114.805 37.5432 113.041 35.744 110.826 35.744C110.307 35.744 109.823 35.8478 109.373 36.0208C109.096 34.2216 107.609 32.8376 105.74 32.6992C103.803 33.1836 102.315 34.8444 102.142 36.9204C101.588 36.6782 101 36.5398 100.377 36.5398C97.9553 36.5398 95.9831 38.512 95.9831 40.934C95.9831 41.7644 96.2253 42.5256 96.6059 43.183C94.9797 43.702 93.8379 45.1898 93.8379 46.989C93.8379 48.7882 95.0489 50.3106 96.7097 50.795C96.1215 51.487 95.7409 52.3866 95.7409 53.39C95.7409 55.2584 97.0211 56.8154 98.7511 57.2306C98.9933 56.7462 99.0971 56.158 99.0971 55.5698C99.0971 54.8086 98.8895 54.1166 98.5089 53.5284C100.516 53.1824 105.014 52.3174 107.055 51.2102C107.782 51.9368 108.785 52.3866 109.858 52.3866C112.037 52.3866 113.837 50.622 113.837 48.4076C113.837 48.2 113.802 48.027 113.802 47.8194C115.636 47.508 116.985 45.9164 116.985 43.9788Z" fill="#442217"/>
<path d="M109.13 62.9758C111.022 62.9758 112.556 61.4422 112.556 59.5504C112.556 57.6586 111.022 56.125 109.13 56.125C107.239 56.125 105.705 57.6586 105.705 59.5504C105.705 61.4422 107.239 62.9758 109.13 62.9758Z" stroke="#E87552" stroke-width="0.338769" stroke-miterlimit="10"/>
<path d="M110.1 46.5742C110.1 46.5742 110.826 49.2038 110.826 52.6984C110.826 56.193 110.722 58.3036 110.826 60.0682C110.93 61.8674 107.435 63.7704 105.775 64.1856C104.079 64.6008 96.1903 62.075 95.9827 56.2622C95.8789 52.56 95.8789 52.56 95.8789 52.56C95.8789 52.56 96.8131 52.56 97.4705 50.0342C99.0621 49.7228 99.3735 47.9236 99.3735 47.3008C101.277 47.716 103.18 47.197 103.387 46.5742C104.771 47.6122 107.193 47.4046 107.608 46.5742C108.854 47.197 110.1 46.5742 110.1 46.5742Z" fill="#7A422B"/>
<path d="M107.816 54.3594C107.816 54.3594 108.196 56.0894 108.715 56.7814C109.234 57.4388 108.369 58.2346 106.432 57.7156" stroke="#442217" stroke-width="0.254068" stroke-miterlimit="10"/>
<path d="M108.023 59.4432C108.023 59.4432 105.463 59.4432 103.906 59.028C103.767 58.9934 103.698 59.1664 103.802 59.2356C105.394 60.4812 107.331 60.4466 107.816 60.3774L108.023 59.4432Z" fill="#FFF6E7"/>
<path d="M104.563 54.0823C103.871 53.8401 103.283 53.6671 102.66 53.4941C102.349 53.4249 102.037 53.3557 101.726 53.2865C101.415 53.2173 101.069 53.1827 100.723 53.0789C101.034 52.9059 101.38 52.8021 101.761 52.7675C102.107 52.7329 102.487 52.7675 102.833 52.8367C103.179 52.9059 103.525 53.0789 103.837 53.2865C104.113 53.4941 104.39 53.7363 104.563 54.0823Z" fill="#2C1C16"/>
<path d="M108.992 54.2189C108.992 53.9767 109.096 53.8037 109.2 53.6307C109.304 53.4577 109.477 53.3193 109.65 53.2155C109.996 53.0079 110.445 52.9387 110.861 53.1809C110.688 53.3539 110.549 53.4231 110.411 53.5269C110.272 53.6307 110.134 53.6999 109.996 53.7691C109.857 53.8383 109.719 53.9075 109.546 53.9767C109.373 54.1151 109.2 54.1843 108.992 54.2189Z" fill="#2C1C16"/>
<path d="M104.079 49.5481C104.079 49.5481 101.796 48.9945 100.516 50.1709" stroke="#2C1C16" stroke-width="0.338769" stroke-miterlimit="10" stroke-linecap="round"/>
<path d="M108.992 49.6549C108.992 49.6549 110.238 49.5857 110.861 50.1739" stroke="#2C1C16" stroke-width="0.338769" stroke-miterlimit="10" stroke-linecap="round"/>
<path opacity="0.38" d="M102.625 55.7439C102.625 56.3667 101.725 56.8511 100.618 56.8511C99.5109 56.8511 98.6113 56.3667 98.6113 55.7439C98.6113 55.1211 99.5109 54.6367 100.618 54.6367C101.76 54.6367 102.625 55.1211 102.625 55.7439Z" fill="#D35F44"/>
<path opacity="0.38" d="M109.58 55.745C109.58 56.1948 110.099 56.61 110.791 56.783C110.791 56.1602 110.826 55.4682 110.826 54.707C110.099 54.88 109.58 55.2606 109.58 55.745Z" fill="#D35F44"/>
<path d="M95.4014 57.3286C96.686 56.785 97.2444 55.2031 96.6487 53.7953C96.0529 52.3875 94.5286 51.6869 93.244 52.2305C91.9594 52.7742 91.4009 54.3561 91.9967 55.7639C92.5924 57.1717 94.1167 57.8723 95.4014 57.3286Z" fill="#7A422B"/>
<path d="M92.4186 53.9091C92.1764 54.0129 91.9688 54.1513 91.7958 54.2897C91.7612 54.7741 91.8304 55.2585 92.0034 55.7429C92.5916 57.1615 94.114 57.8535 95.3942 57.2999C95.6364 57.1961 95.844 57.0577 96.017 56.9193C96.0516 56.4349 95.9824 55.9505 95.8094 55.4661C95.2212 54.0821 93.6988 53.3555 92.4186 53.9091Z" fill="#592C1D"/>
<path d="M94.8395 56.0898C96.7425 56.0898 98.2649 57.6122 98.2649 59.5152C98.2649 61.4182 96.7425 62.9406 94.8395 62.9406C92.9365 62.9406 91.4141 61.4182 91.4141 59.5152C91.4141 58.408 91.9331 57.4392 92.7635 56.7818" stroke="#E87552" stroke-width="0.338769" stroke-miterlimit="10"/>
<path d="M114.563 104.115C114.563 104.115 114.252 110.482 116.017 112.627C117.816 114.807 117.366 109.928 117.366 109.928L118.266 109.963C118.266 109.963 118.646 114.115 116.639 114.115C114.633 114.115 113.352 108.752 113.733 104.15C113.871 102.766 116.12 102.766 116.19 103.873C114.563 104.115 114.563 104.115 114.563 104.115Z" fill="#D35F44"/>
<path d="M107.088 81.625H112.139" stroke="#FFF6E7" stroke-width="0.338769" stroke-miterlimit="10"/>
<path d="M108.576 87.957H114.008" stroke="#FFF6E7" stroke-width="0.338769" stroke-miterlimit="10"/>
<path d="M107.643 94.2891H112.556" stroke="#FFF6E7" stroke-width="0.338769" stroke-miterlimit="10"/>
<path d="M107.643 102.176H111.76" stroke="#FFF6E7" stroke-width="0.338769" stroke-miterlimit="10"/>
<path d="M145.044 112.383H122.658V114.77H145.044V112.383Z" fill="#647761"/>
<path d="M126.119 111.691H124.043V112.383H126.119V111.691Z" fill="#7B9177"/>
<path d="M128.541 111.691H126.465V112.383H128.541V111.691Z" fill="#7B9177"/>
<path d="M130.963 111.691H128.887V112.383H130.963V111.691Z" fill="#7B9177"/>
<path d="M133.385 111.691H131.309V112.383H133.385V111.691Z" fill="#7B9177"/>
<path d="M135.806 111.691H133.73V112.383H135.806V111.691Z" fill="#7B9177"/>
<path d="M138.228 111.691H136.152V112.383H138.228V111.691Z" fill="#7B9177"/>
<path d="M140.65 111.691H138.574V112.383H140.65V111.691Z" fill="#7B9177"/>
<path d="M143.072 111.691H140.996V112.383H143.072V111.691Z" fill="#7B9177"/>
<path d="M133.211 110.794C133.211 110.794 133.695 107.264 136.221 108.026C138.712 108.787 134.249 109.237 133.211 110.794Z" fill="#D35F44"/>
<path d="M134.318 107.575C134.318 107.575 135.737 104.807 137.571 106.156C139.405 107.471 135.633 106.571 134.318 107.575Z" fill="#FFF6E7"/>
<path d="M79.5112 94.8086H78.5078V104.22H79.5112V94.8086Z" fill="#FFF6E7"/>
<path d="M79.9956 97.6118H78.5078V94.1172C78.5078 93.702 78.8538 93.3906 79.2344 93.3906C79.6496 93.3906 79.961 93.7366 79.961 94.1172V97.6118H79.9956Z" fill="#A34731"/>
<path d="M79.9961 97.6133V99.3433C79.9961 99.8277 79.8231 100.277 79.5117 100.623V97.6133H79.9961Z" fill="#A34731"/>
<path d="M76.6843 104.186L77.6719 104.008L76.0033 94.7453L75.0157 94.9232L76.6843 104.186Z" fill="#FFF6E7"/>
<path d="M75.0486 97.7513L76.5018 97.4746L75.879 94.0492C75.8098 93.634 75.4292 93.3917 75.014 93.4609C74.5988 93.5301 74.3566 93.9107 74.4258 94.3259L75.0486 97.7513Z" fill="#92A68F"/>
<path d="M75.0488 97.7522L75.3602 99.4476C75.4294 99.8974 75.7062 100.347 76.0522 100.624L75.5332 97.6484L75.0488 97.7522Z" fill="#92A68F"/>
<path d="M81.8297 103.215H72.9375V114.737H81.8297V103.215Z" fill="#A34731"/>
<path d="M76.9165 103.215H72.9375V114.737H76.9165V103.215Z" fill="#E87552"/>
<path d="M72.2813 101.277H82.4537C83.0073 101.277 83.4225 101.727 83.4225 102.246C83.4225 102.8 82.9727 103.215 82.4537 103.215H72.2813C71.7277 103.215 71.3125 102.765 71.3125 102.246C71.3125 101.693 71.7277 101.277 72.2813 101.277Z" fill="#A34731"/>
<path d="M74.4951 102.246C74.4951 101.693 74.9449 101.277 75.4639 101.277H72.2461C71.6925 101.277 71.2773 101.727 71.2773 102.246C71.2773 102.8 71.7271 103.215 72.2461 103.215H75.4639C74.9449 103.215 74.4951 102.765 74.4951 102.246Z" fill="#E87552"/>
<path d="M81.8297 103.215H72.9375V104.703H81.8297V103.215Z" fill="#A34731"/>
<path d="M158.538 91.8984H151.445V114.804H158.538V91.8984Z" fill="#92A68F"/>
<path d="M158.538 91.8984H151.445V99.9256H158.538V91.8984Z" fill="#475644"/>
<path d="M179.403 61.2422H140.097L131.793 96.1882H171.064L179.403 61.2422Z" fill="#475644"/>
<path d="M176.635 61.2422H137.329L129.025 96.1882H168.296L176.635 61.2422Z" fill="#92A68F"/>
<path d="M173.97 62.9727H138.817L131.654 93.1439H166.773L173.97 62.9727Z" fill="#FFF6E7" stroke="#7B9177" stroke-width="0.276973" stroke-miterlimit="10"/>
<path d="M159.542 64.5977H140.823L136.982 80.6867H155.701L159.542 64.5977Z" fill="#E2D8C9"/>
<path d="M150.927 66.7773H141.101L139.094 75.2197H148.92L150.927 66.7773Z" fill="#BAAFA0"/>
<path d="M167.673 82.1406H157.155L155.01 91.1712H165.528L167.673 82.1406Z" fill="#D35F44"/>
<path d="M139.474 82.1406H136.948L134.803 91.1712H137.329L139.474 82.1406Z" fill="#E87552"/>
<path d="M143.454 82.1406H140.928L138.783 91.1712H141.309L143.454 82.1406Z" fill="#92A68F"/>
<path d="M147.468 82.1406H144.942L142.797 91.1712H145.323L147.468 82.1406Z" fill="#475644"/>
<path d="M151.446 82.1406H148.921L146.775 91.1712H149.301L151.446 82.1406Z" fill="#D35F44"/>
<path d="M155.425 82.1406H152.934L150.754 91.1712H153.28L155.425 82.1406Z" fill="#647761"/>
<path d="M161.342 64.5977H171.756" stroke="#7B9177" stroke-width="0.0827978" stroke-miterlimit="10"/>
<path d="M160.789 66.4688H171.204" stroke="#7B9177" stroke-width="0.0827978" stroke-miterlimit="10"/>
<path d="M160.338 68.3008H170.752" stroke="#7B9177" stroke-width="0.0827978" stroke-miterlimit="10"/>
<path d="M159.82 70.168H170.235" stroke="#7B9177" stroke-width="0.0827978" stroke-miterlimit="10"/>
<path d="M159.336 72.0391H169.751" stroke="#7B9177" stroke-width="0.0827978" stroke-miterlimit="10"/>
<path d="M158.781 73.9062H169.161" stroke="#7B9177" stroke-width="0.0827978" stroke-miterlimit="10"/>
<path d="M158.262 75.7734H168.676" stroke="#7B9177" stroke-width="0.0827978" stroke-miterlimit="10"/>
<path d="M157.709 77.6406H168.124" stroke="#7B9177" stroke-width="0.0827978" stroke-miterlimit="10"/>
<path d="M157.26 79.5117H167.674" stroke="#7B9177" stroke-width="0.0827978" stroke-miterlimit="10"/>
<path d="M169.299 96.1882L177.568 61.2422" stroke="#92A68F" stroke-width="0.338769" stroke-miterlimit="10"/>
<path d="M149.162 113.105H158.539V114.801H147.467C147.467 113.867 148.228 113.105 149.162 113.105Z" fill="#7B9177"/>
<path d="M140.443 66.1201H159.197L159.543 64.5977H140.824L140.443 66.1201Z" fill="#92A68F"/>
<path d="M141.932 65.3605C141.932 65.5681 141.759 65.7757 141.517 65.7757C141.309 65.7757 141.102 65.6027 141.102 65.3605C141.102 65.1183 141.275 64.9453 141.517 64.9453C141.759 64.9799 141.932 65.1529 141.932 65.3605Z" fill="#FFF6E7"/>
<path d="M142.796 65.7757C143.025 65.7757 143.211 65.5898 143.211 65.3605C143.211 65.1312 143.025 64.9453 142.796 64.9453C142.567 64.9453 142.381 65.1312 142.381 65.3605C142.381 65.5898 142.567 65.7757 142.796 65.7757Z" fill="#E87552"/>
<path d="M144.457 65.3605C144.457 65.5681 144.284 65.7757 144.042 65.7757C143.835 65.7757 143.627 65.6027 143.627 65.3605C143.627 65.1183 143.8 64.9453 144.042 64.9453C144.284 64.9799 144.457 65.1529 144.457 65.3605Z" fill="#475644"/>
<path d="M139.232 76.2227H155.702" stroke="#BAAFA0" stroke-width="0.338769" stroke-miterlimit="10"/>
<path d="M138.748 77.6406H155.218" stroke="#BAAFA0" stroke-width="0.338769" stroke-miterlimit="10"/>
<path d="M138.471 79.0625H154.94" stroke="#BAAFA0" stroke-width="0.338769" stroke-miterlimit="10"/>
<path d="M157.154 82.1406L165.528 91.1712" stroke="#FFF6E7" stroke-width="0.276973" stroke-miterlimit="10"/>
<path d="M155.01 91.1712L167.673 82.1406" stroke="#FFF6E7" stroke-width="0.276973" stroke-miterlimit="10"/>
<path d="M172.309 119.825H65.6371C64.2531 119.825 63.1113 118.683 63.1113 117.299C63.1113 115.915 64.2531 114.773 65.6371 114.773H172.309C173.693 114.773 174.835 115.915 174.835 117.299C174.835 118.683 173.693 119.825 172.309 119.825Z" fill="#F7C49E"/>
<path d="M114.562 117.299C114.562 115.915 113.42 114.773 112.036 114.773H65.6371C64.2531 114.773 63.1113 115.915 63.1113 117.299C63.1113 118.683 64.2531 119.825 65.6371 119.825H112.036C113.42 119.825 114.562 118.683 114.562 117.299Z" fill="#E2AB86"/>
<path d="M74.876 158.506H161.341C163.383 158.506 165.044 156.846 165.044 154.804V119.789H71.1738V154.804C71.1738 156.846 72.8346 158.506 74.876 158.506Z" fill="#F7C49E"/>
<path d="M74.8752 158.506H104.078V119.789H71.2076V154.804C71.173 156.846 72.8338 158.506 74.8752 158.506Z" fill="#E2AB86"/>
<path opacity="0.67" d="M165.009 119.789H71.1738V123.872H165.009V119.789Z" fill="#7A422B"/>
<path d="M41.9261 202.902H40.6932C40.6203 202.548 40.4927 202.236 40.3104 201.968C40.1314 201.699 39.9126 201.474 39.6541 201.292C39.3989 201.106 39.1155 200.967 38.804 200.874C38.4924 200.781 38.1676 200.735 37.8295 200.735C37.2131 200.735 36.6546 200.891 36.1541 201.202C35.657 201.514 35.2609 201.973 34.9659 202.579C34.6742 203.186 34.5284 203.93 34.5284 204.811C34.5284 205.693 34.6742 206.437 34.9659 207.044C35.2609 207.65 35.657 208.109 36.1541 208.421C36.6546 208.732 37.2131 208.888 37.8295 208.888C38.1676 208.888 38.4924 208.842 38.804 208.749C39.1155 208.656 39.3989 208.519 39.6541 208.336C39.9126 208.151 40.1314 207.924 40.3104 207.655C40.4927 207.383 40.6203 207.072 40.6932 206.721H41.9261C41.8333 207.241 41.6643 207.707 41.419 208.118C41.1738 208.529 40.8688 208.878 40.5043 209.167C40.1397 209.452 39.7304 209.669 39.2763 209.818C38.8255 209.967 38.3433 210.042 37.8295 210.042C36.9612 210.042 36.1889 209.829 35.5128 209.405C34.8366 208.981 34.3047 208.378 33.9169 207.596C33.5291 206.813 33.3352 205.885 33.3352 204.811C33.3352 203.738 33.5291 202.81 33.9169 202.027C34.3047 201.245 34.8366 200.642 35.5128 200.218C36.1889 199.793 36.9612 199.581 37.8295 199.581C38.3433 199.581 38.8255 199.656 39.2763 199.805C39.7304 199.954 40.1397 200.173 40.5043 200.461C40.8688 200.746 41.1738 201.094 41.419 201.505C41.6643 201.913 41.8333 202.379 41.9261 202.902ZM46.8617 210.061C46.1723 210.061 45.5674 209.897 45.0471 209.569C44.53 209.241 44.1257 208.782 43.834 208.192C43.5456 207.602 43.4015 206.913 43.4015 206.124C43.4015 205.328 43.5456 204.634 43.834 204.041C44.1257 203.448 44.53 202.987 45.0471 202.659C45.5674 202.331 46.1723 202.167 46.8617 202.167C47.5511 202.167 48.1543 202.331 48.6713 202.659C49.1917 202.987 49.5961 203.448 49.8844 204.041C50.1761 204.634 50.3219 205.328 50.3219 206.124C50.3219 206.913 50.1761 207.602 49.8844 208.192C49.5961 208.782 49.1917 209.241 48.6713 209.569C48.1543 209.897 47.5511 210.061 46.8617 210.061ZM46.8617 209.007C47.3854 209.007 47.8162 208.873 48.1543 208.605C48.4924 208.336 48.7426 207.983 48.905 207.546C49.0674 207.108 49.1486 206.634 49.1486 206.124C49.1486 205.614 49.0674 205.138 48.905 204.697C48.7426 204.256 48.4924 203.9 48.1543 203.628C47.8162 203.356 47.3854 203.221 46.8617 203.221C46.338 203.221 45.9071 203.356 45.5691 203.628C45.231 203.9 44.9808 204.256 44.8184 204.697C44.656 205.138 44.5748 205.614 44.5748 206.124C44.5748 206.634 44.656 207.108 44.8184 207.546C44.9808 207.983 45.231 208.336 45.5691 208.605C45.9071 208.873 46.338 209.007 46.8617 209.007ZM52.1129 212.766V202.266H53.2464V203.479H53.3857C53.4718 203.346 53.5911 203.177 53.7436 202.972C53.8994 202.763 54.1214 202.578 54.4098 202.415C54.7015 202.249 55.0959 202.167 55.593 202.167C56.236 202.167 56.8028 202.327 57.2933 202.649C57.7839 202.97 58.1667 203.426 58.4418 204.016C58.7169 204.606 58.8544 205.302 58.8544 206.104C58.8544 206.913 58.7169 207.614 58.4418 208.207C58.1667 208.797 57.7855 209.254 57.2983 209.579C56.8111 209.901 56.2493 210.061 55.6129 210.061C55.1224 210.061 54.7296 209.98 54.4347 209.818C54.1397 209.652 53.9126 209.465 53.7536 209.256C53.5945 209.044 53.4718 208.868 53.3857 208.729H53.2862V212.766H52.1129ZM53.2663 206.084C53.2663 206.661 53.3509 207.17 53.5199 207.61C53.6889 208.048 53.9358 208.391 54.2607 208.64C54.5855 208.885 54.9832 209.007 55.4538 209.007C55.9444 209.007 56.3537 208.878 56.6818 208.62C57.0133 208.358 57.2618 208.007 57.4276 207.566C57.5966 207.122 57.6811 206.628 57.6811 206.084C57.6811 205.547 57.5982 205.063 57.4325 204.632C57.2701 204.198 57.0232 203.855 56.6918 203.603C56.3636 203.348 55.951 203.221 55.4538 203.221C54.9766 203.221 54.5755 203.342 54.2507 203.583C53.9259 203.822 53.6806 204.157 53.5149 204.588C53.3492 205.015 53.2663 205.514 53.2663 206.084ZM61.1264 212.766C60.9276 212.766 60.7502 212.749 60.5945 212.716C60.4387 212.686 60.331 212.657 60.2713 212.627L60.5696 211.593C60.8546 211.666 61.1065 211.692 61.3253 211.672C61.544 211.652 61.7379 211.555 61.907 211.379C62.0793 211.207 62.2367 210.926 62.3793 210.539L62.598 209.942L59.7741 202.266H61.0469L63.1548 208.351H63.2344L65.3423 202.266H66.6151L63.3736 211.016C63.2277 211.41 63.0471 211.737 62.8317 211.995C62.6162 212.257 62.366 212.451 62.081 212.577C61.7992 212.703 61.4811 212.766 61.1264 212.766ZM68.1637 209.902V202.266H69.2972V203.419H69.3768C69.516 203.042 69.7679 202.735 70.1325 202.5C70.497 202.264 70.908 202.147 71.3654 202.147C71.4516 202.147 71.5593 202.148 71.6886 202.152C71.8178 202.155 71.9156 202.16 71.9819 202.167V203.36C71.9421 203.35 71.851 203.335 71.7085 203.315C71.5692 203.292 71.4218 203.28 71.266 203.28C70.8948 203.28 70.5633 203.358 70.2717 203.514C69.9833 203.666 69.7546 203.878 69.5856 204.15C69.4199 204.419 69.337 204.725 69.337 205.07V209.902H68.1637ZM73.3727 209.902V202.266H74.546V209.902H73.3727ZM73.9693 200.993C73.7406 200.993 73.5434 200.915 73.3777 200.76C73.2153 200.604 73.1341 200.417 73.1341 200.198C73.1341 199.979 73.2153 199.792 73.3777 199.636C73.5434 199.48 73.7406 199.402 73.9693 199.402C74.198 199.402 74.3935 199.48 74.5559 199.636C74.7217 199.792 74.8045 199.979 74.8045 200.198C74.8045 200.417 74.7217 200.604 74.5559 200.76C74.3935 200.915 74.198 200.993 73.9693 200.993ZM79.7773 212.925C79.2106 212.925 78.7234 212.852 78.3157 212.706C77.908 212.564 77.5683 212.375 77.2965 212.14C77.0281 211.908 76.8143 211.659 76.6552 211.394L77.5898 210.738C77.6959 210.877 77.8301 211.036 77.9925 211.215C78.1549 211.397 78.377 211.555 78.6587 211.687C78.9438 211.823 79.3166 211.891 79.7773 211.891C80.3938 211.891 80.9026 211.742 81.3036 211.444C81.7047 211.145 81.9052 210.678 81.9052 210.042V208.49H81.8058C81.7196 208.63 81.5969 208.802 81.4379 209.007C81.2821 209.21 81.0567 209.39 80.7617 209.549C80.4701 209.705 80.0756 209.783 79.5785 209.783C78.962 209.783 78.4085 209.637 77.918 209.346C77.4308 209.054 77.0446 208.63 76.7596 208.073C76.4779 207.516 76.337 206.84 76.337 206.044C76.337 205.262 76.4746 204.581 76.7496 204.001C77.0247 203.418 77.4076 202.967 77.8981 202.649C78.3886 202.327 78.9554 202.167 79.5984 202.167C80.0955 202.167 80.4899 202.249 80.7816 202.415C81.0766 202.578 81.302 202.763 81.4577 202.972C81.6168 203.177 81.7395 203.346 81.8256 203.479H81.945V202.266H83.0785V210.121C83.0785 210.777 82.9293 211.311 82.631 211.722C82.3361 212.136 81.9383 212.44 81.4379 212.632C80.9407 212.827 80.3872 212.925 79.7773 212.925ZM79.7376 208.729C80.2082 208.729 80.6059 208.621 80.9308 208.406C81.2556 208.19 81.5025 207.881 81.6715 207.476C81.8406 207.072 81.9251 206.588 81.9251 206.025C81.9251 205.474 81.8422 204.989 81.6765 204.568C81.5108 204.147 81.2655 203.817 80.9407 203.578C80.6159 203.34 80.2148 203.221 79.7376 203.221C79.2404 203.221 78.8261 203.346 78.4947 203.598C78.1665 203.85 77.9196 204.188 77.7539 204.613C77.5915 205.037 77.5103 205.507 77.5103 206.025C77.5103 206.555 77.5932 207.024 77.7589 207.431C77.9279 207.836 78.1765 208.154 78.5046 208.386C78.8361 208.615 79.247 208.729 79.7376 208.729ZM86.3995 205.309V209.902H85.2262V199.721H86.3995V203.459H86.4989C86.6779 203.065 86.9464 202.752 87.3043 202.52C87.6656 202.284 88.1462 202.167 88.7461 202.167C89.2665 202.167 89.7222 202.271 90.1133 202.48C90.5044 202.685 90.8076 203.002 91.0231 203.429C91.2418 203.854 91.3512 204.394 91.3512 205.05V209.902H90.1779V205.13C90.1779 204.523 90.0205 204.054 89.7056 203.723C89.3941 203.388 88.9615 203.221 88.408 203.221C88.0236 203.221 87.6789 203.302 87.3739 203.464C87.0723 203.627 86.8337 203.864 86.658 204.175C86.4857 204.487 86.3995 204.864 86.3995 205.309ZM96.8187 202.266V203.26H92.8613V202.266H96.8187ZM94.0147 200.436H95.188V207.715C95.188 208.046 95.2361 208.295 95.3322 208.461C95.4316 208.623 95.5576 208.732 95.71 208.789C95.8658 208.842 96.0299 208.868 96.2022 208.868C96.3315 208.868 96.4376 208.862 96.5204 208.848C96.6033 208.832 96.6696 208.819 96.7193 208.809L96.9579 209.863C96.8784 209.892 96.7673 209.922 96.6248 209.952C96.4823 209.985 96.3017 210.002 96.0829 210.002C95.7515 210.002 95.4267 209.931 95.1085 209.788C94.7936 209.645 94.5318 209.428 94.323 209.137C94.1175 208.845 94.0147 208.477 94.0147 208.033V200.436ZM104.947 204.811C104.947 204.268 105.08 203.772 105.345 203.325C105.61 202.877 105.966 202.521 106.414 202.256C106.861 201.991 107.357 201.858 107.9 201.858C108.371 201.858 108.805 201.959 109.203 202.162C109.604 202.364 109.935 202.641 110.197 202.992C110.459 203.34 110.622 203.734 110.684 204.175H109.481C109.415 203.834 109.231 203.555 108.93 203.34C108.628 203.121 108.285 203.012 107.9 203.012C107.569 203.012 107.267 203.093 106.996 203.255C106.724 203.418 106.507 203.635 106.344 203.907C106.182 204.178 106.101 204.48 106.101 204.811C106.101 205.143 106.182 205.444 106.344 205.716C106.507 205.988 106.724 206.205 106.996 206.368C107.267 206.53 107.569 206.611 107.9 206.611C108.285 206.611 108.61 206.503 108.875 206.288C109.143 206.069 109.312 205.789 109.382 205.448H110.585C110.522 205.889 110.368 206.285 110.123 206.636C109.877 206.984 109.563 207.259 109.178 207.461C108.797 207.663 108.371 207.765 107.9 207.765C107.357 207.765 106.861 207.632 106.414 207.367C105.966 207.102 105.61 206.745 105.345 206.298C105.08 205.85 104.947 205.355 104.947 204.811ZM107.851 210.061C107.128 210.061 106.449 209.926 105.812 209.654C105.179 209.382 104.621 209.006 104.137 208.525C103.656 208.041 103.278 207.483 103.003 206.85C102.732 206.217 102.597 205.537 102.601 204.811C102.604 204.086 102.742 203.406 103.013 202.773C103.288 202.14 103.666 201.583 104.147 201.103C104.627 200.619 105.184 200.241 105.817 199.969C106.45 199.697 107.128 199.561 107.851 199.561C108.577 199.561 109.256 199.697 109.889 199.969C110.525 200.241 111.082 200.619 111.559 201.103C112.04 201.583 112.416 202.14 112.688 202.773C112.96 203.406 113.097 204.086 113.101 204.811C113.104 205.537 112.97 206.217 112.698 206.85C112.426 207.483 112.05 208.041 111.569 208.525C111.089 209.006 110.53 209.382 109.894 209.654C109.258 209.926 108.577 210.061 107.851 210.061ZM107.851 208.908C108.417 208.908 108.949 208.802 109.447 208.59C109.944 208.378 110.38 208.084 110.754 207.71C111.129 207.335 111.422 206.901 111.634 206.407C111.846 205.91 111.951 205.38 111.947 204.816C111.944 204.25 111.836 203.718 111.624 203.221C111.412 202.723 111.119 202.288 110.744 201.913C110.37 201.538 109.935 201.245 109.442 201.033C108.948 200.821 108.417 200.715 107.851 200.715C107.287 200.715 106.759 200.821 106.265 201.033C105.771 201.245 105.337 201.54 104.962 201.918C104.588 202.292 104.293 202.728 104.077 203.225C103.865 203.719 103.757 204.25 103.754 204.816C103.751 205.377 103.855 205.905 104.067 206.402C104.279 206.896 104.573 207.33 104.947 207.705C105.325 208.079 105.761 208.374 106.255 208.59C106.752 208.802 107.284 208.908 107.851 208.908ZM119.249 209.902V209.007L122.61 205.328C123.004 204.898 123.329 204.523 123.585 204.205C123.84 203.883 124.029 203.582 124.151 203.3C124.277 203.015 124.34 202.717 124.34 202.405C124.34 202.047 124.254 201.737 124.082 201.475C123.913 201.214 123.681 201.011 123.386 200.869C123.091 200.726 122.759 200.655 122.391 200.655C122 200.655 121.659 200.736 121.367 200.899C121.079 201.058 120.855 201.282 120.696 201.57C120.54 201.858 120.462 202.196 120.462 202.584H119.289C119.289 201.988 119.427 201.464 119.702 201.013C119.977 200.562 120.351 200.211 120.825 199.959C121.303 199.707 121.838 199.581 122.431 199.581C123.028 199.581 123.556 199.707 124.017 199.959C124.478 200.211 124.839 200.551 125.101 200.978C125.363 201.406 125.494 201.882 125.494 202.405C125.494 202.78 125.426 203.146 125.29 203.504C125.157 203.859 124.925 204.255 124.594 204.692C124.266 205.126 123.81 205.657 123.227 206.283L120.94 208.729V208.809H125.673V209.902H119.249ZM131.047 210.042C130.298 210.042 129.66 209.838 129.133 209.43C128.606 209.019 128.203 208.424 127.925 207.645C127.646 206.863 127.507 205.918 127.507 204.811C127.507 203.711 127.646 202.771 127.925 201.993C128.206 201.21 128.611 200.614 129.138 200.203C129.668 199.788 130.304 199.581 131.047 199.581C131.789 199.581 132.424 199.788 132.951 200.203C133.481 200.614 133.886 201.21 134.164 201.993C134.446 202.771 134.587 203.711 134.587 204.811C134.587 205.918 134.447 206.863 134.169 207.645C133.891 208.424 133.488 209.019 132.961 209.43C132.434 209.838 131.796 210.042 131.047 210.042ZM131.047 208.948C131.789 208.948 132.366 208.59 132.777 207.874C133.188 207.158 133.393 206.137 133.393 204.811C133.393 203.93 133.299 203.179 133.11 202.559C132.924 201.94 132.656 201.467 132.305 201.142C131.957 200.818 131.537 200.655 131.047 200.655C130.311 200.655 129.736 201.018 129.322 201.744C128.907 202.467 128.7 203.489 128.7 204.811C128.7 205.693 128.793 206.442 128.979 207.059C129.164 207.675 129.431 208.144 129.779 208.466C130.13 208.787 130.553 208.948 131.047 208.948ZM136.476 209.902V209.007L139.837 205.328C140.231 204.898 140.556 204.523 140.811 204.205C141.066 203.883 141.255 203.582 141.378 203.3C141.504 203.015 141.567 202.717 141.567 202.405C141.567 202.047 141.481 201.737 141.308 201.475C141.139 201.214 140.907 201.011 140.612 200.869C140.317 200.726 139.986 200.655 139.618 200.655C139.227 200.655 138.885 200.736 138.594 200.899C138.305 201.058 138.082 201.282 137.923 201.57C137.767 201.858 137.689 202.196 137.689 202.584H136.516C136.516 201.988 136.653 201.464 136.928 201.013C137.203 200.562 137.578 200.211 138.052 199.959C138.529 199.707 139.064 199.581 139.658 199.581C140.254 199.581 140.783 199.707 141.244 199.959C141.704 200.211 142.066 200.551 142.327 200.978C142.589 201.406 142.72 201.882 142.72 202.405C142.72 202.78 142.652 203.146 142.516 203.504C142.384 203.859 142.152 204.255 141.82 204.692C141.492 205.126 141.036 205.657 140.453 206.283L138.166 208.729V208.809H142.899V209.902H136.476ZM144.495 207.814V206.8L148.969 199.721H149.705V201.292H149.208L145.827 206.641V206.721H151.853V207.814H144.495ZM149.288 209.902V207.506V207.034V199.721H150.461V209.902H149.288ZM158.25 199.721L161.273 208.292H161.392L164.415 199.721H165.708L161.969 209.902H160.696L156.958 199.721H158.25ZM167.294 209.902V199.721H168.526V204.255H173.955V199.721H175.188V209.902H173.955V205.348H168.526V209.902H167.294ZM180.799 209.902H177.657V199.721H180.938C181.926 199.721 182.771 199.924 183.474 200.332C184.176 200.736 184.715 201.318 185.089 202.077C185.464 202.833 185.651 203.738 185.651 204.792C185.651 205.852 185.462 206.765 185.084 207.531C184.706 208.293 184.156 208.88 183.434 209.291C182.711 209.699 181.833 209.902 180.799 209.902ZM178.89 208.809H180.719C181.561 208.809 182.259 208.646 182.812 208.321C183.366 207.997 183.778 207.534 184.05 206.934C184.322 206.334 184.458 205.62 184.458 204.792C184.458 203.97 184.324 203.262 184.055 202.669C183.787 202.072 183.386 201.615 182.852 201.297C182.318 200.975 181.654 200.814 180.858 200.814H178.89V208.809ZM196.31 204.811C196.31 205.885 196.116 206.813 195.729 207.596C195.341 208.378 194.809 208.981 194.133 209.405C193.456 209.829 192.684 210.042 191.816 210.042C190.948 210.042 190.175 209.829 189.499 209.405C188.823 208.981 188.291 208.378 187.903 207.596C187.515 206.813 187.322 205.885 187.322 204.811C187.322 203.738 187.515 202.81 187.903 202.027C188.291 201.245 188.823 200.642 189.499 200.218C190.175 199.793 190.948 199.581 191.816 199.581C192.684 199.581 193.456 199.793 194.133 200.218C194.809 200.642 195.341 201.245 195.729 202.027C196.116 202.81 196.31 203.738 196.31 204.811ZM195.117 204.811C195.117 203.93 194.97 203.186 194.675 202.579C194.383 201.973 193.987 201.514 193.486 201.202C192.989 200.891 192.432 200.735 191.816 200.735C191.199 200.735 190.641 200.891 190.14 201.202C189.643 201.514 189.247 201.973 188.952 202.579C188.661 203.186 188.515 203.93 188.515 204.811C188.515 205.693 188.661 206.437 188.952 207.044C189.247 207.65 189.643 208.109 190.14 208.421C190.641 208.732 191.199 208.888 191.816 208.888C192.432 208.888 192.989 208.732 193.486 208.421C193.987 208.109 194.383 207.65 194.675 207.044C194.97 206.437 195.117 205.693 195.117 204.811ZM198.437 209.982C198.192 209.982 197.981 209.894 197.805 209.718C197.63 209.543 197.542 209.332 197.542 209.087C197.542 208.842 197.63 208.631 197.805 208.456C197.981 208.28 198.192 208.192 198.437 208.192C198.682 208.192 198.893 208.28 199.068 208.456C199.244 208.631 199.332 208.842 199.332 209.087C199.332 209.249 199.29 209.399 199.207 209.534C199.128 209.67 199.02 209.78 198.884 209.863C198.752 209.942 198.603 209.982 198.437 209.982Z" fill="white"/>
</svg>
