<svg width="68" height="69" viewBox="0 0 68 69" fill="none" xmlns="http://www.w3.org/2000/svg">
<rect y="0.886719" width="67.3281" height="67.3281" rx="33.6641" fill="white"/>
<g opacity="0.4">
<path d="M36.6629 33.2431C36.4121 33.5968 36.2866 33.7737 36.3341 33.9489C36.3817 34.124 36.5488 34.204 36.8831 34.364C37.5788 34.697 38.3634 34.8843 39.1935 34.8843C42.0568 34.8843 44.3781 32.6559 44.3781 29.907C44.3781 27.1581 42.0568 24.9297 39.1935 24.9297C38.8812 24.9297 38.5755 24.9562 38.2784 25.007C37.9106 25.0699 37.7267 25.1013 37.6296 25.2566C37.5324 25.4118 37.6012 25.6157 37.7385 26.0236C38.0099 26.8287 38.1566 27.6878 38.1566 28.5797C38.1566 30.3087 37.6056 31.9142 36.6629 33.2431Z" fill="#106840"/>
<path d="M36.6629 33.2431C36.4121 33.5968 36.2866 33.7737 36.3341 33.9489C36.3817 34.124 36.5488 34.204 36.8831 34.364C37.5788 34.697 38.3634 34.8843 39.1935 34.8843C42.0568 34.8843 44.3781 32.6559 44.3781 29.907C44.3781 27.1581 42.0568 24.9297 39.1935 24.9297C38.8812 24.9297 38.5755 24.9562 38.2784 25.007C37.9106 25.0699 37.7267 25.1013 37.6296 25.2566C37.5324 25.4118 37.6012 25.6157 37.7385 26.0236C38.0099 26.8287 38.1566 27.6878 38.1566 28.5797C38.1566 30.3087 37.6056 31.9142 36.6629 33.2431Z" fill="black" fill-opacity="0.2"/>
<path d="M36.6629 33.2431C36.4121 33.5968 36.2866 33.7737 36.3341 33.9489C36.3817 34.124 36.5488 34.204 36.8831 34.364C37.5788 34.697 38.3634 34.8843 39.1935 34.8843C42.0568 34.8843 44.3781 32.6559 44.3781 29.907C44.3781 27.1581 42.0568 24.9297 39.1935 24.9297C38.8812 24.9297 38.5755 24.9562 38.2784 25.007C37.9106 25.0699 37.7267 25.1013 37.6296 25.2566C37.5324 25.4118 37.6012 25.6157 37.7385 26.0236C38.0099 26.8287 38.1566 27.6878 38.1566 28.5797C38.1566 30.3087 37.6056 31.9142 36.6629 33.2431Z" fill="black" fill-opacity="0.2"/>
<path d="M36.6629 33.2431C36.4121 33.5968 36.2866 33.7737 36.3341 33.9489C36.3817 34.124 36.5488 34.204 36.8831 34.364C37.5788 34.697 38.3634 34.8843 39.1935 34.8843C42.0568 34.8843 44.3781 32.6559 44.3781 29.907C44.3781 27.1581 42.0568 24.9297 39.1935 24.9297C38.8812 24.9297 38.5755 24.9562 38.2784 25.007C37.9106 25.0699 37.7267 25.1013 37.6296 25.2566C37.5324 25.4118 37.6012 25.6157 37.7385 26.0236C38.0099 26.8287 38.1566 27.6878 38.1566 28.5797C38.1566 30.3087 37.6056 31.9142 36.6629 33.2431Z" fill="black" fill-opacity="0.2"/>
<path d="M36.6629 33.2431C36.4121 33.5968 36.2866 33.7737 36.3341 33.9489C36.3817 34.124 36.5488 34.204 36.8831 34.364C37.5788 34.697 38.3634 34.8843 39.1935 34.8843C42.0568 34.8843 44.3781 32.6559 44.3781 29.907C44.3781 27.1581 42.0568 24.9297 39.1935 24.9297C38.8812 24.9297 38.5755 24.9562 38.2784 25.007C37.9106 25.0699 37.7267 25.1013 37.6296 25.2566C37.5324 25.4118 37.6012 25.6157 37.7385 26.0236C38.0099 26.8287 38.1566 27.6878 38.1566 28.5797C38.1566 30.3087 37.6056 31.9142 36.6629 33.2431Z" fill="black" fill-opacity="0.2"/>
<path d="M42.9061 45.5063C44.7753 45.5063 46.2292 44.7398 47.4381 43.7829C48.1546 43.2158 48.6241 42.4855 48.5106 41.6239C48.4089 40.8502 47.8642 40.2742 47.3941 39.8921C46.624 39.2658 45.5006 38.7401 44.7928 38.4087C44.6364 38.3356 44.5003 38.2718 44.3928 38.2186C43.0135 37.5362 41.496 37.1145 39.9458 36.9536C38.9462 36.8497 38.4463 36.7979 38.3321 37.0844C38.2178 37.3711 38.6629 37.6781 39.5531 38.2921C39.8912 38.5254 40.2183 38.7752 40.5053 39.0354C41.1515 39.6208 42.0988 40.6744 42.2774 42.1871C42.3602 42.8882 42.2643 43.534 42.0487 44.1175C41.7921 44.8124 41.6636 45.1599 41.7746 45.3244C41.7817 45.335 41.7861 45.3408 41.794 45.3509C41.9186 45.5063 42.2478 45.5063 42.9061 45.5063Z" fill="#106840"/>
<path d="M42.9061 45.5063C44.7753 45.5063 46.2292 44.7398 47.4381 43.7829C48.1546 43.2158 48.6241 42.4855 48.5106 41.6239C48.4089 40.8502 47.8642 40.2742 47.3941 39.8921C46.624 39.2658 45.5006 38.7401 44.7928 38.4087C44.6364 38.3356 44.5003 38.2718 44.3928 38.2186C43.0135 37.5362 41.496 37.1145 39.9458 36.9536C38.9462 36.8497 38.4463 36.7979 38.3321 37.0844C38.2178 37.3711 38.6629 37.6781 39.5531 38.2921C39.8912 38.5254 40.2183 38.7752 40.5053 39.0354C41.1515 39.6208 42.0988 40.6744 42.2774 42.1871C42.3602 42.8882 42.2643 43.534 42.0487 44.1175C41.7921 44.8124 41.6636 45.1599 41.7746 45.3244C41.7817 45.335 41.7861 45.3408 41.794 45.3509C41.9186 45.5063 42.2478 45.5063 42.9061 45.5063Z" fill="black" fill-opacity="0.2"/>
<path d="M42.9061 45.5063C44.7753 45.5063 46.2292 44.7398 47.4381 43.7829C48.1546 43.2158 48.6241 42.4855 48.5106 41.6239C48.4089 40.8502 47.8642 40.2742 47.3941 39.8921C46.624 39.2658 45.5006 38.7401 44.7928 38.4087C44.6364 38.3356 44.5003 38.2718 44.3928 38.2186C43.0135 37.5362 41.496 37.1145 39.9458 36.9536C38.9462 36.8497 38.4463 36.7979 38.3321 37.0844C38.2178 37.3711 38.6629 37.6781 39.5531 38.2921C39.8912 38.5254 40.2183 38.7752 40.5053 39.0354C41.1515 39.6208 42.0988 40.6744 42.2774 42.1871C42.3602 42.8882 42.2643 43.534 42.0487 44.1175C41.7921 44.8124 41.6636 45.1599 41.7746 45.3244C41.7817 45.335 41.7861 45.3408 41.794 45.3509C41.9186 45.5063 42.2478 45.5063 42.9061 45.5063Z" fill="black" fill-opacity="0.2"/>
<path d="M42.9061 45.5063C44.7753 45.5063 46.2292 44.7398 47.4381 43.7829C48.1546 43.2158 48.6241 42.4855 48.5106 41.6239C48.4089 40.8502 47.8642 40.2742 47.3941 39.8921C46.624 39.2658 45.5006 38.7401 44.7928 38.4087C44.6364 38.3356 44.5003 38.2718 44.3928 38.2186C43.0135 37.5362 41.496 37.1145 39.9458 36.9536C38.9462 36.8497 38.4463 36.7979 38.3321 37.0844C38.2178 37.3711 38.6629 37.6781 39.5531 38.2921C39.8912 38.5254 40.2183 38.7752 40.5053 39.0354C41.1515 39.6208 42.0988 40.6744 42.2774 42.1871C42.3602 42.8882 42.2643 43.534 42.0487 44.1175C41.7921 44.8124 41.6636 45.1599 41.7746 45.3244C41.7817 45.335 41.7861 45.3408 41.794 45.3509C41.9186 45.5063 42.2478 45.5063 42.9061 45.5063Z" fill="black" fill-opacity="0.2"/>
<path d="M42.9061 45.5063C44.7753 45.5063 46.2292 44.7398 47.4381 43.7829C48.1546 43.2158 48.6241 42.4855 48.5106 41.6239C48.4089 40.8502 47.8642 40.2742 47.3941 39.8921C46.624 39.2658 45.5006 38.7401 44.7928 38.4087C44.6364 38.3356 44.5003 38.2718 44.3928 38.2186C43.0135 37.5362 41.496 37.1145 39.9458 36.9536C38.9462 36.8497 38.4463 36.7979 38.3321 37.0844C38.2178 37.3711 38.6629 37.6781 39.5531 38.2921C39.8912 38.5254 40.2183 38.7752 40.5053 39.0354C41.1515 39.6208 42.0988 40.6744 42.2774 42.1871C42.3602 42.8882 42.2643 43.534 42.0487 44.1175C41.7921 44.8124 41.6636 45.1599 41.7746 45.3244C41.7817 45.335 41.7861 45.3408 41.794 45.3509C41.9186 45.5063 42.2478 45.5063 42.9061 45.5063Z" fill="black" fill-opacity="0.2"/>
</g>
<path d="M36.3012 38.7092C37.0649 39.1076 38.2628 39.7327 39.0822 40.4752C39.5925 40.9375 40.1201 41.5829 40.2171 42.4034C40.3219 43.2913 39.896 44.0931 39.1307 44.768C37.8464 45.9009 36.2846 46.8257 34.2589 46.8257H24.7766C22.7509 46.8257 21.1892 45.9009 19.9048 44.768C19.1396 44.0931 18.7136 43.2913 18.8185 42.4034C18.9154 41.5829 19.4431 40.9375 19.9533 40.4752C20.7728 39.7327 21.9705 39.1078 22.7341 38.7093C22.9041 38.6207 23.0526 38.5431 23.1706 38.4781C27.0578 36.3354 31.9777 36.3354 35.8649 38.4781C35.9828 38.5431 36.1313 38.6205 36.3012 38.7092Z" fill="#106840"/>
<path d="M36.3012 38.7092C37.0649 39.1076 38.2628 39.7327 39.0822 40.4752C39.5925 40.9375 40.1201 41.5829 40.2171 42.4034C40.3219 43.2913 39.896 44.0931 39.1307 44.768C37.8464 45.9009 36.2846 46.8257 34.2589 46.8257H24.7766C22.7509 46.8257 21.1892 45.9009 19.9048 44.768C19.1396 44.0931 18.7136 43.2913 18.8185 42.4034C18.9154 41.5829 19.4431 40.9375 19.9533 40.4752C20.7728 39.7327 21.9705 39.1078 22.7341 38.7093C22.9041 38.6207 23.0526 38.5431 23.1706 38.4781C27.0578 36.3354 31.9777 36.3354 35.8649 38.4781C35.9828 38.5431 36.1313 38.6205 36.3012 38.7092Z" fill="black" fill-opacity="0.2"/>
<path d="M36.3012 38.7092C37.0649 39.1076 38.2628 39.7327 39.0822 40.4752C39.5925 40.9375 40.1201 41.5829 40.2171 42.4034C40.3219 43.2913 39.896 44.0931 39.1307 44.768C37.8464 45.9009 36.2846 46.8257 34.2589 46.8257H24.7766C22.7509 46.8257 21.1892 45.9009 19.9048 44.768C19.1396 44.0931 18.7136 43.2913 18.8185 42.4034C18.9154 41.5829 19.4431 40.9375 19.9533 40.4752C20.7728 39.7327 21.9705 39.1078 22.7341 38.7093C22.9041 38.6207 23.0526 38.5431 23.1706 38.4781C27.0578 36.3354 31.9777 36.3354 35.8649 38.4781C35.9828 38.5431 36.1313 38.6205 36.3012 38.7092Z" fill="black" fill-opacity="0.2"/>
<path d="M36.3012 38.7092C37.0649 39.1076 38.2628 39.7327 39.0822 40.4752C39.5925 40.9375 40.1201 41.5829 40.2171 42.4034C40.3219 43.2913 39.896 44.0931 39.1307 44.768C37.8464 45.9009 36.2846 46.8257 34.2589 46.8257H24.7766C22.7509 46.8257 21.1892 45.9009 19.9048 44.768C19.1396 44.0931 18.7136 43.2913 18.8185 42.4034C18.9154 41.5829 19.4431 40.9375 19.9533 40.4752C20.7728 39.7327 21.9705 39.1078 22.7341 38.7093C22.9041 38.6207 23.0526 38.5431 23.1706 38.4781C27.0578 36.3354 31.9777 36.3354 35.8649 38.4781C35.9828 38.5431 36.1313 38.6205 36.3012 38.7092Z" fill="black" fill-opacity="0.2"/>
<path d="M36.3012 38.7092C37.0649 39.1076 38.2628 39.7327 39.0822 40.4752C39.5925 40.9375 40.1201 41.5829 40.2171 42.4034C40.3219 43.2913 39.896 44.0931 39.1307 44.768C37.8464 45.9009 36.2846 46.8257 34.2589 46.8257H24.7766C22.7509 46.8257 21.1892 45.9009 19.9048 44.768C19.1396 44.0931 18.7136 43.2913 18.8185 42.4034C18.9154 41.5829 19.4431 40.9375 19.9533 40.4752C20.7728 39.7327 21.9705 39.1078 22.7341 38.7093C22.9041 38.6207 23.0526 38.5431 23.1706 38.4781C27.0578 36.3354 31.9777 36.3354 35.8649 38.4781C35.9828 38.5431 36.1313 38.6205 36.3012 38.7092Z" fill="black" fill-opacity="0.2"/>
<path d="M22.9492 28.578C22.9492 25.0961 25.8894 22.2734 29.5163 22.2734C33.1433 22.2734 36.0834 25.0961 36.0834 28.578C36.0834 32.0599 33.1433 34.8826 29.5163 34.8826C25.8894 34.8826 22.9492 32.0599 22.9492 28.578Z" fill="#106840"/>
<path d="M22.9492 28.578C22.9492 25.0961 25.8894 22.2734 29.5163 22.2734C33.1433 22.2734 36.0834 25.0961 36.0834 28.578C36.0834 32.0599 33.1433 34.8826 29.5163 34.8826C25.8894 34.8826 22.9492 32.0599 22.9492 28.578Z" fill="black" fill-opacity="0.2"/>
<path d="M22.9492 28.578C22.9492 25.0961 25.8894 22.2734 29.5163 22.2734C33.1433 22.2734 36.0834 25.0961 36.0834 28.578C36.0834 32.0599 33.1433 34.8826 29.5163 34.8826C25.8894 34.8826 22.9492 32.0599 22.9492 28.578Z" fill="black" fill-opacity="0.2"/>
<path d="M22.9492 28.578C22.9492 25.0961 25.8894 22.2734 29.5163 22.2734C33.1433 22.2734 36.0834 25.0961 36.0834 28.578C36.0834 32.0599 33.1433 34.8826 29.5163 34.8826C25.8894 34.8826 22.9492 32.0599 22.9492 28.578Z" fill="black" fill-opacity="0.2"/>
<path d="M22.9492 28.578C22.9492 25.0961 25.8894 22.2734 29.5163 22.2734C33.1433 22.2734 36.0834 25.0961 36.0834 28.578C36.0834 32.0599 33.1433 34.8826 29.5163 34.8826C25.8894 34.8826 22.9492 32.0599 22.9492 28.578Z" fill="black" fill-opacity="0.2"/>
</svg>
