<svg width="24" height="25" viewBox="0 0 24 25" fill="none" xmlns="http://www.w3.org/2000/svg">
<g opacity="0.4">
<path d="M14.3207 11.8898C14.1266 12.1635 14.0295 12.3004 14.0663 12.4359C14.1031 12.5714 14.2324 12.6333 14.4911 12.7571C15.0294 13.0148 15.6365 13.1597 16.2788 13.1597C18.4944 13.1597 20.2906 11.4354 20.2906 9.30838C20.2906 7.18134 18.4944 5.45703 16.2788 5.45703C16.0372 5.45703 15.8006 5.47753 15.5707 5.51683C15.2861 5.56549 15.1438 5.58982 15.0687 5.70996C14.9935 5.8301 15.0467 5.98789 15.153 6.30347C15.363 6.92649 15.4765 7.5912 15.4765 8.28135C15.4765 9.61925 15.0501 10.8615 14.3207 11.8898Z" fill="black"/>
<path d="M19.1506 21.381C20.597 21.381 21.722 20.7879 22.6574 20.0475C23.2118 19.6087 23.5751 19.0436 23.4873 18.3769C23.4086 17.7782 22.9871 17.3325 22.6234 17.0368C22.0275 16.5522 21.1582 16.1454 20.6105 15.889C20.4895 15.8324 20.3842 15.7831 20.301 15.7419C19.2337 15.2139 18.0595 14.8876 16.86 14.7631C16.0865 14.6827 15.6997 14.6426 15.6113 14.8643C15.5229 15.0861 15.8673 15.3237 16.5561 15.7988C16.8177 15.9793 17.0708 16.1726 17.2929 16.3739C17.7929 16.8269 18.5259 17.6422 18.6641 18.8127C18.7282 19.3552 18.654 19.8549 18.4872 20.3064C18.2886 20.8441 18.1892 21.113 18.2751 21.2403C18.2806 21.2485 18.284 21.253 18.2901 21.2608C18.3865 21.381 18.6412 21.381 19.1506 21.381Z" fill="black"/>
</g>
<path d="M14.0401 16.1215C14.631 16.4298 15.5579 16.9135 16.192 17.488C16.5868 17.8457 16.9951 18.3451 17.0701 18.98C17.1512 19.6671 16.8217 20.2875 16.2295 20.8097C15.2357 21.6863 14.0272 22.4019 12.4598 22.4019H5.12247C3.55506 22.4019 2.34661 21.6863 1.35274 20.8097C0.760633 20.2875 0.431036 19.6671 0.512166 18.98C0.587143 18.3451 0.995532 17.8457 1.39032 17.488C2.02438 16.9135 2.95118 16.4299 3.54205 16.1216C3.67361 16.053 3.78851 15.993 3.87983 15.9427C6.88769 14.2847 10.6946 14.2847 13.7025 15.9427C13.7937 15.993 13.9086 16.0529 14.0401 16.1215Z" fill="#515151"/>
<path d="M3.70898 8.28072C3.70898 5.58646 5.98406 3.40234 8.79051 3.40234C11.597 3.40234 13.872 5.58646 13.872 8.28072C13.872 10.9749 11.597 13.1591 8.79051 13.1591C5.98406 13.1591 3.70898 10.9749 3.70898 8.28072Z" fill="#515151"/>
</svg>
