<svg width="69" height="69" viewBox="0 0 69 69" fill="none" xmlns="http://www.w3.org/2000/svg">
<rect x="0.984375" y="0.886719" width="67.3281" height="67.3281" rx="33.6641" fill="white"/>
<path d="M27.0097 38.4296C26.5207 37.3303 26.248 36.1074 26.248 34.8187C26.248 30.0324 30.009 26.1523 34.6483 26.1523C39.2877 26.1523 43.0486 30.0324 43.0486 34.8187C43.0486 36.1074 42.7759 37.3303 42.2869 38.4296" fill="#B0FAFF"/>
<path d="M27.0097 38.4296C26.5207 37.3303 26.248 36.1074 26.248 34.8187C26.248 30.0324 30.009 26.1523 34.6483 26.1523C39.2877 26.1523 43.0486 30.0324 43.0486 34.8187C43.0486 36.1074 42.7759 37.3303 42.2869 38.4296" stroke="#141B34" strokeWidth="1.5" strokeLinecap="round"/>
<path d="M34.6484 21.6289V22.9213V21.6289Z" fill="#B0FAFF"/>
<path d="M34.6484 21.6289V22.9213" stroke="#2E313B" strokeWidth="1.5" strokeLinecap="round" strokeLinejoin="round"/>
<path d="M47.5716 34.5508H46.2793" stroke="#2E313B" strokeWidth="1.5" strokeLinecap="round" strokeLinejoin="round"/>
<path d="M23.017 34.5508H21.7246" stroke="#2E313B" strokeWidth="1.5" strokeLinecap="round" strokeLinejoin="round"/>
<path d="M43.7869 25.4102L42.873 26.324" stroke="#2E313B" strokeWidth="1.5" strokeLinecap="round" strokeLinejoin="round"/>
<path d="M26.4256 26.3279L25.5117 25.4141" stroke="#2E313B" strokeWidth="1.5" strokeLinecap="round" strokeLinejoin="round"/>
<path d="M37.9015 43.9885C39.2073 43.5661 39.7309 42.3709 39.8782 41.1687C39.9222 40.8097 39.6268 40.5117 39.2649 40.5117L30.0955 40.512C29.7212 40.5121 29.4207 40.8296 29.4654 41.2013C29.6096 42.401 29.9738 43.2775 31.3576 43.9885M37.9015 43.9885C37.9015 43.9885 31.5854 43.9885 31.3576 43.9885M37.9015 43.9885C37.7445 46.5021 37.0185 47.4975 34.6574 47.4696C32.1319 47.5162 31.5509 46.2858 31.3576 43.9885" stroke="#141B34" strokeWidth="1.5" strokeLinecap="round" strokeLinejoin="round"/>
<path d="M26.6786 35.8397L26.5088 35.5399C26.3804 35.3132 26.3162 35.1998 26.2069 35.1546C26.0977 35.1094 25.9741 35.1451 25.727 35.2164L25.3073 35.3367C25.1495 35.3737 24.984 35.3527 24.8399 35.2774L24.724 35.2094C24.6005 35.1289 24.5055 35.0102 24.4529 34.8707L24.338 34.5216C24.2625 34.2906 24.2247 34.1751 24.1348 34.109C24.0449 34.043 23.9254 34.043 23.6865 34.043H23.3031C23.0642 34.043 22.9447 34.043 22.8548 34.109C22.7649 34.1751 22.7271 34.2906 22.6516 34.5216L22.5367 34.8707C22.4841 35.0102 22.3891 35.1289 22.2656 35.2094L22.1497 35.2774C22.0056 35.3527 21.8401 35.3737 21.6823 35.3367L21.2625 35.2164C21.0154 35.1451 20.8919 35.1094 20.7826 35.1546C20.6734 35.1998 20.6092 35.3132 20.4807 35.5399L20.3109 35.8397C20.1906 36.0523 20.1304 36.1585 20.1421 36.2717C20.1537 36.3848 20.2343 36.4759 20.3955 36.6583L20.7502 37.0617C20.8368 37.1734 20.8984 37.368 20.8984 37.5429C20.8984 37.718 20.8369 37.9125 20.7502 38.0242L20.3955 38.4277C20.2343 38.6099 20.1537 38.7011 20.1421 38.8142C20.1304 38.9274 20.1906 39.0337 20.3109 39.2462L20.4807 39.546C20.6092 39.7727 20.6734 39.8861 20.7826 39.9313C20.8919 39.9765 21.0154 39.9408 21.2626 39.8695L21.6823 39.7492C21.8401 39.7122 22.0057 39.7332 22.1497 39.8085L22.2656 39.8765C22.3891 39.957 22.4841 40.0757 22.5367 40.2152L22.6516 40.5643C22.7271 40.7953 22.7649 40.9108 22.8548 40.9769C22.9447 41.043 23.0642 41.043 23.3031 41.043H23.6865C23.9254 41.043 24.0449 41.043 24.1348 40.9769C24.2247 40.9108 24.2625 40.7953 24.338 40.5643L24.4529 40.2152C24.5055 40.0757 24.6004 39.957 24.724 39.8765L24.8398 39.8085C24.9839 39.7332 25.1495 39.7122 25.3073 39.7492L25.727 39.8695C25.9741 39.9408 26.0977 39.9765 26.2069 39.9313C26.3162 39.8861 26.3804 39.7727 26.5089 39.546L26.6786 39.2462C26.799 39.0337 26.8592 38.9274 26.8475 38.8142C26.8358 38.7011 26.7553 38.6099 26.5941 38.4277L26.2394 38.0242C26.1527 37.9125 26.0912 37.718 26.0912 37.5429C26.0912 37.368 26.1527 37.1734 26.2394 37.0617L26.5941 36.6583C26.7553 36.4759 26.8358 36.3848 26.8475 36.2717C26.8592 36.1585 26.799 36.0523 26.6786 35.8397Z" stroke="#2E313B" strokeLinecap="round"/>
<path d="M23.4954 38.5651C24.0592 38.5651 24.5163 38.1081 24.5163 37.5443C24.5163 36.9805 24.0592 36.5234 23.4954 36.5234C22.9317 36.5234 22.4746 36.9805 22.4746 37.5443C22.4746 38.1081 22.9317 38.5651 23.4954 38.5651Z" stroke="#2E313B"/>
</svg>
