<svg width="173" height="174" viewBox="0 0 173 174" fill="none" xmlns="http://www.w3.org/2000/svg">
<path d="M45.2913 126.883C45.2913 126.883 11.1411 111.936 12.8365 91.7988C14.5665 71.6616 26.0191 66.0218 28.3373 49.7944C30.6555 33.5324 36.9181 12.461 57.6089 19.0696C78.2997 25.6782 95.2537 23.9828 112.138 21.8722C129.023 19.7616 161.167 19.0004 157.672 53.1506C154.212 87.3008 161.097 118.51 117.571 126.883C74.0439 135.256 45.2913 126.883 45.2913 126.883Z" fill="#E2D8C9"/>
<path d="M117.57 28.7227H40.4121V93.3901H117.57V28.7227Z" fill="#C9BFB1" stroke="#F0EBD6" stroke-width="0.382468" stroke-miterlimit="10"/>
<path d="M117.57 30.3477H40.4121V32.8043H117.57V30.3477Z" fill="#FFF6E7"/>
<path d="M117.57 34.293H40.4121V36.7496H117.57V34.293Z" fill="#FFF6E7"/>
<path d="M117.57 38.2031H40.4121V40.6597H117.57V38.2031Z" fill="#FFF6E7"/>
<path d="M117.57 42.1133H40.4121V44.5699H117.57V42.1133Z" fill="#FFF6E7"/>
<path d="M117.57 46.0234H40.4121V48.48H117.57V46.0234Z" fill="#FFF6E7"/>
<path d="M117.57 49.9336H40.4121V52.3902H117.57V49.9336Z" fill="#FFF6E7"/>
<path d="M117.57 53.8398H40.4121V56.2964H117.57V53.8398Z" fill="#FFF6E7"/>
<path d="M40.6543 93.2137V73.7685H46.7439V81.0345H52.9027V62.6273H62.7291V72.7997H69.3377V89.5461H76.4307V67.2291H82.5895V76.6403H88.9905V85.2903H96.7409V61.5547H108.401V83.5603H113.868V93.2137H40.6543Z" fill="#B2A593"/>
<path d="M42.5586 122.14C42.5586 122.14 48.579 123.974 50.655 115.047C46.849 118.368 42.5586 122.14 42.5586 122.14Z" fill="#647761"/>
<path d="M42.5581 122.14C42.5581 122.14 41.5547 115.946 50.6545 115.047C46.8485 118.368 42.5581 122.14 42.5581 122.14Z" fill="#647761"/>
<path d="M42.5586 122.141C42.9392 121.656 43.389 121.241 43.8042 120.791C44.254 120.376 44.7038 119.961 45.1536 119.546C45.6034 119.131 46.0878 118.75 46.5722 118.369C47.0566 117.989 47.541 117.643 48.06 117.297C47.6794 117.781 47.2296 118.196 46.8144 118.646C46.3646 119.061 45.9148 119.477 45.465 119.892C45.0152 120.272 44.5308 120.688 44.0464 121.068C43.562 121.449 43.0776 121.795 42.5586 122.141Z" fill="#3B5B32"/>
<path d="M42.3164 122.279C42.3164 122.279 38.4412 117.331 31.625 123.455C36.642 122.901 42.3164 122.279 42.3164 122.279Z" fill="#647761"/>
<path d="M42.3164 122.277C42.3164 122.277 39.583 127.917 31.625 123.454C36.642 122.9 42.3164 122.277 42.3164 122.277Z" fill="#647761"/>
<path d="M42.3168 122.277C41.7286 122.45 41.1058 122.554 40.5176 122.658C39.9294 122.762 39.3066 122.831 38.7184 122.9C38.1302 122.969 37.5074 123.004 36.8846 123.039C36.2618 123.073 35.6736 123.073 35.0508 123.073C35.639 122.9 36.2618 122.796 36.85 122.693C37.4382 122.589 38.061 122.52 38.6492 122.45C39.2374 122.381 39.8602 122.347 40.483 122.312C41.1058 122.277 41.7286 122.277 42.3168 122.277Z" fill="#3B5B32"/>
<path d="M36.0876 108.857C36.0876 108.857 33.7002 103.044 25.5 107.057C30.4478 107.922 36.0876 108.857 36.0876 108.857Z" fill="#647761"/>
<path d="M36.0876 108.858C36.0876 108.858 31.9356 113.563 25.5 107.059C30.4478 107.924 36.0876 108.858 36.0876 108.858Z" fill="#647761"/>
<path d="M36.0874 108.856C35.4646 108.856 34.8764 108.786 34.2536 108.717C33.6308 108.648 33.0426 108.544 32.4544 108.475C31.8662 108.371 31.2434 108.267 30.6552 108.129C30.067 107.991 29.4788 107.852 28.8906 107.645C29.5134 107.645 30.1016 107.714 30.7244 107.783C31.3472 107.852 31.9354 107.956 32.5236 108.025C33.1118 108.129 33.7346 108.233 34.3228 108.371C34.911 108.51 35.4992 108.683 36.0874 108.856Z" fill="#3B5B32"/>
<path d="M36.3301 108.542C36.3301 108.542 42.3505 110.376 44.4265 101.449C40.6205 104.771 36.3301 108.542 36.3301 108.542Z" fill="#647761"/>
<path d="M36.3296 108.542C36.3296 108.542 35.3262 102.349 44.426 101.449C40.62 104.771 36.3296 108.542 36.3296 108.542Z" fill="#647761"/>
<path d="M36.3301 108.539C36.7107 108.055 37.1605 107.64 37.5757 107.19C38.0255 106.775 38.4753 106.36 38.9251 105.944C39.3749 105.529 39.8593 105.149 40.3437 104.768C40.8281 104.387 41.3125 104.041 41.8315 103.695C41.4509 104.18 41.0011 104.595 40.5859 105.045C40.1361 105.46 39.6863 105.875 39.2365 106.29C38.7867 106.671 38.3023 107.086 37.8179 107.467C37.3335 107.847 36.8491 108.228 36.3301 108.539Z" fill="#3B5B32"/>
<path d="M39.4453 116.222C39.4453 116.222 45.4657 118.056 47.5417 109.129C43.7357 112.451 39.4453 116.222 39.4453 116.222Z" fill="#647761"/>
<path d="M39.4449 116.222C39.4449 116.222 38.4415 110.029 47.5413 109.129C43.7353 112.451 39.4449 116.222 39.4449 116.222Z" fill="#647761"/>
<path d="M39.4453 116.223C39.8259 115.739 40.2757 115.323 40.6909 114.874C41.1407 114.458 41.5905 114.043 42.0403 113.628C42.4901 113.213 42.9745 112.832 43.4589 112.452C43.9433 112.071 44.4277 111.725 44.9467 111.379C44.5661 111.863 44.1163 112.279 43.7011 112.728C43.2513 113.144 42.8015 113.559 42.3517 113.974C41.9019 114.355 41.4175 114.77 40.9331 115.15C40.4487 115.531 39.9643 115.912 39.4453 116.223Z" fill="#3B5B32"/>
<path d="M39.0639 116.292C39.0639 116.292 36.1575 110.722 28.3379 115.462C33.3549 115.842 39.0639 116.292 39.0639 116.292Z" fill="#647761"/>
<path d="M39.0639 116.291C39.0639 116.291 35.3617 121.343 28.3379 115.461C33.3549 115.842 39.0639 116.291 39.0639 116.291Z" fill="#647761"/>
<path d="M39.0648 116.291C38.442 116.326 37.8538 116.326 37.231 116.326C36.6082 116.326 36.02 116.291 35.3972 116.222C34.7744 116.188 34.1862 116.118 33.598 116.049C33.0098 115.98 32.387 115.876 31.7988 115.738C32.4216 115.703 33.0098 115.703 33.6326 115.703C34.2554 115.703 34.8436 115.738 35.4664 115.807C36.0892 115.842 36.6774 115.911 37.2656 116.015C37.8538 116.049 38.4766 116.153 39.0648 116.291Z" fill="#3B5B32"/>
<path d="M50.2386 134.668C50.2386 134.668 36.8138 119.271 33.4922 99.4453C34.1842 99.4453 34.1842 99.4453 34.1842 99.4453C34.1842 99.4453 36.9522 118.821 51.2766 133.284C52.0724 135.256 50.2386 134.668 50.2386 134.668Z" fill="#475644"/>
<path d="M34.4959 102.937C34.4959 102.937 38.8901 98.4395 31.9355 92.4883C33.1465 97.3669 34.4959 102.937 34.4959 102.937Z" fill="#647761"/>
<path d="M34.4954 102.937C34.4954 102.937 28.5442 100.965 31.935 92.4883C33.146 97.3669 34.4954 102.937 34.4954 102.937Z" fill="#647761"/>
<path d="M34.4951 102.937C34.2529 102.383 34.0799 101.795 33.8723 101.207C33.6993 100.619 33.5263 100.03 33.3879 99.4421C33.2495 98.8539 33.1111 98.2658 33.0073 97.643C32.9035 97.0548 32.7997 96.4319 32.7305 95.8438C32.9727 96.3974 33.1457 96.9855 33.3533 97.5737C33.5263 98.1619 33.6993 98.7502 33.8377 99.3384C33.9761 99.9266 34.1145 100.515 34.2183 101.138C34.3567 101.726 34.4605 102.314 34.4951 102.937Z" fill="#3B5B32"/>
<path d="M47.0898 141.759C47.0898 141.759 41.277 145.115 34.2532 141.379C27.2294 137.642 21.5896 136.119 16.6418 137.642C11.694 139.164 15.0848 123.421 31.2084 128.092C47.3666 132.798 49.6502 138.23 49.6502 138.23L47.0898 141.759Z" fill="#475644"/>
<path d="M17.2988 133.143C17.2988 133.143 27.0906 126.015 45.2556 138.817" stroke="#242D21" stroke-width="0.225004" stroke-miterlimit="10"/>
<path d="M20.8984 136.361C20.8984 136.361 22.317 132.278 28.1644 131.344" stroke="#242D21" stroke-width="0.225004" stroke-miterlimit="10"/>
<path d="M32.2806 132.245C32.2806 132.245 30.4122 130.1 27.9902 128.059" stroke="#29593E" stroke-width="0.225004" stroke-miterlimit="10"/>
<path d="M38.3024 134.629C38.3024 134.629 33.2162 134.525 29.168 137.882" stroke="#242D21" stroke-width="0.225004" stroke-miterlimit="10"/>
<path d="M42.5225 137.018C42.5225 137.018 41.6229 133.8 39.0625 131.551" stroke="#29593E" stroke-width="0.225004" stroke-miterlimit="10"/>
<path d="M46.7095 137.436C46.7095 137.436 39.7549 139.339 33.4923 133.526C27.2297 127.713 21.7975 124.599 16.2269 124.841C10.6563 125.083 18.5105 109.617 33.9767 118.925C49.4775 128.232 50.3771 134.495 50.3771 134.495L46.7095 137.436Z" fill="#92A68F"/>
<path d="M18.1309 120.341C18.1309 120.341 30.2409 115.635 45.6033 133.904" stroke="#22351B" stroke-width="0.228222" stroke-miterlimit="10"/>
<path d="M20.9668 124.669C20.9668 124.669 23.5618 120.828 29.8936 121.486" stroke="#22351B" stroke-width="0.228222" stroke-miterlimit="10"/>
<path d="M33.9427 123.528C33.9427 123.528 32.5933 120.795 30.6211 117.992" stroke="#22351B" stroke-width="0.228222" stroke-miterlimit="10"/>
<path d="M39.548 127.646C39.548 127.646 34.2888 126.124 29.168 128.511" stroke="#22351B" stroke-width="0.228222" stroke-miterlimit="10"/>
<path d="M43.285 131.241C43.285 131.241 43.2504 127.642 41.209 124.598" stroke="#22351B" stroke-width="0.228222" stroke-miterlimit="10"/>
<path d="M135.253 122.691C135.253 122.691 129.232 124.524 127.156 115.598C130.928 118.919 135.253 122.691 135.253 122.691Z" fill="#647761"/>
<path d="M135.253 122.691C135.253 122.691 136.256 116.497 127.156 115.598C130.928 118.919 135.253 122.691 135.253 122.691Z" fill="#647761"/>
<path d="M135.253 122.688C134.734 122.342 134.25 121.996 133.766 121.615C133.281 121.235 132.831 120.854 132.347 120.439C131.897 120.024 131.447 119.643 130.998 119.193C130.548 118.778 130.133 118.328 129.752 117.844C130.271 118.19 130.755 118.536 131.24 118.916C131.724 119.297 132.174 119.678 132.658 120.093C133.108 120.508 133.558 120.889 134.008 121.338C134.423 121.788 134.838 122.203 135.253 122.688Z" fill="#3B5B32"/>
<path d="M135.459 122.829C135.459 122.829 139.334 117.882 146.15 124.006C141.168 123.452 135.459 122.829 135.459 122.829Z" fill="#647761"/>
<path d="M135.459 122.828C135.459 122.828 138.192 128.468 146.15 124.005C141.168 123.451 135.459 122.828 135.459 122.828Z" fill="#647761"/>
<path d="M135.459 122.827C136.082 122.792 136.67 122.827 137.293 122.861C137.916 122.896 138.504 122.965 139.127 123C139.715 123.069 140.338 123.138 140.926 123.242C141.514 123.346 142.137 123.45 142.725 123.623C142.102 123.657 141.514 123.623 140.891 123.588C140.268 123.553 139.68 123.484 139.057 123.45C138.469 123.38 137.846 123.311 137.258 123.207C136.635 123.104 136.047 123 135.459 122.827Z" fill="#3B5B32"/>
<path d="M141.688 109.407C141.688 109.407 144.075 103.595 152.275 107.608C147.327 108.473 141.688 109.407 141.688 109.407Z" fill="#647761"/>
<path d="M141.688 109.409C141.688 109.409 145.84 114.114 152.275 107.609C147.327 108.474 141.688 109.409 141.688 109.409Z" fill="#647761"/>
<path d="M141.688 109.406C142.276 109.199 142.864 109.06 143.452 108.922C144.04 108.784 144.628 108.68 145.251 108.576C145.839 108.472 146.462 108.368 147.051 108.334C147.639 108.265 148.261 108.195 148.884 108.195C148.296 108.403 147.708 108.541 147.12 108.68C146.532 108.818 145.943 108.922 145.321 109.026C144.732 109.13 144.109 109.233 143.521 109.268C142.933 109.372 142.31 109.406 141.688 109.406Z" fill="#3B5B32"/>
<path d="M141.481 109.093C141.481 109.093 135.461 110.927 133.385 102C137.156 105.322 141.481 109.093 141.481 109.093Z" fill="#647761"/>
<path d="M141.481 109.093C141.481 109.093 142.485 102.9 133.385 102C137.156 105.322 141.481 109.093 141.481 109.093Z" fill="#647761"/>
<path d="M141.482 109.09C140.963 108.744 140.478 108.398 139.994 108.017C139.51 107.637 139.06 107.256 138.575 106.841C138.126 106.426 137.676 106.045 137.226 105.595C136.776 105.18 136.361 104.73 135.98 104.246C136.499 104.592 136.984 104.938 137.468 105.319C137.953 105.699 138.402 106.08 138.887 106.495C139.337 106.91 139.786 107.291 140.236 107.741C140.651 108.19 141.067 108.64 141.482 109.09Z" fill="#3B5B32"/>
<path d="M138.366 116.773C138.366 116.773 132.346 118.606 130.27 109.68C134.041 113.001 138.366 116.773 138.366 116.773Z" fill="#647761"/>
<path d="M138.366 116.773C138.366 116.773 139.369 110.579 130.27 109.68C134.041 113.001 138.366 116.773 138.366 116.773Z" fill="#647761"/>
<path d="M138.367 116.774C137.848 116.428 137.363 116.082 136.879 115.701C136.394 115.32 135.945 114.94 135.46 114.525C135.01 114.109 134.561 113.729 134.111 113.279C133.661 112.864 133.246 112.414 132.865 111.93C133.384 112.276 133.869 112.622 134.353 113.002C134.837 113.383 135.287 113.763 135.772 114.179C136.221 114.594 136.671 114.974 137.121 115.424C137.536 115.874 137.951 116.324 138.367 116.774Z" fill="#3B5B32"/>
<path d="M138.713 116.843C138.713 116.843 141.619 111.272 149.439 116.013C144.422 116.393 138.713 116.843 138.713 116.843Z" fill="#647761"/>
<path d="M138.713 116.842C138.713 116.842 142.415 121.894 149.439 116.012C144.422 116.392 138.713 116.842 138.713 116.842Z" fill="#647761"/>
<path d="M138.713 116.845C139.301 116.707 139.924 116.603 140.512 116.534C141.1 116.465 141.723 116.396 142.311 116.326C142.934 116.292 143.522 116.257 144.145 116.223C144.768 116.223 145.356 116.223 145.979 116.257C145.391 116.396 144.768 116.499 144.18 116.569C143.591 116.638 142.969 116.707 142.38 116.742C141.758 116.776 141.169 116.811 140.547 116.845C139.958 116.915 139.336 116.88 138.713 116.845Z" fill="#3B5B32"/>
<path d="M127.536 135.219C127.536 135.219 140.961 119.822 144.283 99.9961C143.591 99.9961 143.591 99.9961 143.591 99.9961C143.591 99.9961 140.823 119.372 126.498 133.835C125.737 135.807 127.536 135.219 127.536 135.219Z" fill="#475644"/>
<path d="M143.28 103.488C143.28 103.488 138.885 98.9903 145.84 93.0391C144.629 97.9177 143.28 103.488 143.28 103.488Z" fill="#647761"/>
<path d="M143.279 103.488C143.279 103.488 149.23 101.516 145.84 93.0391C144.629 97.9177 143.279 103.488 143.279 103.488Z" fill="#647761"/>
<path d="M143.279 103.488C143.348 102.865 143.418 102.277 143.556 101.688C143.66 101.1 143.798 100.512 143.937 99.8891C144.075 99.3009 144.248 98.7127 144.421 98.1245C144.594 97.5363 144.802 96.9481 145.044 96.3945C144.975 97.0173 144.905 97.6055 144.767 98.1937C144.663 98.7819 144.525 99.3701 144.386 99.9929C144.248 100.581 144.075 101.169 143.902 101.758C143.729 102.346 143.521 102.934 143.279 103.488Z" fill="#3B5B32"/>
<path d="M130.719 142.31C130.719 142.31 136.531 145.666 143.555 141.929C150.579 138.193 156.219 136.67 161.167 138.193C166.114 139.715 162.724 123.972 146.6 128.643C130.442 133.349 128.158 138.781 128.158 138.781L130.719 142.31Z" fill="#475644"/>
<path d="M160.474 133.693C160.474 133.693 150.683 126.566 132.518 139.368" stroke="#242D21" stroke-width="0.225004" stroke-miterlimit="10"/>
<path d="M156.911 136.912C156.911 136.912 155.492 132.829 149.645 131.895" stroke="#242D21" stroke-width="0.225004" stroke-miterlimit="10"/>
<path d="M145.492 132.796C145.492 132.796 147.361 130.651 149.783 128.609" stroke="#29593E" stroke-width="0.225004" stroke-miterlimit="10"/>
<path d="M139.473 135.18C139.473 135.18 144.559 135.076 148.607 138.432" stroke="#242D21" stroke-width="0.225004" stroke-miterlimit="10"/>
<path d="M135.252 137.568C135.252 137.568 136.152 134.351 138.712 132.102" stroke="#29593E" stroke-width="0.225004" stroke-miterlimit="10"/>
<path d="M131.099 137.986C131.099 137.986 138.054 139.889 144.316 134.077C150.579 128.264 156.011 125.15 161.582 125.392C167.152 125.634 159.298 110.168 143.832 119.475C128.331 128.783 127.432 135.045 127.432 135.045L131.099 137.986Z" fill="#92A68F"/>
<path d="M159.644 120.892C159.644 120.892 147.534 116.186 132.172 134.455" stroke="#22351B" stroke-width="0.228222" stroke-miterlimit="10"/>
<path d="M156.808 125.22C156.808 125.22 154.213 121.379 147.881 122.037" stroke="#22351B" stroke-width="0.228222" stroke-miterlimit="10"/>
<path d="M143.832 124.079C143.832 124.079 145.181 121.346 147.154 118.543" stroke="#22351B" stroke-width="0.228222" stroke-miterlimit="10"/>
<path d="M138.262 128.197C138.262 128.197 143.521 126.675 148.642 129.062" stroke="#22351B" stroke-width="0.228222" stroke-miterlimit="10"/>
<path d="M134.525 131.792C134.525 131.792 134.56 128.193 136.601 125.148" stroke="#22351B" stroke-width="0.228222" stroke-miterlimit="10"/>
<path d="M20.8629 95.257C22.3534 95.257 23.5617 94.0487 23.5617 92.5582C23.5617 91.0677 22.3534 89.8594 20.8629 89.8594C19.3724 89.8594 18.1641 91.0677 18.1641 92.5582C18.1641 94.0487 19.3724 95.257 20.8629 95.257Z" fill="#E87552"/>
<path d="M127.569 54.6371C129.441 54.6371 130.959 53.119 130.959 51.2463C130.959 49.3736 129.441 47.8555 127.569 47.8555C125.696 47.8555 124.178 49.3736 124.178 51.2463C124.178 53.119 125.696 54.6371 127.569 54.6371Z" fill="#E87552"/>
<path d="M135.078 40.9688C138.231 40.9688 140.787 38.4128 140.787 35.2598C140.787 32.1068 138.231 29.5508 135.078 29.5508C131.925 29.5508 129.369 32.1068 129.369 35.2598C129.369 38.4128 131.925 40.9688 135.078 40.9688Z" fill="#92A68F"/>
<path d="M30.7926 73.7023C32.2831 73.7023 33.4914 72.494 33.4914 71.0035C33.4914 69.513 32.2831 68.3047 30.7926 68.3047C29.302 68.3047 28.0938 69.513 28.0938 71.0035C28.0938 72.494 29.302 73.7023 30.7926 73.7023Z" fill="#92A68F"/>
<path d="M29.2022 86.6764C29.2022 87.6452 28.4064 88.4064 27.4722 88.4064C26.5034 88.4064 25.7422 87.6106 25.7422 86.6764C25.7422 85.7076 26.538 84.9464 27.4722 84.9464C28.441 84.9118 29.2022 85.7076 29.2022 86.6764Z" fill="white"/>
<path d="M140.509 50.4175C140.509 51.2479 139.851 51.9053 139.021 51.9053C138.191 51.9053 137.533 51.2479 137.533 50.4175C137.533 49.5871 138.191 48.9297 139.021 48.9297C139.851 48.9297 140.509 49.6217 140.509 50.4175Z" fill="white"/>
<path d="M51.9334 23.0473C51.9334 23.7739 51.3452 24.3275 50.6532 24.3275C49.9266 24.3275 49.373 23.7393 49.373 23.0473C49.373 22.3553 49.9612 21.7671 50.6532 21.7671C51.3452 21.7325 51.9334 22.3207 51.9334 23.0473Z" fill="white"/>
<path d="M52.5234 66.2617C52.5234 66.2617 60.7582 67.3343 64.841 68.9951C68.9238 70.6213 67.8512 97.0903 67.8512 97.0903L53.3884 92.4193L52.5234 66.2617Z" fill="#475644"/>
<path d="M47.6096 115.15L46.6754 71.5882C46.6062 68.7164 48.8552 66.329 51.6924 66.2252C54.495 66.0868 56.917 68.1974 57.1592 71L61.415 115.184H47.6096V115.15Z" fill="#92A68F"/>
<path opacity="0.42" d="M59.4077 94.3545L67.8501 97.0879C67.8501 97.0879 67.8501 97.0532 67.8501 97.0187L62.3487 70.7227C62.3487 70.7227 57.8853 74.7709 55.8093 77.4005C53.7333 80.0301 54.0101 92.5553 54.6329 99.8559C54.9789 104.042 56.3283 110.478 57.4009 115.149H61.4491L59.4077 94.3545Z" fill="#475644"/>
<path d="M97.7793 102.176C97.7793 102.176 101.585 102.418 103.419 103.075C105.253 103.733 105.322 104.632 104.146 104.529C102.969 104.425 99.0595 104.321 99.0595 104.321L97.7793 102.176Z" fill="#633222"/>
<path d="M96.3614 98.4727C96.3614 98.4727 97.6416 99.9605 97.953 100.652C98.299 101.31 97.0188 101.587 96.6036 101.137C96.1884 100.687 94.2162 98.8879 93.8356 98.7149C93.4896 98.5073 96.3614 98.4727 96.3614 98.4727Z" fill="#633222"/>
<path d="M79.8911 98.199C79.8911 98.199 85.8077 97.0226 88.7833 96.469C91.7589 95.9154 93.8349 96.123 95.8763 97.1956C97.9523 98.2682 99.3017 99.2716 99.0595 99.8944C98.8519 100.517 97.2949 99.9982 96.5337 99.5484C95.7379 99.0986 94.4231 99.1332 93.6273 99.1678C92.8315 99.237 93.1083 99.6868 93.8003 100.31C94.4577 100.932 94.8729 101.97 93.9733 102.04C93.0737 102.109 90.4787 100.483 89.4753 100.31C88.4719 100.137 84.0085 101.486 80.9291 103.285C77.8843 105.05 79.8911 98.199 79.8911 98.199Z" fill="#7A422B"/>
<path d="M93.627 108.265C93.627 108.265 94.9763 107.469 97.3291 107.642C99.6819 107.815 100.478 107.712 100.236 107.02C100.028 106.362 97.2254 105.324 97.2254 105.324C97.2254 105.324 94.319 107.089 93.627 108.265Z" fill="#633222"/>
<path d="M65.8776 67.0586C65.8776 67.0586 60.8952 71.3144 58.2656 77.1964C55.7744 82.5248 59.8918 115.118 59.8918 115.118L82.4856 115.429C82.4856 115.429 81.1708 97.7142 81.932 95.5344C82.6932 93.3546 85.0806 92.6972 83.4544 85.535C81.8282 78.3728 75.4618 72.214 75.4618 72.214L65.8776 67.0586Z" fill="#D35F44"/>
<path opacity="0.69" d="M82.487 115.429C82.487 115.429 82.2448 112.35 82.0372 108.578C79.9612 108.544 76.5704 108.198 74.5636 106.675C71.5188 104.357 69.7542 90.2403 69.7542 90.2403L57.4712 83.5625C57.2982 94.7037 59.8932 115.118 59.8932 115.118L82.487 115.429Z" fill="#933F2E"/>
<path d="M66.5014 94.1143C67.2626 93.6645 73.5598 90.8619 71.1724 81.4161C69.6154 75.2919 64.0102 73.8041 60.2389 73.5273C59.5123 74.6345 58.8202 75.8455 58.232 77.1603C57.3324 79.0633 57.2978 84.4609 57.6092 90.5851C61.5536 92.3843 66.0862 94.3565 66.5014 94.1143Z" fill="#FFF6E7"/>
<path d="M57.6445 79.5829C57.8175 78.6487 58.2673 77.7491 59.0285 77.1263C59.9281 76.3651 61.4851 75.7423 63.9071 76.3305C68.7857 77.5415 69.8929 88.0599 69.9967 95.4643C70.1005 102.834 70.6541 103.941 70.6541 103.941C70.6541 103.941 77.1589 104.806 83.0409 104.253C88.9229 103.699 95.3239 102.28 97.3999 102.177C99.4759 102.073 102.624 104.668 102.832 106.19C103.04 107.713 101.759 106.848 100.998 106.19C100.237 105.533 98.5071 104.875 96.8809 106.294C95.2547 107.713 91.8985 110.204 88.6115 109.996C85.3591 109.789 85.5667 109.996 81.9683 111.207C78.3699 112.418 68.6473 115.982 64.8759 115.394C61.1045 114.806 61.7965 110.446 59.9281 103.63C58.0943 96.9867 56.2951 86.9181 57.6445 79.5829Z" fill="#7A422B"/>
<path d="M70.6531 103.906C70.6531 103.906 68.0581 103.802 66.3281 104.356" stroke="#1D1D1B" stroke-width="0.201856" stroke-miterlimit="10"/>
<path d="M65.8789 67.0586C65.8789 67.0586 68.5777 76.4352 74.0791 77.9576C78.1619 79.1686 75.4631 72.2486 75.4631 72.2486L65.8789 67.0586Z" fill="#FFF6E7"/>
<path d="M66.3633 58.233C66.3633 58.233 67.4705 63.9766 65.8789 67.056C71.8993 71.381 75.4631 72.2114 75.4631 72.2114C75.4631 72.2114 73.1449 67.2636 73.0411 62.4196C72.9373 57.541 66.3633 58.233 66.3633 58.233Z" fill="#7A422B"/>
<path d="M67.8516 58.2344C68.5436 60.7948 70.1698 65.189 73.5606 66.4692C73.2838 65.189 73.0762 63.805 73.0416 62.421C72.9724 59.0648 69.8238 58.3382 67.8516 58.2344Z" fill="#492315"/>
<path d="M78.0227 81.6217C78.0227 82.1407 77.6075 82.5559 77.0885 82.5559C76.5695 82.5559 76.1543 82.1407 76.1543 81.6217C76.1543 81.1027 76.5695 80.6875 77.0885 80.6875C77.6075 80.6875 78.0227 81.1027 78.0227 81.6217Z" fill="#FFF6E7"/>
<path d="M78.5768 88.8879C79.0927 88.8879 79.511 88.4697 79.511 87.9537C79.511 87.4378 79.0927 87.0195 78.5768 87.0195C78.0608 87.0195 77.6426 87.4378 77.6426 87.9537C77.6426 88.4697 78.0608 88.8879 78.5768 88.8879Z" fill="#FFF6E7"/>
<path d="M77.5742 95.187C77.0552 95.1524 76.6746 94.7026 76.7092 94.1836C76.7438 93.6646 77.1936 93.284 77.7126 93.3186C78.2316 93.3532 78.6122 93.803 78.5776 94.322C78.5084 94.8756 78.0586 95.2562 77.5742 95.187Z" fill="#FFF6E7"/>
<path d="M77.5742 103.109C77.0552 103.074 76.6746 102.624 76.7092 102.105C76.7438 101.586 77.1936 101.206 77.7126 101.24C78.2316 101.275 78.6122 101.725 78.5776 102.244C78.5084 102.763 78.0586 103.143 77.5742 103.109Z" fill="#FFF6E7"/>
<path d="M86.9846 43.9788C86.9846 42.4218 86.0504 41.0378 84.7356 40.415C84.7702 40.1728 84.8048 39.9652 84.8048 39.723C84.8048 37.5432 83.0402 35.744 80.8258 35.744C80.3068 35.744 79.8224 35.8478 79.3726 36.0208C79.0612 34.1178 77.435 32.6992 75.4628 32.6992C74.2864 32.6992 73.2484 33.2182 72.5218 34.014C71.6568 33.2182 70.515 32.6992 69.2694 32.6992C66.7782 32.6992 64.7714 34.6022 64.5638 37.0588C64.0102 36.8166 63.422 36.6782 62.7992 36.6782C60.3772 36.6782 58.405 38.6504 58.405 41.0724C58.405 41.9028 58.6472 42.664 59.0278 43.3214C57.4016 43.8404 56.2598 45.3282 56.2598 47.1274C56.2598 48.9266 57.4708 50.449 59.1316 50.9334C58.5434 51.6254 58.1628 52.525 58.1628 53.5284C58.1628 55.5698 59.7198 57.2652 61.692 57.4728C62.3494 58.7184 63.6642 59.5834 65.1866 59.5834C67.3664 59.5834 69.1656 57.8188 69.1656 55.6044C69.1656 54.8432 68.958 54.1512 68.5774 53.563C70.5842 53.217 75.0822 52.352 77.1236 51.2448C77.8502 51.9714 78.8536 52.4212 79.9262 52.4212C82.106 52.4212 83.9052 50.6566 83.9052 48.4422C83.9052 48.2346 83.8706 48.0616 83.8706 47.854C85.6352 47.508 86.9846 45.9164 86.9846 43.9788Z" fill="#2C1C16"/>
<path d="M86.9846 43.9788C86.9846 42.4218 86.0504 41.0378 84.7356 40.415C84.7702 40.1728 84.8048 39.9652 84.8048 39.723C84.8048 37.5432 83.0402 35.744 80.8258 35.744C80.3068 35.744 79.8224 35.8478 79.3726 36.0208C79.0612 34.1178 77.435 32.6992 75.4628 32.6992C74.2864 32.6992 73.2484 33.2182 72.5218 34.014C71.6568 33.2182 70.515 32.6992 69.2694 32.6992C66.7782 32.6992 64.7714 34.6022 64.5638 37.0588C64.0102 36.8166 63.422 36.6782 62.7992 36.6782C60.3772 36.6782 58.405 38.6504 58.405 41.0724C58.405 41.9028 58.6472 42.664 59.0278 43.3214C57.4016 43.8404 56.2598 45.3282 56.2598 47.1274C56.2598 48.9266 57.4708 50.449 59.1316 50.9334C58.5434 51.6254 58.1628 52.525 58.1628 53.5284C58.1628 55.5698 59.7198 57.2652 61.692 57.4728C62.3494 58.7184 63.6642 59.5834 65.1866 59.5834C67.3664 59.5834 69.1656 57.8188 69.1656 55.6044C69.1656 54.8432 68.958 54.1512 68.5774 53.563C70.5842 53.217 75.0822 52.352 77.1236 51.2448C77.8502 51.9714 78.8536 52.4212 79.9262 52.4212C82.106 52.4212 83.9052 50.6566 83.9052 48.4422C83.9052 48.2346 83.8706 48.0616 83.8706 47.854C85.6352 47.508 86.9846 45.9164 86.9846 43.9788Z" fill="#2C1C16"/>
<path d="M86.9853 43.9788C86.9853 42.4218 86.0511 41.0378 84.7363 40.415C84.7709 40.1728 84.8055 39.9652 84.8055 39.723C84.8055 37.5432 83.0409 35.744 80.8265 35.744C80.3075 35.744 79.8231 35.8478 79.3733 36.0208C79.0965 34.2216 77.6087 32.8376 75.7403 32.6992C73.8027 33.1836 72.3149 34.8444 72.1419 36.9204C71.5883 36.6782 71.0001 36.5398 70.3773 36.5398C67.9553 36.5398 65.9831 38.512 65.9831 40.934C65.9831 41.7644 66.2253 42.5256 66.6059 43.183C64.9797 43.702 63.8379 45.1898 63.8379 46.989C63.8379 48.7882 65.0489 50.3106 66.7097 50.795C66.1215 51.487 65.7409 52.3866 65.7409 53.39C65.7409 55.2584 67.0211 56.8154 68.7511 57.2306C68.9933 56.7462 69.0971 56.158 69.0971 55.5698C69.0971 54.8086 68.8895 54.1166 68.5089 53.5284C70.5157 53.1824 75.0137 52.3174 77.0551 51.2102C77.7817 51.9368 78.7851 52.3866 79.8577 52.3866C82.0375 52.3866 83.8367 50.622 83.8367 48.4076C83.8367 48.2 83.8021 48.027 83.8021 47.8194C85.6359 47.508 86.9853 45.9164 86.9853 43.9788Z" fill="#442217"/>
<path d="M79.1305 62.9758C81.0223 62.9758 82.5559 61.4422 82.5559 59.5504C82.5559 57.6586 81.0223 56.125 79.1305 56.125C77.2387 56.125 75.7051 57.6586 75.7051 59.5504C75.7051 61.4422 77.2387 62.9758 79.1305 62.9758Z" stroke="#E87552" stroke-width="0.338769" stroke-miterlimit="10"/>
<path d="M80.0995 46.5742C80.0995 46.5742 80.8261 49.2038 80.8261 52.6984C80.8261 56.193 80.7223 58.3036 80.8261 60.0682C80.9299 61.8674 77.4353 63.7704 75.7745 64.1856C74.0791 64.6008 66.1903 62.075 65.9827 56.2622C65.8789 52.56 65.8789 52.56 65.8789 52.56C65.8789 52.56 66.8131 52.56 67.4705 50.0342C69.0621 49.7228 69.3735 47.9236 69.3735 47.3008C71.2765 47.716 73.1795 47.197 73.3871 46.5742C74.7711 47.6122 77.1931 47.4046 77.6083 46.5742C78.8539 47.197 80.0995 46.5742 80.0995 46.5742Z" fill="#7A422B"/>
<path d="M77.8156 54.3594C77.8156 54.3594 78.1962 56.0894 78.7152 56.7814C79.2342 57.4388 78.3692 58.2346 76.4316 57.7156" stroke="#442217" stroke-width="0.254068" stroke-miterlimit="10"/>
<path d="M78.0231 59.4432C78.0231 59.4432 75.4627 59.4432 73.9057 59.028C73.7673 58.9934 73.6981 59.1664 73.8019 59.2356C75.3935 60.4812 77.3311 60.4466 77.8155 60.3774L78.0231 59.4432Z" fill="#FFF6E7"/>
<path d="M74.5633 54.0823C73.8713 53.8401 73.2831 53.6671 72.6603 53.4941C72.3489 53.4249 72.0375 53.3557 71.7261 53.2865C71.4147 53.2173 71.0687 53.1827 70.7227 53.0789C71.0341 52.9059 71.3801 52.8021 71.7607 52.7675C72.1067 52.7329 72.4873 52.7675 72.8333 52.8367C73.1793 52.9059 73.5253 53.0789 73.8367 53.2865C74.1135 53.4941 74.3903 53.7363 74.5633 54.0823Z" fill="#2C1C16"/>
<path d="M78.9922 54.2189C78.9922 53.9767 79.096 53.8037 79.1998 53.6307C79.3036 53.4577 79.4766 53.3193 79.6496 53.2155C79.9956 53.0079 80.4454 52.9387 80.8606 53.1809C80.6876 53.3539 80.5492 53.4231 80.4108 53.5269C80.2724 53.6307 80.134 53.6999 79.9956 53.7691C79.8572 53.8383 79.7188 53.9075 79.5458 53.9767C79.3728 54.1151 79.1998 54.1843 78.9922 54.2189Z" fill="#2C1C16"/>
<path d="M74.0794 49.5481C74.0794 49.5481 71.7958 48.9945 70.5156 50.1709" stroke="#2C1C16" stroke-width="0.338769" stroke-miterlimit="10" stroke-linecap="round"/>
<path d="M78.9922 49.6549C78.9922 49.6549 80.2378 49.5857 80.8606 50.1739" stroke="#2C1C16" stroke-width="0.338769" stroke-miterlimit="10" stroke-linecap="round"/>
<path opacity="0.38" d="M72.6249 55.7439C72.6249 56.3667 71.7253 56.8511 70.6181 56.8511C69.5109 56.8511 68.6113 56.3667 68.6113 55.7439C68.6113 55.1211 69.5109 54.6367 70.6181 54.6367C71.7599 54.6367 72.6249 55.1211 72.6249 55.7439Z" fill="#D35F44"/>
<path opacity="0.38" d="M79.5801 55.745C79.5801 56.1948 80.0991 56.61 80.7911 56.783C80.7911 56.1602 80.8257 55.4682 80.8257 54.707C80.0991 54.88 79.5801 55.2606 79.5801 55.745Z" fill="#D35F44"/>
<path d="M65.4014 57.3286C66.686 56.785 67.2444 55.2031 66.6487 53.7953C66.0529 52.3875 64.5286 51.6869 63.244 52.2305C61.9594 52.7742 61.4009 54.3561 61.9967 55.7639C62.5924 57.1717 64.1167 57.8723 65.4014 57.3286Z" fill="#7A422B"/>
<path d="M62.4186 53.9091C62.1764 54.0129 61.9688 54.1513 61.7958 54.2897C61.7612 54.7741 61.8304 55.2585 62.0034 55.7429C62.5916 57.1615 64.114 57.8535 65.3942 57.2999C65.6364 57.1961 65.844 57.0577 66.017 56.9193C66.0516 56.4349 65.9824 55.9505 65.8094 55.4661C65.2212 54.0821 63.6988 53.3555 62.4186 53.9091Z" fill="#592C1D"/>
<path d="M64.8395 56.0898C66.7425 56.0898 68.2649 57.6122 68.2649 59.5152C68.2649 61.4182 66.7425 62.9406 64.8395 62.9406C62.9365 62.9406 61.4141 61.4182 61.4141 59.5152C61.4141 58.408 61.9331 57.4392 62.7635 56.7818" stroke="#E87552" stroke-width="0.338769" stroke-miterlimit="10"/>
<path d="M84.5633 104.115C84.5633 104.115 84.2519 110.482 86.0165 112.627C87.8157 114.807 87.3659 109.928 87.3659 109.928L88.2655 109.963C88.2655 109.963 88.6461 114.115 86.6393 114.115C84.6325 114.115 83.3523 108.752 83.7329 104.15C83.8713 102.766 86.1203 102.766 86.1895 103.873C84.5633 104.115 84.5633 104.115 84.5633 104.115Z" fill="#D35F44"/>
<path d="M77.0879 81.625H82.1395" stroke="#FFF6E7" stroke-width="0.338769" stroke-miterlimit="10"/>
<path d="M78.5762 87.957H84.0084" stroke="#FFF6E7" stroke-width="0.338769" stroke-miterlimit="10"/>
<path d="M77.6426 94.2891H82.5558" stroke="#FFF6E7" stroke-width="0.338769" stroke-miterlimit="10"/>
<path d="M77.6426 102.176H81.76" stroke="#FFF6E7" stroke-width="0.338769" stroke-miterlimit="10"/>
<path d="M115.044 112.383H92.6582V114.77H115.044V112.383Z" fill="#647761"/>
<path d="M96.119 111.691H94.043V112.383H96.119V111.691Z" fill="#7B9177"/>
<path d="M98.5408 111.691H96.4648V112.383H98.5408V111.691Z" fill="#7B9177"/>
<path d="M100.963 111.691H98.8867V112.383H100.963V111.691Z" fill="#7B9177"/>
<path d="M103.385 111.691H101.309V112.383H103.385V111.691Z" fill="#7B9177"/>
<path d="M105.806 111.691H103.73V112.383H105.806V111.691Z" fill="#7B9177"/>
<path d="M108.228 111.691H106.152V112.383H108.228V111.691Z" fill="#7B9177"/>
<path d="M110.65 111.691H108.574V112.383H110.65V111.691Z" fill="#7B9177"/>
<path d="M113.072 111.691H110.996V112.383H113.072V111.691Z" fill="#7B9177"/>
<path d="M103.211 110.794C103.211 110.794 103.695 107.264 106.221 108.026C108.712 108.787 104.249 109.237 103.211 110.794Z" fill="#D35F44"/>
<path d="M104.318 107.575C104.318 107.575 105.737 104.807 107.571 106.156C109.405 107.471 105.633 106.571 104.318 107.575Z" fill="#FFF6E7"/>
<path d="M49.5112 94.8086H48.5078V104.22H49.5112V94.8086Z" fill="#FFF6E7"/>
<path d="M49.9956 97.6118H48.5078V94.1172C48.5078 93.702 48.8538 93.3906 49.2344 93.3906C49.6496 93.3906 49.961 93.7366 49.961 94.1172V97.6118H49.9956Z" fill="#A34731"/>
<path d="M49.9961 97.6133V99.3433C49.9961 99.8277 49.8231 100.277 49.5117 100.623V97.6133H49.9961Z" fill="#A34731"/>
<path d="M46.6843 104.186L47.6719 104.008L46.0033 94.7453L45.0157 94.9232L46.6843 104.186Z" fill="#FFF6E7"/>
<path d="M45.0486 97.7513L46.5018 97.4746L45.879 94.0492C45.8098 93.634 45.4292 93.3917 45.014 93.4609C44.5988 93.5301 44.3566 93.9107 44.4258 94.3259L45.0486 97.7513Z" fill="#92A68F"/>
<path d="M45.0488 97.7522L45.3602 99.4476C45.4294 99.8974 45.7062 100.347 46.0522 100.624L45.5332 97.6484L45.0488 97.7522Z" fill="#92A68F"/>
<path d="M51.8297 103.215H42.9375V114.737H51.8297V103.215Z" fill="#A34731"/>
<path d="M46.9165 103.215H42.9375V114.737H46.9165V103.215Z" fill="#E87552"/>
<path d="M42.2813 101.277H52.4537C53.0073 101.277 53.4225 101.727 53.4225 102.246C53.4225 102.8 52.9727 103.215 52.4537 103.215H42.2813C41.7277 103.215 41.3125 102.765 41.3125 102.246C41.3125 101.693 41.7277 101.277 42.2813 101.277Z" fill="#A34731"/>
<path d="M44.4951 102.246C44.4951 101.693 44.9449 101.277 45.4639 101.277H42.2461C41.6925 101.277 41.2773 101.727 41.2773 102.246C41.2773 102.8 41.7271 103.215 42.2461 103.215H45.4639C44.9449 103.215 44.4951 102.765 44.4951 102.246Z" fill="#E87552"/>
<path d="M51.8297 103.215H42.9375V104.703H51.8297V103.215Z" fill="#A34731"/>
<path d="M128.538 91.8984H121.445V114.804H128.538V91.8984Z" fill="#92A68F"/>
<path d="M128.538 91.8984H121.445V99.9256H128.538V91.8984Z" fill="#475644"/>
<path d="M149.403 61.2422H110.097L101.793 96.1882H141.064L149.403 61.2422Z" fill="#475644"/>
<path d="M146.635 61.2422H107.329L99.0254 96.1882H138.296L146.635 61.2422Z" fill="#92A68F"/>
<path d="M143.97 62.9727H108.817L101.654 93.1439H136.773L143.97 62.9727Z" fill="#FFF6E7" stroke="#7B9177" stroke-width="0.276973" stroke-miterlimit="10"/>
<path d="M129.542 64.5977H110.823L106.982 80.6867H125.701L129.542 64.5977Z" fill="#E2D8C9"/>
<path d="M120.927 66.7773H111.101L109.094 75.2197H118.92L120.927 66.7773Z" fill="#BAAFA0"/>
<path d="M137.673 82.1406H127.155L125.01 91.1712H135.528L137.673 82.1406Z" fill="#D35F44"/>
<path d="M109.474 82.1406H106.948L104.803 91.1712H107.329L109.474 82.1406Z" fill="#E87552"/>
<path d="M113.454 82.1406H110.928L108.783 91.1712H111.309L113.454 82.1406Z" fill="#92A68F"/>
<path d="M117.468 82.1406H114.942L112.797 91.1712H115.323L117.468 82.1406Z" fill="#475644"/>
<path d="M121.446 82.1406H118.921L116.775 91.1712H119.301L121.446 82.1406Z" fill="#D35F44"/>
<path d="M125.425 82.1406H122.934L120.754 91.1712H123.28L125.425 82.1406Z" fill="#647761"/>
<path d="M131.342 64.5977H141.756" stroke="#7B9177" stroke-width="0.0827978" stroke-miterlimit="10"/>
<path d="M130.789 66.4688H141.204" stroke="#7B9177" stroke-width="0.0827978" stroke-miterlimit="10"/>
<path d="M130.338 68.3008H140.752" stroke="#7B9177" stroke-width="0.0827978" stroke-miterlimit="10"/>
<path d="M129.82 70.168H140.235" stroke="#7B9177" stroke-width="0.0827978" stroke-miterlimit="10"/>
<path d="M129.336 72.0391H139.751" stroke="#7B9177" stroke-width="0.0827978" stroke-miterlimit="10"/>
<path d="M128.781 73.9062H139.161" stroke="#7B9177" stroke-width="0.0827978" stroke-miterlimit="10"/>
<path d="M128.262 75.7734H138.676" stroke="#7B9177" stroke-width="0.0827978" stroke-miterlimit="10"/>
<path d="M127.709 77.6406H138.124" stroke="#7B9177" stroke-width="0.0827978" stroke-miterlimit="10"/>
<path d="M127.26 79.5117H137.674" stroke="#7B9177" stroke-width="0.0827978" stroke-miterlimit="10"/>
<path d="M139.299 96.1882L147.568 61.2422" stroke="#92A68F" stroke-width="0.338769" stroke-miterlimit="10"/>
<path d="M119.162 113.105H128.539V114.801H117.467C117.467 113.867 118.228 113.105 119.162 113.105Z" fill="#7B9177"/>
<path d="M110.443 66.1201H129.197L129.543 64.5977H110.824L110.443 66.1201Z" fill="#92A68F"/>
<path d="M111.932 65.3605C111.932 65.5681 111.759 65.7757 111.517 65.7757C111.309 65.7757 111.102 65.6027 111.102 65.3605C111.102 65.1183 111.275 64.9453 111.517 64.9453C111.759 64.9799 111.932 65.1529 111.932 65.3605Z" fill="#FFF6E7"/>
<path d="M112.796 65.7757C113.025 65.7757 113.211 65.5898 113.211 65.3605C113.211 65.1312 113.025 64.9453 112.796 64.9453C112.567 64.9453 112.381 65.1312 112.381 65.3605C112.381 65.5898 112.567 65.7757 112.796 65.7757Z" fill="#E87552"/>
<path d="M114.457 65.3605C114.457 65.5681 114.284 65.7757 114.042 65.7757C113.835 65.7757 113.627 65.6027 113.627 65.3605C113.627 65.1183 113.8 64.9453 114.042 64.9453C114.284 64.9799 114.457 65.1529 114.457 65.3605Z" fill="#475644"/>
<path d="M109.232 76.2227H125.702" stroke="#BAAFA0" stroke-width="0.338769" stroke-miterlimit="10"/>
<path d="M108.748 77.6406H125.218" stroke="#BAAFA0" stroke-width="0.338769" stroke-miterlimit="10"/>
<path d="M108.471 79.0625H124.94" stroke="#BAAFA0" stroke-width="0.338769" stroke-miterlimit="10"/>
<path d="M127.154 82.1406L135.528 91.1712" stroke="#FFF6E7" stroke-width="0.276973" stroke-miterlimit="10"/>
<path d="M125.01 91.1712L137.673 82.1406" stroke="#FFF6E7" stroke-width="0.276973" stroke-miterlimit="10"/>
<path d="M142.309 119.825H35.6371C34.2531 119.825 33.1113 118.683 33.1113 117.299C33.1113 115.915 34.2531 114.773 35.6371 114.773H142.309C143.693 114.773 144.835 115.915 144.835 117.299C144.835 118.683 143.693 119.825 142.309 119.825Z" fill="#F7C49E"/>
<path d="M84.5615 117.299C84.5615 115.915 83.4197 114.773 82.0357 114.773H35.6371C34.2531 114.773 33.1113 115.915 33.1113 117.299C33.1113 118.683 34.2531 119.825 35.6371 119.825H82.0357C83.4197 119.825 84.5615 118.683 84.5615 117.299Z" fill="#E2AB86"/>
<path d="M44.876 158.506H131.341C133.383 158.506 135.044 156.846 135.044 154.804V119.789H41.1738V154.804C41.1738 156.846 42.8346 158.506 44.876 158.506Z" fill="#F7C49E"/>
<path d="M44.8752 158.506H74.0776V119.789H41.2076V154.804C41.173 156.846 42.8338 158.506 44.8752 158.506Z" fill="#E2AB86"/>
<path opacity="0.67" d="M135.009 119.789H41.1738V123.872H135.009V119.789Z" fill="#7A422B"/>
</svg>
